<svg width="500" height="500" viewBox="0 0 500 500" fill="none" xmlns="http://www.w3.org/2000/svg">
<path d="M277.5 207.574C355.604 207.574 424.309 162.371 464.01 93.9838C465.996 90.5628 470.985 90.5346 472.784 94.0573C490.186 128.12 500 166.702 500 207.574C500 345.604 388.071 457.5 250 457.5C229.922 457.5 210.396 455.134 191.688 450.665C190.102 450.286 188.811 449.141 188.236 447.616C156.816 364.263 152.342 273.077 175.548 186.958C176.39 183.831 179.963 182.372 182.826 183.886C211.553 199.08 243.644 207.574 277.5 207.574Z" fill="#FF0055"/>
<path d="M150.137 166.604C150.709 164.636 150.019 162.524 148.42 161.243C112.816 132.71 85.0126 92.6881 69.301 45.9959C68.0685 42.3332 63.3516 41.2554 60.8231 44.1785C22.925 87.9913 0 145.106 0 207.574C0 307.381 58.5212 393.523 143.132 433.579C146.999 435.41 151.079 431.711 149.858 427.611C124.977 344.109 124.487 254.857 148.994 170.538L150.137 166.604Z" fill="#FF0055"/>
</svg>
