<svg width="1884" height="516" viewBox="0 0 1884 516" fill="none" xmlns="http://www.w3.org/2000/svg">
<path d="M136.35 365.487L148.671 224.668L0.941406 0L61.5011 5.29829L177.372 182.331L178.831 182.458L323.683 28.2362L384.243 33.5345L199.988 229.158L187.668 369.977L136.35 365.487Z" fill="black"/>
<path d="M599.434 412.619C561.331 409.285 529.227 399.941 503.122 384.587C477.194 369.084 457.997 348.534 445.532 322.936C433.244 297.191 428.582 267.374 431.547 233.487L448.548 39.1605L500.109 43.6715L483.32 235.565C481.107 260.859 484.159 282.938 492.475 301.801C500.967 320.516 514.523 335.508 533.143 346.776C551.778 357.883 575.201 364.67 603.414 367.138C631.626 369.607 655.872 366.99 676.152 359.288C696.446 351.424 712.399 339.014 724.012 322.058C735.64 304.94 742.56 283.734 744.773 258.44L761.561 66.5456L812.879 71.0353L795.878 265.361C792.913 299.249 783.144 327.803 766.572 351.024C750.013 374.082 727.54 390.987 699.151 401.737C670.939 412.339 637.7 415.967 599.434 412.619Z" fill="black"/>
<path d="M873.719 429.999L904.424 79.0445L965.47 84.3853L1097.47 390.757L1098.93 390.885L1281.89 112.068L1342.93 117.409L1312.23 468.363L1263.59 464.108L1287.57 190.008L1265.68 188.093L1321.19 133.398L1113.53 450.979L1072.42 447.383L923.057 98.565L968.231 162.07L946.342 160.155L922.362 434.254L873.719 429.999Z" fill="black"/>
<path d="M1404.02 476.394L1434.72 125.44L1486.28 129.951L1455.58 480.905L1404.02 476.394Z" fill="black"/>
<path d="M1547.12 488.914L1577.83 137.96L1883.06 164.664L1879.23 208.442L1625.56 186.249L1616.22 293.019L1853.11 313.744L1849.4 356.063L1612.52 335.337L1602.51 449.647L1856.18 471.84L1852.35 515.618L1547.12 488.914Z" fill="black"/>
</svg>
