<svg width="415" height="185" viewBox="0 0 415 185" fill="none" xmlns="http://www.w3.org/2000/svg">
<path d="M0.5 142.836V1.83642H103.9V22.0364H24.3V62.6364H99.5V83.0364H24.3V142.836H0.5ZM98.7094 142.836L166.909 1.83642H188.709L256.909 142.836H231.909L213.109 103.036L224.509 111.436H130.909L141.909 103.036L123.109 142.836H98.7094ZM177.109 26.0364L144.109 96.6364L138.509 91.6364H216.909L210.709 96.6364L178.109 26.0364H177.109ZM385.864 184.436L367.064 155.836C364.664 152.103 361.397 149.303 357.264 147.436C353.264 145.57 348.331 144.636 342.464 144.636L359.664 137.636C364.864 137.636 369.331 138.103 373.064 139.036C376.931 139.836 380.331 141.17 383.264 143.036C386.331 145.036 389.131 147.903 391.664 151.636L406.464 173.636L385.864 184.436ZM341.064 144.636C329.864 144.636 319.731 143.036 310.664 139.836C301.597 136.503 293.797 131.703 287.264 125.436C280.864 119.17 275.931 111.57 272.464 102.636C269.131 93.7031 267.464 83.6364 267.464 72.4364C267.464 61.2364 269.131 51.1698 272.464 42.2364C275.931 33.3031 280.864 25.7031 287.264 19.4364C293.797 13.0364 301.597 8.23642 310.664 5.03642C319.731 1.70309 329.864 0.0364165 341.064 0.0364165C352.397 0.0364165 362.531 1.70309 371.464 5.03642C380.531 8.36975 388.264 13.1698 394.664 19.4364C401.064 25.5698 405.997 33.1031 409.464 42.0364C412.931 50.9698 414.664 61.0364 414.664 72.2364C414.664 83.4364 412.931 93.5031 409.464 102.436C405.997 111.236 401.064 118.836 394.664 125.236C388.264 131.636 380.531 136.503 371.464 139.836C362.531 143.036 352.397 144.636 341.064 144.636ZM341.064 124.036C351.331 124.036 360.131 122.036 367.464 118.036C374.797 114.036 380.397 108.236 384.264 100.636C388.264 92.9031 390.264 83.4364 390.264 72.2364C390.264 61.0364 388.331 51.6364 384.464 44.0364C380.597 36.3031 374.931 30.5031 367.464 26.6364C360.131 22.6364 351.331 20.6364 341.064 20.6364C330.797 20.6364 321.997 22.6364 314.664 26.6364C307.331 30.5031 301.664 36.3031 297.664 44.0364C293.797 51.6364 291.864 61.0364 291.864 72.2364C291.864 83.4364 293.797 92.9031 297.664 100.636C301.664 108.236 307.331 114.036 314.664 118.036C321.997 122.036 330.797 124.036 341.064 124.036Z" fill="black"/>
</svg>
