<svg width="80" height="80" viewBox="0 0 80 80" fill="none" xmlns="http://www.w3.org/2000/svg">
<path d="M44.4 33.4119C56.8967 33.4119 67.8894 26.1793 74.2416 15.2374C74.5594 14.69 75.3575 14.6855 75.6455 15.2492C78.4297 20.6992 80 26.8722 80 33.4119C80 55.4967 62.0914 73.4 40 73.4C36.7875 73.4 33.6634 73.0214 30.67 72.3064C30.4163 72.2458 30.2098 72.0626 30.1178 71.8186C25.0905 58.482 24.3748 43.8924 28.0876 30.1132C28.2225 29.6129 28.794 29.3795 29.2522 29.6218C33.8486 32.0529 38.983 33.4119 44.4 33.4119Z" fill="#FF0055"/>
<path d="M24.022 26.8566C24.1135 26.5418 24.0031 26.2038 23.7473 25.9988C18.0506 21.4336 13.602 15.0301 11.0882 7.55935C10.891 6.97331 10.1362 6.80086 9.73169 7.26855C3.668 14.2786 0 23.417 0 33.4119C0 49.381 9.3634 63.1637 22.901 69.5726C23.5199 69.8656 24.1727 69.2737 23.9773 68.6177C19.9964 55.2574 19.918 40.977 23.839 27.4862L24.022 26.8566Z" fill="#FF0055"/>
</svg>
