<svg width="393" height="852" fill="none" xmlns="http://www.w3.org/2000/svg"><rect width="393" height="852" rx="48" fill="#fff"/><g clip-path="url(#a)"><g filter="url(#b)"><mask id="c" fill="#fff"><path d="M0 0h393v54H0V0z"/></mask><path d="M0 0h393v54H0V0z" fill="#fff" fill-opacity=".75" style="mix-blend-mode:hard-light"/><path d="M393 53.667H0v.666h393v-.666z" fill="#000" fill-opacity=".3" mask="url(#c)"/><path d="M57.69 23.063c.642 0 1.251.119 1.827.357a4.07 4.07 0 0 1 1.527 1.096c.448.492.8 1.126 1.054 1.9.255.77.382 1.697.382 2.781v.017c0 1.345-.194 2.496-.581 3.453-.387.957-.944 1.693-1.669 2.208-.719.51-1.58.764-2.581.764-.736 0-1.4-.133-1.992-.399a4.076 4.076 0 0 1-1.461-1.112 3.887 3.887 0 0 1-.772-1.627l-.017-.091h2.1l.034.083c.105.276.254.52.448.73.199.21.437.374.714.49.282.11.597.166.946.166.63 0 1.145-.185 1.544-.556.404-.377.705-.877.905-1.503.204-.63.32-1.328.348-2.091.006-.084.009-.164.009-.241v-.24l-.374-2.001c0-.454-.105-.866-.315-1.237a2.372 2.372 0 0 0-.855-.88 2.266 2.266 0 0 0-1.204-.324 2.31 2.31 0 0 0-1.187.316c-.36.21-.647.498-.863.863a2.31 2.31 0 0 0-.324 1.212v.016c0 .465.102.877.307 1.237.205.354.484.634.838.839.355.204.759.307 1.212.307.454 0 .86-.1 1.22-.3.36-.198.645-.475.856-.83.21-.353.315-.755.315-1.203v-.016h.498v2.208h-.29a2.883 2.883 0 0 1-.64.88c-.282.27-.63.49-1.046.655-.409.166-.89.25-1.444.25-.764 0-1.439-.172-2.025-.515a3.73 3.73 0 0 1-1.386-1.412c-.332-.597-.498-1.272-.498-2.025v-.017c0-.813.188-1.535.564-2.166a4.02 4.02 0 0 1 1.577-1.494c.675-.365 1.442-.548 2.3-.548zM66.25 33.73a1.3 1.3 0 0 1-.947-.374 1.28 1.28 0 0 1-.373-.93c0-.37.124-.68.373-.93.255-.254.57-.381.947-.381.381 0 .697.127.946.382.249.249.373.559.373.93 0 .364-.124.674-.373.929-.25.249-.565.373-.946.373zm0-6.16a1.3 1.3 0 0 1-.947-.373 1.28 1.28 0 0 1-.373-.93c0-.37.124-.68.373-.93.255-.254.57-.381.947-.381.381 0 .697.127.946.381.249.25.373.56.373.93 0 .365-.124.675-.373.93-.25.249-.565.373-.946.373zm9.579 7.77v-2.3h-5.86v-1.75l.946-1.62a154.586 154.586 0 0 1 1.959-3.22c.332-.531.66-1.055.987-1.57.332-.52.664-1.026.996-1.518h3.014v7.91h1.618v1.769H77.87v2.299h-2.042zm-3.868-4.018h3.9v-6.25h-.124c-.243.376-.495.763-.755 1.162-.255.398-.512.805-.772 1.22-.26.415-.517.833-.772 1.253a96.31 96.31 0 0 0-1.477 2.49v.125zm12.484 4.018v-9.87h-.15l-2.98 2.1v-2.009l3.13-2.2h2.133V35.34h-2.133z" fill="#000"/><rect opacity=".35" x="334" y="23.5" width="24" height="12" rx="3.8" stroke="#000"/><path opacity=".4" d="M359.5 27.781v4.076a2.211 2.211 0 0 0 1.328-2.038c0-.89-.523-1.693-1.328-2.038z" fill="#000"/><rect x="335.5" y="25" width="21" height="9" rx="2.5" fill="#000"/><path fill-rule="evenodd" clip-rule="evenodd" d="M317.771 26.104c2.487 0 4.879.922 6.681 2.576a.355.355 0 0 0 .487-.004l1.297-1.263a.344.344 0 0 0 .105-.248.342.342 0 0 0-.108-.246c-4.731-4.375-12.195-4.375-16.926 0a.346.346 0 0 0-.108.246c0 .093.037.182.105.248l1.298 1.263c.133.13.35.132.486.004 1.803-1.654 4.195-2.576 6.683-2.576zm-.004 4.22c1.357 0 2.666.512 3.672 1.436a.344.344 0 0 0 .484-.006l1.287-1.32a.367.367 0 0 0-.005-.519 7.9 7.9 0 0 0-10.873 0 .367.367 0 0 0-.005.52l1.287 1.319a.342.342 0 0 0 .483.006 5.43 5.43 0 0 1 3.67-1.436zm2.525 2.794a.408.408 0 0 1-.103.28l-2.177 2.455a.32.32 0 0 1-.241.113.324.324 0 0 1-.242-.113l-2.177-2.455a.407.407 0 0 1-.102-.28.403.403 0 0 1 .113-.276c1.39-1.314 3.426-1.314 4.816 0 .07.07.111.17.113.276zM301.7 24.682c0-.633-.478-1.146-1.067-1.146h-1.066c-.589 0-1.067.513-1.067 1.146v9.934c0 .633.478 1.146 1.067 1.146h1.066c.589 0 1.067-.513 1.067-1.146v-9.934zm-7.434 1.299h1.067c.589 0 1.066.525 1.066 1.174v7.433c0 .649-.477 1.174-1.066 1.174h-1.067c-.589 0-1.067-.525-1.067-1.174v-7.433c0-.649.478-1.174 1.067-1.174zm-4.332 2.649h-1.067c-.589 0-1.066.532-1.066 1.189v4.754c0 .657.477 1.189 1.066 1.189h1.067c.589 0 1.067-.532 1.067-1.189V29.82c0-.657-.478-1.189-1.067-1.189zm-5.301 2.445h-1.066c-.589 0-1.067.525-1.067 1.172v2.343c0 .647.478 1.172 1.067 1.172h1.066c.589 0 1.067-.525 1.067-1.172v-2.343c0-.647-.478-1.172-1.067-1.172z" fill="#000"/></g><path d="M40 85H27.83l5.59-5.59L32 78l-8 8 8 8 1.41-1.41L27.83 87H40v-2z" fill="#000"/><path d="M22.346 169v-14.1h7.2c1.733 0 3.066.313 4 .94.933.627 1.4 1.52 1.4 2.68 0 .907-.287 1.64-.86 2.2-.56.56-1.347.933-2.36 1.12v-.16c.746.08 1.386.267 1.92.56.546.28.966.66 1.26 1.14.306.48.46 1.067.46 1.76 0 .813-.22 1.507-.66 2.08-.427.573-1.054 1.013-1.88 1.32-.814.307-1.82.46-3.02.46h-7.46zm2.28-1.82h5.02c.293 0 .593-.013.9-.04.32-.04.626-.1.92-.18.293-.08.56-.2.8-.36.24-.173.426-.393.56-.66.133-.267.2-.593.2-.98 0-.4-.067-.727-.2-.98a1.627 1.627 0 0 0-.56-.64 2.186 2.186 0 0 0-.8-.36 5.118 5.118 0 0 0-.9-.16 6.81 6.81 0 0 0-.88-.06h-5.06v4.42zm0-6.24h4.68c1.146 0 1.986-.173 2.52-.52.533-.347.8-.88.8-1.6 0-.72-.274-1.247-.82-1.58-.534-.347-1.374-.52-2.52-.52h-4.66v4.22zm18.319 8.24c-1.2 0-2.234-.213-3.1-.64-.867-.427-1.534-1.027-2-1.8-.467-.773-.7-1.66-.7-2.66 0-1.027.233-1.92.7-2.68.466-.76 1.133-1.353 2-1.78.866-.427 1.9-.64 3.1-.64 1.2 0 2.226.213 3.08.64.866.427 1.533 1.027 2 1.8.466.76.7 1.647.7 2.66 0 1-.234 1.887-.7 2.66-.467.773-1.134 1.373-2 1.8-.854.427-1.88.64-3.08.64zm-.02-1.8c1.12 0 1.986-.3 2.6-.9.626-.6.94-1.407.94-2.42 0-1-.314-1.793-.94-2.38-.614-.6-1.474-.9-2.58-.9-1.12 0-1.987.3-2.6.9-.614.587-.92 1.38-.92 2.38 0 1.013.306 1.82.92 2.42.613.6 1.473.9 2.58.9zm12.061 1.8c-1.106 0-2.113-.107-3.02-.32-.893-.227-1.606-.527-2.14-.9l.74-1.5a6.154 6.154 0 0 0 1.96.82c.747.16 1.58.24 2.5.24 1.067 0 1.86-.107 2.38-.32.52-.227.78-.587.78-1.08 0-.453-.22-.787-.66-1-.426-.227-1.053-.34-1.88-.34h-3.26v-1.56h3.08c.72 0 1.287-.12 1.7-.36.414-.24.62-.573.62-1 0-.427-.233-.74-.7-.94-.466-.2-1.153-.3-2.06-.3-.826 0-1.6.08-2.32.24-.72.147-1.353.38-1.9.7l-.72-1.4c.547-.387 1.254-.68 2.12-.88.867-.2 1.827-.3 2.88-.3 1.56 0 2.754.233 3.58.7.84.467 1.26 1.12 1.26 1.96 0 .56-.193 1.04-.58 1.44-.373.4-.906.687-1.6.86l-.02-.06c.587.08 1.067.227 1.44.44.387.213.674.48.86.8.2.32.3.7.3 1.14 0 .92-.466 1.64-1.4 2.16-.92.507-2.233.76-3.94.76zm7.46 3.42v-13.44h2.18v2.1h-.14c.294-.72.814-1.28 1.56-1.68.76-.4 1.647-.6 2.66-.6 1.08 0 2.014.213 2.8.64.8.427 1.414 1.02 1.84 1.78.44.76.66 1.653.66 2.68 0 1.013-.22 1.907-.66 2.68a4.502 4.502 0 0 1-1.82 1.78c-.786.427-1.726.64-2.82.64-1 0-1.866-.2-2.6-.6-.733-.4-1.246-.94-1.54-1.62h.16v5.64h-2.28zm5.76-5.18c1.094 0 1.954-.307 2.58-.92.627-.613.94-1.427.94-2.44s-.313-1.82-.94-2.42c-.626-.6-1.486-.9-2.58-.9-1.106 0-1.973.3-2.6.9-.613.6-.92 1.407-.92 2.42 0 1.027.314 1.847.94 2.46.627.6 1.487.9 2.58.9zm11.766 1.76c-.827 0-1.56-.133-2.2-.4-.64-.267-1.14-.633-1.5-1.1a2.603 2.603 0 0 1-.54-1.6c0-.653.2-1.193.6-1.62.413-.427 1.073-.747 1.98-.96.92-.213 2.153-.32 3.7-.32h2.12v1.4h-2.06c-.8 0-1.467.033-2 .1-.52.053-.934.133-1.24.24-.307.107-.527.253-.66.44-.134.173-.2.387-.2.64 0 .48.213.86.64 1.14.426.267 1.006.4 1.74.4.64 0 1.22-.113 1.74-.34.52-.227.933-.54 1.24-.94a2.26 2.26 0 0 0 .46-1.38v-2.18c0-.693-.234-1.193-.7-1.5-.467-.32-1.174-.48-2.12-.48-.72 0-1.427.093-2.12.28-.68.173-1.334.44-1.96.8l-.68-1.62c.44-.253.926-.467 1.46-.64a9.616 9.616 0 0 1 1.68-.42c.6-.093 1.186-.14 1.76-.14 1.053 0 1.94.147 2.66.44.72.28 1.266.713 1.64 1.3.373.573.56 1.32.56 2.24V169h-2.04v-2.2h.12c-.2.467-.487.88-.86 1.24-.374.36-.827.64-1.36.84-.534.2-1.154.3-1.86.3zm13.953 0c-1.174 0-2.194-.207-3.06-.62-.854-.427-1.52-1.02-2-1.78-.48-.773-.72-1.667-.72-2.68 0-1.04.24-1.94.72-2.7.48-.773 1.153-1.367 2.02-1.78.866-.427 1.88-.64 3.04-.64.84 0 1.62.113 2.34.34.72.213 1.326.527 1.82.94l-.78 1.62a5.534 5.534 0 0 0-1.52-.8 5.156 5.156 0 0 0-1.68-.28c-1.134 0-2.027.3-2.68.9-.64.587-.96 1.387-.96 2.4s.32 1.813.96 2.4c.653.573 1.54.86 2.66.86a5.24 5.24 0 0 0 3.2-1.08l.78 1.64c-.494.387-1.1.693-1.82.92-.707.227-1.48.34-2.32.34zm8.139-.18v-8.02h-4.28v-1.82h10.86v1.82h-4.3V169h-2.28z" fill="#202020"/><rect x="20" y="196" width="353" height="5" rx="2.5" fill="#F0F0F0"/><path fill="#202020" d="M105 196h170v5H105z"/><rect x="95" y="191" width="15" height="15" rx="7.5" fill="#202020"/><rect x="90" y="211" width="25" height="25" rx="12.5" fill="#202020"/><path d="M96.793 227.5v-.84h1.932v-6.768h.516l-2.04 1.296-.42-.732L99 219.04h.708v7.62h1.812v.84h-4.728zm9.307.108c-.952 0-1.692-.204-2.22-.612-.528-.416-.792-.996-.792-1.74 0-.392.08-.74.24-1.044.16-.312.384-.564.672-.756.288-.192.62-.312.996-.36v.18a2.377 2.377 0 0 1-.9-.408 2.124 2.124 0 0 1-.6-.732 2.192 2.192 0 0 1-.204-.948c0-.712.252-1.264.756-1.656.512-.4 1.196-.6 2.052-.6.864 0 1.548.2 2.052.6.512.392.768.944.768 1.656 0 .344-.072.664-.216.96a1.903 1.903 0 0 1-.588.72 2.244 2.244 0 0 1-.9.396v-.168c.376.048.704.172.984.372.288.192.512.44.672.744.16.304.24.652.24 1.044 0 .744-.264 1.324-.792 1.74-.528.408-1.268.612-2.22.612zm0-.816c.68 0 1.192-.132 1.536-.396.352-.264.528-.664.528-1.2 0-.528-.176-.92-.528-1.176-.344-.264-.856-.396-1.536-.396-.672 0-1.184.132-1.536.396-.352.256-.528.648-.528 1.176 0 .536.176.936.528 1.2.352.264.864.396 1.536.396zm0-3.984c.592 0 1.052-.136 1.38-.408.328-.272.492-.648.492-1.128 0-.48-.164-.852-.492-1.116-.328-.272-.788-.408-1.38-.408-.584 0-1.04.136-1.368.408-.328.264-.492.636-.492 1.116 0 .48.164.856.492 1.128.328.272.784.408 1.368.408z" fill="#fff"/><rect x="270" y="191" width="15" height="15" rx="7.5" fill="#202020"/><rect x="265" y="211" width="25" height="25" rx="12.5" fill="#202020"/><path d="M274.829 227.5v-1.812h-3.9v-.744l4.068-5.904h.828v5.808h1.26v.84h-1.26v1.812h-.996zm0-2.652v-4.62h.288l-3.348 4.884v-.264h3.06zm7.195 2.652v-1.812h-3.9v-.744l4.068-5.904h.828v5.808h1.26v.84h-1.26v1.812h-.996zm0-2.652v-4.62h.288l-3.348 4.884v-.264h3.06z" fill="#fff"/><path d="M22.31 297v-14.1h14.22V297h-2.34v-12.14h-9.54V297h-2.34zm22.436.18c-1.2 0-2.234-.213-3.1-.64-.867-.427-1.534-1.027-2-1.8-.467-.773-.7-1.66-.7-2.66 0-1.027.233-1.92.7-2.68.466-.76 1.133-1.353 2-1.78.866-.427 1.9-.64 3.1-.64 1.2 0 2.226.213 3.08.64.866.427 1.533 1.027 2 1.8.466.76.7 1.647.7 2.66 0 1-.234 1.887-.7 2.66-.467.773-1.134 1.373-2 1.8-.854.427-1.88.64-3.08.64zm-.02-1.8c1.12 0 1.986-.3 2.6-.9.626-.6.94-1.407.94-2.42 0-1-.314-1.793-.94-2.38-.614-.6-1.474-.9-2.58-.9-1.12 0-1.987.3-2.6.9-.614.587-.92 1.38-.92 2.38 0 1.013.306 1.82.92 2.42.613.6 1.473.9 2.58.9zm7.167 1.88-.74-1.8c.56-.187 1.02-.413 1.38-.68.373-.267.66-.593.86-.98.213-.4.36-.887.44-1.46.093-.587.14-1.287.14-2.1v-3.08h8.94V297h-2.28v-8.02h-4.56v1.34c0 1.053-.08 1.973-.24 2.76-.147.787-.38 1.453-.7 2-.32.547-.747 1-1.28 1.36-.534.36-1.187.633-1.96.82z" fill="#202020"/><rect x="20" y="324" width="171.5" height="34" rx="17" fill="#202020"/><path d="M67.004 346v-11.28h1.84l5.056 7.904h-.384l5.04-7.904h1.824V346h-1.76v-8.816h.208l-4.544 7.056H73.1l-4.576-7.072h.24V346h-1.76zm16.954 2.88 1.84-3.552v1.104l-4.224-8.304h1.968l3.104 6.304h-.272l3.072-6.304h1.888l-5.472 10.752h-1.904zm6.843-2.88 2.144-3.04c.256-.363.496-.64.72-.832.224-.203.464-.347.72-.432.266-.096.581-.16.944-.192l-.288.544-3.824-3.92h2.128l2.976 3.136h1.44v-3.136h1.824v3.136h1.44l2.976-3.136h2.112l-3.808 3.92-.288-.544c.352.032.656.091.912.176.256.085.501.229.736.432.234.192.48.475.736.848l2.128 3.04h-2.048l-1.744-2.48a2.577 2.577 0 0 0-.512-.544 1.296 1.296 0 0 0-.576-.256 4.735 4.735 0 0 0-.864-.064h-1.2V346H97.76v-3.344h-1.2c-.352 0-.64.021-.864.064a1.416 1.416 0 0 0-.592.256c-.16.128-.326.309-.496.544L92.865 346H90.8zm20.597.144c-.939 0-1.755-.165-2.448-.496a3.914 3.914 0 0 1-1.6-1.424c-.384-.619-.576-1.333-.576-2.144 0-.832.192-1.552.576-2.16a3.751 3.751 0 0 1 1.616-1.424c.693-.341 1.504-.512 2.432-.512.672 0 1.296.091 1.872.272.576.171 1.061.421 1.456.752l-.624 1.296a4.44 4.44 0 0 0-1.216-.64 4.147 4.147 0 0 0-1.344-.224c-.907 0-1.622.24-2.144.72-.512.469-.768 1.109-.768 1.92 0 .811.256 1.451.768 1.92.522.459 1.232.688 2.128.688a4.193 4.193 0 0 0 2.56-.864l.624 1.312c-.395.309-.88.555-1.456.736a6.062 6.062 0 0 1-1.856.272zm4.511-.144v-7.872h1.808v3.136h1.664l2.976-3.136h2.128l-3.792 3.904-.288-.528c.362.032.666.096.912.192.256.085.496.229.72.432.224.203.464.48.72.832l2.144 3.04h-2.064l-1.728-2.448a2.45 2.45 0 0 0-.512-.56 1.296 1.296 0 0 0-.576-.256 3.855 3.855 0 0 0-.864-.08h-1.44V346h-1.808zm13.873.144c-.96 0-1.786-.171-2.48-.512-.693-.341-1.226-.821-1.6-1.44-.373-.619-.56-1.328-.56-2.128 0-.821.187-1.536.56-2.144.374-.608.907-1.083 1.6-1.424.694-.341 1.52-.512 2.48-.512s1.782.171 2.464.512c.694.341 1.227.821 1.6 1.44.374.608.56 1.317.56 2.128 0 .8-.186 1.509-.56 2.128-.373.619-.906 1.099-1.6 1.44-.682.341-1.504.512-2.464.512zm-.016-1.44c.896 0 1.59-.24 2.08-.72.502-.48.752-1.125.752-1.936 0-.8-.25-1.435-.752-1.904-.49-.48-1.178-.72-2.064-.72-.896 0-1.589.24-2.08.72-.49.469-.736 1.104-.736 1.904 0 .811.246 1.456.736 1.936.491.48 1.179.72 2.064.72zm6.418 1.296v-7.872h1.728v6.048h-.368l5.6-6.048h1.568V346h-1.728v-6.048h.368l-5.6 6.048h-1.568zm4.272-8.912c-.619 0-1.158-.085-1.616-.256a2.886 2.886 0 0 1-1.152-.768c-.299-.341-.512-.768-.64-1.28l1.056-.272c.17.501.448.869.832 1.104.384.235.89.352 1.52.352.618 0 1.12-.117 1.504-.352.394-.235.677-.603.848-1.104l1.056.272c-.139.512-.358.939-.656 1.28a2.768 2.768 0 0 1-1.136.768c-.459.171-.998.256-1.616.256z" fill="#fff"/><rect x="202" y="324.5" width="170.5" height="33" rx="16.5" stroke="#202020"/><path d="m247.474 346 2.32-3.984a5.57 5.57 0 0 1 .896-1.2c.33-.331.709-.592 1.136-.784.426-.203.928-.336 1.504-.4l-.72.544-4.416-5.456h2.16l4.064 5.12-.48-.288h1.984v-4.832h1.84v4.832h1.984l-.496.288 4.064-5.12h2.16l-4.416 5.456-.704-.544a4.675 4.675 0 0 1 1.488.4c.426.192.805.453 1.136.784.33.331.634.731.912 1.2l2.288 3.984h-2.096l-1.824-3.264c-.32-.576-.704-.992-1.152-1.248-.438-.256-1.019-.384-1.744-.384h-1.6V346h-1.84v-4.896h-1.6c-.715 0-1.296.123-1.744.368-.448.245-.838.667-1.168 1.264L249.586 346h-2.112zm23.946.144c-1.024 0-1.914-.16-2.672-.48-.746-.32-1.322-.784-1.728-1.392-.394-.608-.592-1.333-.592-2.176 0-.811.192-1.525.576-2.144a3.857 3.857 0 0 1 1.616-1.44c.704-.352 1.52-.528 2.448-.528.886 0 1.643.16 2.272.48.63.32 1.11.779 1.44 1.376.342.587.512 1.296.512 2.128v.544h-7.456v-1.136h6.24l-.336.304c-.01-.789-.245-1.387-.704-1.792-.448-.416-1.093-.624-1.936-.624-.597 0-1.114.107-1.552.32a2.235 2.235 0 0 0-1.008.896c-.234.384-.352.848-.352 1.392v.16c0 .587.118 1.083.352 1.488.246.395.614.699 1.104.912.502.203 1.131.304 1.888.304.598 0 1.158-.064 1.68-.192a3.914 3.914 0 0 0 1.36-.64l.544 1.232c-.394.32-.928.571-1.6.752a8.341 8.341 0 0 1-2.096.256zm5.518-.144v-7.872h1.808v3.104h4.992v-3.104h1.808V346h-1.808v-3.328h-4.992V346h-1.808zm15.014.144c-.938 0-1.754-.165-2.448-.496a3.92 3.92 0 0 1-1.6-1.424c-.384-.619-.576-1.333-.576-2.144 0-.832.192-1.552.576-2.16a3.757 3.757 0 0 1 1.616-1.424c.694-.341 1.504-.512 2.432-.512.672 0 1.296.091 1.872.272.576.171 1.062.421 1.456.752l-.624 1.296a4.412 4.412 0 0 0-1.216-.64 4.138 4.138 0 0 0-1.344-.224c-.906 0-1.621.24-2.144.72-.512.469-.768 1.109-.768 1.92 0 .811.256 1.451.768 1.92.523.459 1.232.688 2.128.688.47 0 .923-.075 1.36-.224a4.174 4.174 0 0 0 1.2-.64l.624 1.312c-.394.309-.88.555-1.456.736a6.058 6.058 0 0 1-1.856.272zm4.511-.144v-7.872h1.808v3.136h1.664l2.976-3.136h2.128l-3.792 3.904-.288-.528c.363.032.667.096.912.192.256.085.496.229.72.432.224.203.464.48.72.832l2.144 3.04h-2.064l-1.728-2.448a2.406 2.406 0 0 0-.512-.56 1.296 1.296 0 0 0-.576-.256 3.855 3.855 0 0 0-.864-.08h-1.44V346h-1.808zm9.794 0v-7.872h1.728v6.048h-.368l5.6-6.048h1.568V346h-1.728v-6.048h.368l-5.6 6.048h-1.568zm10.841 0v-7.872h1.728v6.048h-.368l5.6-6.048h1.568V346h-1.728v-6.048h.368l-5.6 6.048h-1.568zm4.272-8.912c-.619 0-1.158-.085-1.616-.256a2.886 2.886 0 0 1-1.152-.768c-.299-.341-.512-.768-.64-1.28l1.056-.272c.17.501.448.869.832 1.104.384.235.89.352 1.52.352.618 0 1.12-.117 1.504-.352.394-.235.677-.603.848-1.104l1.056.272c-.139.512-.358.939-.656 1.28a2.768 2.768 0 0 1-1.136.768c-.459.171-.998.256-1.616.256zM22.517 437v-14.1h14.22V437h-2.34v-12.14h-9.54V437h-2.34zm22.436.18c-1.2 0-2.234-.213-3.1-.64-.867-.427-1.534-1.027-2-1.8-.467-.773-.7-1.66-.7-2.66 0-1.027.233-1.92.7-2.68.466-.76 1.133-1.353 2-1.78.866-.427 1.9-.64 3.1-.64 1.2 0 2.226.213 3.08.64.866.427 1.533 1.027 2 1.8.466.76.7 1.647.7 2.66 0 1-.234 1.887-.7 2.66-.467.773-1.134 1.373-2 1.8-.854.427-1.88.64-3.08.64zm-.02-1.8c1.12 0 1.986-.3 2.6-.9.626-.6.94-1.407.94-2.42 0-1-.314-1.793-.94-2.38-.614-.6-1.474-.9-2.58-.9-1.12 0-1.987.3-2.6.9-.614.587-.92 1.38-.92 2.38 0 1.013.306 1.82.92 2.42.613.6 1.473.9 2.58.9zm12.061 1.8c-1.106 0-2.113-.107-3.02-.32-.893-.227-1.606-.527-2.14-.9l.74-1.5a6.154 6.154 0 0 0 1.96.82c.747.16 1.58.24 2.5.24 1.067 0 1.86-.107 2.38-.32.52-.227.78-.587.78-1.08 0-.453-.22-.787-.66-1-.426-.227-1.053-.34-1.88-.34h-3.26v-1.56h3.08c.72 0 1.287-.12 1.7-.36.413-.24.62-.573.62-1 0-.427-.233-.74-.7-.94-.467-.2-1.153-.3-2.06-.3-.826 0-1.6.08-2.32.24-.72.147-1.353.38-1.9.7l-.72-1.4c.547-.387 1.253-.68 2.12-.88.867-.2 1.827-.3 2.88-.3 1.56 0 2.753.233 3.58.7.84.467 1.26 1.12 1.26 1.96 0 .56-.193 1.04-.58 1.44-.373.4-.907.687-1.6.86l-.02-.06c.587.08 1.067.227 1.44.44.387.213.673.48.86.8.2.32.3.7.3 1.14 0 .92-.467 1.64-1.4 2.16-.92.507-2.233.76-3.94.76zm7.46-.18v-9.84h2.16v7.56h-.46l7-7.56h1.96V437h-2.16v-7.56h.46l-7 7.56h-1.96zm16.05 0v-8.02h-4.28v-1.82h10.86v1.82h-4.3V437h-2.28zm7.712 0v-9.84h2.16v7.56h-.46l7-7.56h1.96V437h-2.16v-7.56h.46l-7 7.56h-1.96zm13.551 0v-9.84h6.24c.88 0 1.62.1 2.22.3.6.2 1.046.487 1.34.86.306.373.46.84.46 1.4a1.93 1.93 0 0 1-.64 1.46c-.427.4-1.02.667-1.78.8l.04-.1c.613.053 1.126.193 1.54.42.413.213.72.487.92.82.213.333.32.713.32 1.14 0 .853-.374 1.527-1.12 2.02-.734.48-1.754.72-3.06.72h-6.48zm2.14-1.44h3.9c.773 0 1.36-.12 1.76-.36.413-.24.62-.593.62-1.06 0-.48-.207-.833-.62-1.06-.4-.24-.987-.36-1.76-.36h-3.9v2.84zm0-4.28h3.62c.733 0 1.293-.113 1.68-.34.386-.24.58-.58.58-1.02 0-.44-.194-.767-.58-.98-.374-.227-.934-.34-1.68-.34h-3.62v2.68zm10.649 5.72v-9.84h2.26v3.88h6.24v-3.88h2.26V437h-2.26v-4.16h-6.24V437h-2.26zm13.687 0v-9.84h2.26v3.28h3.66c1.52 0 2.66.273 3.42.82.774.547 1.16 1.36 1.16 2.44 0 .693-.18 1.287-.54 1.78-.346.493-.86.873-1.54 1.14-.666.253-1.493.38-2.48.38h-5.94zm2.26-1.56h3.42c.894 0 1.554-.133 1.98-.4.427-.28.64-.733.64-1.36 0-.613-.213-1.047-.64-1.3-.426-.253-1.086-.38-1.98-.38h-3.42v3.44zm10.08 1.56v-9.84h2.26V437h-2.26zm10.716.18c-1.28 0-2.394-.2-3.34-.6-.934-.4-1.654-.98-2.16-1.74-.494-.76-.74-1.667-.74-2.72 0-1.013.24-1.907.72-2.68.48-.773 1.153-1.373 2.02-1.8.88-.44 1.9-.66 3.06-.66 1.106 0 2.053.2 2.84.6.786.4 1.386.973 1.8 1.72.426.733.64 1.62.64 2.66v.68h-9.32v-1.42h7.8l-.42.38c-.014-.987-.307-1.733-.88-2.24-.56-.52-1.367-.78-2.42-.78-.747 0-1.394.133-1.94.4a2.786 2.786 0 0 0-1.26 1.12c-.294.48-.44 1.06-.44 1.74v.2c0 .733.146 1.353.44 1.86.306.493.766.873 1.38 1.14.626.253 1.413.38 2.36.38.746 0 1.446-.08 2.1-.24a4.886 4.886 0 0 0 1.7-.8l.68 1.54c-.494.4-1.16.713-2 .94-.827.213-1.7.32-2.62.32zm14.784-.18v-8.02h-4.28v-1.82h10.86v1.82h-4.3V437h-2.28zm13.192.18c-1.28 0-2.393-.2-3.34-.6-.933-.4-1.653-.98-2.16-1.74-.493-.76-.74-1.667-.74-2.72 0-1.013.24-1.907.72-2.68.48-.773 1.154-1.373 2.02-1.8.88-.44 1.9-.66 3.06-.66 1.107 0 2.054.2 2.84.6.787.4 1.387.973 1.8 1.72.427.733.64 1.62.64 2.66v.68h-9.32v-1.42h7.8l-.42.38c-.013-.987-.306-1.733-.88-2.24-.56-.52-1.366-.78-2.42-.78-.746 0-1.393.133-1.94.4a2.796 2.796 0 0 0-1.26 1.12c-.293.48-.44 1.06-.44 1.74v.2c0 .733.147 1.353.44 1.86.307.493.767.873 1.38 1.14.627.253 1.414.38 2.36.38.747 0 1.447-.08 2.1-.24a4.878 4.878 0 0 0 1.7-.8l.68 1.54c-.493.4-1.16.713-2 .94-.826.213-1.7.32-2.62.32zm6.898-.18v-9.84h8.56v1.82h-6.3V437h-2.26zm9.879 0v-9.84h2.16v7.56h-.46l7-7.56h1.96V437h-2.16v-7.56h.46l-7 7.56h-1.96z" fill="#202020"/><path d="M229 421.667a8.336 8.336 0 0 0-8.333 8.333c0 4.6 3.733 8.333 8.333 8.333s8.333-3.733 8.333-8.333-3.733-8.333-8.333-8.333zm.833 14.166h-1.666v-1.666h1.666v1.666zm1.725-6.458-.75.767c-.6.608-.975 1.108-.975 2.358h-1.666v-.417c0-.916.375-1.75.975-2.358l1.033-1.05c.308-.3.492-.717.492-1.175 0-.917-.75-1.667-1.667-1.667s-1.667.75-1.667 1.667h-1.666a3.331 3.331 0 0 1 3.333-3.333 3.331 3.331 0 0 1 3.333 3.333c0 .733-.3 1.4-.775 1.875zM368 431h-6v6h-2v-6h-6v-2h6v-6h2v6h6v2z" fill="#000"/><path d="M21.818 490v-12.69h1.728v10.278h-.252l8.478-10.278h1.53V490h-1.728v-10.296h.234L23.33 490h-1.512zm18.25.162c-.96 0-1.8-.186-2.52-.558a4.172 4.172 0 0 1-1.657-1.602c-.396-.696-.594-1.506-.594-2.43 0-.936.198-1.746.594-2.43a4.05 4.05 0 0 1 1.656-1.584c.72-.372 1.566-.558 2.538-.558.66 0 1.284.102 1.872.306.6.192 1.098.468 1.494.828l-.612 1.278a4.08 4.08 0 0 0-1.26-.702 3.934 3.934 0 0 0-1.368-.252c-.972 0-1.734.276-2.286.828-.54.54-.81 1.302-.81 2.286s.27 1.752.81 2.304c.552.552 1.314.828 2.286.828.456 0 .912-.078 1.368-.234.456-.168.87-.408 1.242-.72l.612 1.278c-.396.36-.894.642-1.494.846a5.994 5.994 0 0 1-1.872.288zm4.608-.162v-8.838h8.694V490h-1.764v-7.398h-5.148V490h-1.782zm15.282.162c-.972 0-1.812-.186-2.52-.558a4.172 4.172 0 0 1-1.656-1.602c-.384-.696-.576-1.506-.576-2.43 0-.924.192-1.728.576-2.412a4.05 4.05 0 0 1 1.656-1.584c.708-.384 1.542-.576 2.502-.576.984 0 1.824.192 2.52.576.708.372 1.254.9 1.638 1.584.384.684.576 1.488.576 2.412 0 .924-.192 1.734-.576 2.43a4.05 4.05 0 0 1-1.638 1.602c-.696.372-1.53.558-2.502.558zm-.018-1.44c.924 0 1.65-.282 2.178-.846.528-.564.792-1.332.792-2.304 0-.984-.264-1.752-.792-2.304-.528-.552-1.254-.828-2.178-.828-.912 0-1.632.276-2.16.828-.528.552-.792 1.32-.792 2.304 0 .972.264 1.74.792 2.304.528.564 1.248.846 2.16.846zm5.864 1.494-.612-1.404a3.559 3.559 0 0 0 1.134-.648c.312-.264.552-.588.72-.972.18-.396.305-.876.377-1.44.073-.576.108-1.266.108-2.07v-2.52h7.29V490H73.04v-7.398h-3.853v1.134c0 .972-.06 1.824-.18 2.556-.12.72-.312 1.338-.576 1.854a3.585 3.585 0 0 1-1.025 1.278c-.433.336-.967.6-1.603.792zM77.237 490v-8.838h1.782v3.024h3.078c1.26 0 2.208.246 2.844.738.636.492.954 1.206.954 2.142 0 .612-.15 1.14-.45 1.584-.288.432-.714.768-1.278 1.008-.564.228-1.254.342-2.07.342h-4.86zm1.782-1.26h2.862c.756 0 1.326-.132 1.71-.396.384-.264.576-.69.576-1.278 0-.576-.192-.99-.576-1.242-.384-.252-.954-.378-1.71-.378H79.02v3.294zm12.056 1.422c-.888 0-1.71-.096-2.466-.288-.744-.204-1.344-.48-1.8-.828l.576-1.206a4.754 4.754 0 0 0 1.638.738 8.516 8.516 0 0 0 2.034.234c.924 0 1.596-.108 2.016-.324.432-.228.648-.57.648-1.026 0-.444-.174-.774-.522-.99-.348-.216-.858-.324-1.53-.324h-2.592v-1.278h2.43c.576 0 1.032-.108 1.368-.324.348-.228.522-.546.522-.954 0-.408-.192-.72-.576-.936-.384-.216-.966-.324-1.746-.324-.684 0-1.326.078-1.926.234a5.205 5.205 0 0 0-1.584.666l-.558-1.17c.492-.36 1.098-.624 1.818-.792.72-.18 1.512-.27 2.376-.27 1.26 0 2.22.216 2.88.648.66.42.99 1.014.99 1.782 0 .516-.168.954-.504 1.314-.336.36-.804.606-1.404.738l-.018-.09c.492.072.906.204 1.242.396.336.18.588.42.756.72.18.3.27.648.27 1.044 0 .804-.372 1.44-1.116 1.908-.744.468-1.818.702-3.222.702zm10.265 0c-.972 0-1.812-.186-2.52-.558a4.172 4.172 0 0 1-1.656-1.602c-.384-.696-.576-1.506-.576-2.43 0-.924.192-1.728.576-2.412a4.05 4.05 0 0 1 1.656-1.584c.708-.384 1.542-.576 2.502-.576.984 0 1.824.192 2.52.576.708.372 1.254.9 1.638 1.584.384.684.576 1.488.576 2.412 0 .924-.192 1.734-.576 2.43a4.05 4.05 0 0 1-1.638 1.602c-.696.372-1.53.558-2.502.558zm-.018-1.44c.924 0 1.65-.282 2.178-.846.528-.564.792-1.332.792-2.304 0-.984-.264-1.752-.792-2.304-.528-.552-1.254-.828-2.178-.828-.912 0-1.632.276-2.16.828-.528.552-.792 1.32-.792 2.304 0 .972.264 1.74.792 2.304.528.564 1.248.846 2.16.846zm6.578 1.278v-8.838h5.022c.756 0 1.386.09 1.89.27.504.168.876.426 1.116.774.24.336.36.762.36 1.278s-.18.954-.54 1.314c-.36.36-.852.594-1.476.702l.018-.108c.516.048.942.168 1.278.36.348.192.612.444.792.756.18.3.27.648.27 1.044 0 .756-.312 1.356-.936 1.8-.612.432-1.476.648-2.592.648h-5.202zm1.692-1.17h3.294c.648 0 1.146-.114 1.494-.342.348-.228.522-.57.522-1.026 0-.456-.174-.798-.522-1.026-.348-.228-.846-.342-1.494-.342h-3.294v2.736zm0-3.906h3.114c.6 0 1.062-.114 1.386-.342.324-.228.486-.552.486-.972 0-.42-.162-.738-.486-.954-.324-.216-.786-.324-1.386-.324h-3.114v2.592zm11.895 5.238c-.684 0-1.29-.12-1.818-.36s-.942-.564-1.242-.972a2.36 2.36 0 0 1-.45-1.404c0-.624.18-1.128.54-1.512.36-.384.936-.66 1.728-.828.804-.18 1.866-.27 3.186-.27h1.494v1.134h-1.422c-.72 0-1.32.024-1.8.072-.48.048-.864.126-1.152.234-.288.108-.498.252-.63.432-.12.18-.18.402-.18.666 0 .456.186.822.558 1.098.372.264.87.396 1.494.396.528 0 1.008-.108 1.44-.324a2.777 2.777 0 0 0 1.026-.9c.264-.384.396-.816.396-1.296v-2.016c0-.672-.198-1.158-.594-1.458-.384-.312-.966-.468-1.746-.468-.588 0-1.164.078-1.728.234a6.689 6.689 0 0 0-1.656.738l-.558-1.278a5.9 5.9 0 0 1 1.206-.576 7.546 7.546 0 0 1 1.404-.378 8.55 8.55 0 0 1 1.44-.126c.84 0 1.554.126 2.142.378.588.24 1.032.618 1.332 1.134.312.516.468 1.176.468 1.98V490h-1.602v-1.98h.09c-.156.408-.39.78-.702 1.116-.312.324-.69.576-1.134.756-.444.18-.954.27-1.53.27zm9.324-.162v-7.398h-3.546v-1.44h8.892v1.44h-3.564V490h-1.782zm6.258 0v-8.838h1.782v3.024h3.078c1.26 0 2.208.246 2.844.738.636.492.954 1.206.954 2.142 0 .612-.15 1.14-.45 1.584-.288.432-.714.768-1.278 1.008-.564.228-1.254.342-2.07.342h-4.86zm1.782-1.26h2.862c.756 0 1.326-.132 1.71-.396.384-.264.576-.69.576-1.278 0-.576-.192-.99-.576-1.242-.384-.252-.954-.378-1.71-.378h-2.862v3.294zm17.101 1.422c-.96 0-1.8-.186-2.52-.558a4.172 4.172 0 0 1-1.656-1.602c-.396-.696-.594-1.506-.594-2.43 0-.936.198-1.746.594-2.43a4.05 4.05 0 0 1 1.656-1.584c.72-.372 1.566-.558 2.538-.558.66 0 1.284.102 1.872.306.6.192 1.098.468 1.494.828l-.612 1.278a4.08 4.08 0 0 0-1.26-.702 3.934 3.934 0 0 0-1.368-.252c-.972 0-1.734.276-2.286.828-.54.54-.81 1.302-.81 2.286s.27 1.752.81 2.304c.552.552 1.314.828 2.286.828.456 0 .912-.078 1.368-.234.456-.168.87-.408 1.242-.72l.612 1.278c-.396.36-.894.642-1.494.846a5.994 5.994 0 0 1-1.872.288zm4.609-.162v-8.838h5.022c.756 0 1.386.09 1.89.27.504.168.876.426 1.116.774.24.336.36.762.36 1.278s-.18.954-.54 1.314c-.36.36-.852.594-1.476.702l.018-.108c.516.048.942.168 1.278.36.348.192.612.444.792.756.18.3.27.648.27 1.044 0 .756-.312 1.356-.936 1.8-.612.432-1.476.648-2.592.648h-5.202zm1.692-1.17h3.294c.648 0 1.146-.114 1.494-.342.348-.228.522-.57.522-1.026 0-.456-.174-.798-.522-1.026-.348-.228-.846-.342-1.494-.342h-3.294v2.736zm0-3.906h3.114c.6 0 1.062-.114 1.386-.342.324-.228.486-.552.486-.972 0-.42-.162-.738-.486-.954-.324-.216-.786-.324-1.386-.324h-3.114v2.592zm12.957 5.238c-.972 0-1.812-.186-2.52-.558a4.172 4.172 0 0 1-1.656-1.602c-.384-.696-.576-1.506-.576-2.43 0-.924.192-1.728.576-2.412a4.05 4.05 0 0 1 1.656-1.584c.708-.384 1.542-.576 2.502-.576.984 0 1.824.192 2.52.576.708.372 1.254.9 1.638 1.584.384.684.576 1.488.576 2.412 0 .924-.192 1.734-.576 2.43a4.05 4.05 0 0 1-1.638 1.602c-.696.372-1.53.558-2.502.558zm-.018-1.44c.924 0 1.65-.282 2.178-.846.528-.564.792-1.332.792-2.304 0-.984-.264-1.752-.792-2.304-.528-.552-1.254-.828-2.178-.828-.912 0-1.632.276-2.16.828-.528.552-.792 1.32-.792 2.304 0 .972.264 1.74.792 2.304.528.564 1.248.846 2.16.846zm6.579 1.278v-8.838h1.674v6.948h-.324l5.796-6.948h1.566V490h-1.674v-6.966h.324L183.338 490h-1.566z" fill="#202020"/><rect x="328" y="472" width="45" height="25" rx="12.5" fill="#F0F0F0"/><circle cx="340.5" cy="484.5" r="10" fill="#202020" fill-opacity=".5"/><path d="M20.17 518.58v-2.29h.76c.26-.287.47-.64.63-1.06.167-.427.29-.927.37-1.5.087-.573.13-1.227.13-1.96v-1.82h5.1v6.34h1.1v2.29h-.79V517h-6.51v1.58h-.79zm1.66-2.29h4.46v-5.63h-3.42v1.17c0 .713-.037 1.347-.11 1.9a6.93 6.93 0 0 1-.34 1.46c-.153.413-.35.78-.59 1.1zm7.216.82-.31-.67c.254-.12.464-.263.63-.43.167-.167.297-.377.39-.63.1-.253.17-.57.21-.95.04-.387.06-.857.06-1.41v-1.38h3.83V517h-.84v-4.69h-2.2v.74c0 .633-.033 1.18-.1 1.64-.06.453-.16.837-.3 1.15-.14.313-.323.573-.55.78-.226.207-.5.37-.82.49zm6.12-.11.87-1.52c.134-.233.297-.417.49-.55.2-.133.424-.2.67-.2h.18l-.02.09c-.406 0-.756-.06-1.05-.18-.293-.12-.52-.3-.68-.54-.153-.24-.23-.533-.23-.88 0-.52.17-.913.51-1.18.34-.267.824-.4 1.45-.4h2.35V517h-.79v-2.07h-.81c-.3 0-.546.07-.74.21a1.854 1.854 0 0 0-.52.58l-.72 1.28h-.96zm2.31-2.67h1.44v-2.1h-1.44c-.42 0-.736.09-.95.27-.206.18-.31.437-.31.77 0 .34.107.603.32.79.214.18.527.27.94.27zm6.163 3.97v-1.98h.55c.18-.247.32-.52.42-.82a4.8 4.8 0 0 0 .23-1.01c.054-.373.08-.79.08-1.25v-1.6h3.73v4.68h.85v1.98h-.73V517h-4.4v1.3h-.73zm1.38-1.98h2.83v-4.02h-2.18v1.06c0 .573-.056 1.12-.17 1.64-.113.52-.273.96-.48 1.32zm8.046.77c-.553 0-1.036-.103-1.45-.31a2.265 2.265 0 0 1-.95-.94c-.22-.413-.33-.913-.33-1.5 0-.58.107-1.077.32-1.49.213-.413.514-.733.9-.96.387-.227.83-.34 1.33-.34.487 0 .897.103 1.23.31.34.2.6.497.78.89.187.387.28.86.28 1.42v.33h-4.21v-.58h3.67l-.19.17c0-.647-.133-1.127-.4-1.44-.26-.313-.64-.47-1.14-.47-.353 0-.663.08-.93.24-.26.153-.463.387-.61.7-.14.307-.21.683-.21 1.13v.08c0 .473.077.863.23 1.17.154.307.373.537.66.69.287.147.637.22 1.05.22.32 0 .627-.05.92-.15.294-.1.557-.267.79-.5l.31.56a2.23 2.23 0 0 1-.91.58c-.366.127-.746.19-1.14.19zm4.58-.09v-4.69h-1.94v-.67h4.73v.67h-1.95V517h-.84zm5.383.1c-.373 0-.706-.073-1-.22a1.702 1.702 0 0 1-.67-.59c-.16-.253-.24-.54-.24-.86 0-.353.09-.643.27-.87.187-.227.5-.393.94-.5.44-.113 1.057-.17 1.85-.17h.63v.58h-.61c-.46 0-.833.02-1.12.06a2.43 2.43 0 0 0-.68.16.645.645 0 0 0-.34.29.95.95 0 0 0-.09.43c0 .313.11.567.33.76.22.187.514.28.88.28.274 0 .524-.06.75-.18.227-.127.404-.307.53-.54.134-.233.2-.507.2-.82v-1.49c0-.44-.103-.75-.31-.93-.2-.18-.5-.27-.9-.27-.333 0-.65.047-.95.14-.3.093-.593.24-.88.44l-.3-.62c.187-.14.397-.253.63-.34.24-.093.49-.163.75-.21.26-.053.514-.08.76-.08.434 0 .797.067 1.09.2.3.127.53.33.69.61.16.28.24.65.24 1.11V517h-.8v-1.19h.11c-.06.253-.17.477-.33.67a1.72 1.72 0 0 1-.6.46 2.02 2.02 0 0 1-.83.16zm3.86.01-.31-.67c.254-.12.463-.263.63-.43.167-.167.297-.377.39-.63.1-.253.17-.57.21-.95.04-.387.06-.857.06-1.41v-1.38h3.83V517h-.84v-4.69h-2.2v.74c0 .633-.033 1.18-.1 1.64-.06.453-.16.837-.3 1.15-.14.313-.323.573-.55.78-.227.207-.5.37-.82.49zm6.55-.11v-5.36h.84v1.94h1.58c.714 0 1.244.143 1.59.43.347.287.52.707.52 1.26 0 .373-.08.69-.24.95a1.451 1.451 0 0 1-.7.58c-.313.133-.703.2-1.17.2h-2.42zm.84-.6h1.52c.46 0 .8-.09 1.02-.27.227-.187.34-.47.34-.85 0-.373-.113-.65-.34-.83-.22-.187-.56-.28-1.02-.28h-1.52v2.23zm5 .6v-5.36h.84v2.25h2.96v-2.25h.84V517h-.84v-2.43h-2.96V517h-.84zm8.577.09c-.507 0-.95-.107-1.33-.32a2.212 2.212 0 0 1-.88-.95c-.206-.413-.31-.913-.31-1.5 0-.6.104-1.103.31-1.51.207-.413.5-.727.88-.94.38-.213.823-.32 1.33-.32.52 0 .967.107 1.34.32.38.213.674.527.88.94.207.407.31.91.31 1.51 0 .587-.103 1.087-.31 1.5-.207.413-.5.73-.88.95-.373.213-.82.32-1.34.32zm0-.68c.507 0 .91-.173 1.21-.52.307-.347.46-.873.46-1.58 0-.707-.153-1.23-.46-1.57-.3-.34-.703-.51-1.21-.51s-.913.17-1.22.51c-.3.34-.45.863-.45 1.57 0 .707.15 1.233.45 1.58.307.347.713.52 1.22.52zm3.953.59v-5.36h3.71v.67h-2.87V517h-.84zm6.916.09c-.506 0-.95-.107-1.33-.32a2.212 2.212 0 0 1-.88-.95c-.206-.413-.31-.913-.31-1.5 0-.6.104-1.103.31-1.51.207-.413.5-.727.88-.94.38-.213.824-.32 1.33-.32.52 0 .967.107 1.34.32.38.213.674.527.88.94.207.407.31.91.31 1.51 0 .587-.103 1.087-.31 1.5-.206.413-.5.73-.88.95-.373.213-.82.32-1.34.32zm0-.68c.507 0 .91-.173 1.21-.52.307-.347.46-.873.46-1.58 0-.707-.153-1.23-.46-1.57-.3-.34-.703-.51-1.21-.51-.506 0-.913.17-1.22.51-.3.34-.45.863-.45 1.57 0 .707.15 1.233.45 1.58.307.347.714.52 1.22.52zm6.736.59v-5.36h4.61V517h-.84v-4.69h-2.93V517h-.84zm8.548.09c-.507 0-.95-.107-1.33-.32a2.208 2.208 0 0 1-.88-.95c-.207-.413-.31-.913-.31-1.5 0-.6.103-1.103.31-1.51.206-.413.5-.727.88-.94.38-.213.823-.32 1.33-.32.52 0 .966.107 1.34.32.38.213.673.527.88.94.206.407.31.91.31 1.51 0 .587-.104 1.087-.31 1.5-.207.413-.5.73-.88.95-.374.213-.82.32-1.34.32zm0-.68c.506 0 .91-.173 1.21-.52.306-.347.46-.873.46-1.58 0-.707-.154-1.23-.46-1.57-.3-.34-.704-.51-1.21-.51-.507 0-.914.17-1.22.51-.3.34-.45.863-.45 1.57 0 .707.15 1.233.45 1.58.306.347.713.52 1.22.52zm3.952.59v-5.36h.78v4.57h-.29l3.41-4.57h.71V517h-.78v-4.59h.3l-3.4 4.59h-.73zm8.568.09c-.507 0-.954-.107-1.34-.32a2.273 2.273 0 0 1-.89-.95c-.207-.42-.31-.93-.31-1.53 0-.613.106-1.12.32-1.52.22-.407.52-.71.9-.91.386-.207.823-.31 1.31-.31.373 0 .72.063 1.04.19.32.12.586.297.8.53l-.35.58c-.2-.207-.42-.36-.66-.46-.24-.1-.497-.15-.77-.15-.527 0-.947.17-1.26.51-.314.333-.47.85-.47 1.55 0 .687.156 1.21.47 1.57.313.353.733.53 1.26.53.246 0 .493-.047.74-.14.253-.1.483-.26.69-.48l.35.58c-.234.247-.51.43-.83.55-.32.12-.654.18-1 .18zm2.906-.09v-5.36h.84v2.25h1.02l1.75-2.25h.96l-2.02 2.59-.24-.26c.194.027.364.073.51.14.154.067.3.177.44.33.14.153.287.363.44.63l1.13 1.93h-.93l-1-1.73a2.288 2.288 0 0 0-.32-.43.775.775 0 0 0-.35-.22 1.615 1.615 0 0 0-.48-.06h-.91V517h-.84zm7.393.1c-.373 0-.706-.073-1-.22a1.707 1.707 0 0 1-.67-.59c-.16-.253-.24-.54-.24-.86 0-.353.09-.643.27-.87.187-.227.5-.393.94-.5.44-.113 1.057-.17 1.85-.17h.63v.58h-.61c-.46 0-.833.02-1.12.06a2.438 2.438 0 0 0-.68.16.646.646 0 0 0-.34.29.95.95 0 0 0-.09.43c0 .313.11.567.33.76.22.187.514.28.88.28.274 0 .524-.06.75-.18.227-.127.404-.307.53-.54.134-.233.2-.507.2-.82v-1.49c0-.44-.103-.75-.31-.93-.2-.18-.5-.27-.9-.27-.333 0-.65.047-.95.14-.3.093-.593.24-.88.44l-.3-.62c.187-.14.397-.253.63-.34.24-.093.49-.163.75-.21.26-.053.514-.08.76-.08.434 0 .797.067 1.09.2.3.127.53.33.69.61.16.28.24.65.24 1.11V517h-.8v-1.19h.11c-.06.253-.17.477-.33.67a1.72 1.72 0 0 1-.6.46c-.24.107-.516.16-.83.16zm6.953-.1v-5.36h2.54c.407 0 .747.053 1.02.16.28.1.49.253.63.46.14.207.21.467.21.78 0 .347-.117.637-.35.87-.233.227-.533.363-.9.41l.01-.13c.287.007.533.07.74.19.213.113.38.267.5.46s.18.42.18.68c0 .46-.173.823-.52 1.09-.34.26-.817.39-1.43.39h-2.63zm.8-.57h1.76c.393 0 .693-.08.9-.24.207-.16.31-.393.31-.7 0-.307-.103-.54-.31-.7-.207-.16-.507-.24-.9-.24h-1.76v1.88zm0-2.45h1.65c.373 0 .657-.077.85-.23.193-.153.29-.373.29-.66 0-.287-.097-.503-.29-.65-.193-.153-.477-.23-.85-.23h-1.65v1.77zm5.147 3.02v-5.36h.84v1.94h1.58c.714 0 1.244.143 1.59.43.347.287.52.707.52 1.26 0 .373-.08.69-.24.95a1.446 1.446 0 0 1-.7.58c-.313.133-.703.2-1.17.2h-2.42zm.84-.6h1.52c.46 0 .8-.09 1.02-.27.227-.187.34-.47.34-.85s-.113-.66-.34-.84c-.22-.18-.56-.27-1.02-.27h-1.52v2.23zm4.5.6v-5.36h.84V517h-.84zm5.373 0v-5.36h.74l1.98 3.62 1.98-3.62h.72V517h-.76v-4.44h.23l-1.96 3.58h-.43l-1.96-3.58h.22V517h-.76zm9.368.09c-.506 0-.95-.107-1.33-.32a2.214 2.214 0 0 1-.88-.95c-.206-.413-.31-.913-.31-1.5 0-.6.104-1.103.31-1.51.207-.413.5-.727.88-.94.38-.213.824-.32 1.33-.32.52 0 .967.107 1.34.32.38.213.674.527.88.94.207.407.31.91.31 1.51 0 .587-.103 1.087-.31 1.5-.206.413-.5.73-.88.95-.373.213-.82.32-1.34.32zm0-.68c.507 0 .91-.173 1.21-.52.307-.347.46-.873.46-1.58 0-.707-.153-1.23-.46-1.57-.3-.34-.703-.51-1.21-.51-.506 0-.913.17-1.22.51-.3.34-.45.863-.45 1.57 0 .707.15 1.233.45 1.58.307.347.714.52 1.22.52zm3.093.59 1.13-1.93c.16-.267.303-.477.43-.63.133-.153.276-.263.43-.33.153-.067.33-.113.53-.14l-.22.26-2.04-2.59h.95l1.76 2.25h.88v-2.25h.84v2.25h.88l1.75-2.25h.95l-2.03 2.59-.23-.26c.2.027.373.073.52.14.153.067.3.177.44.33.14.153.286.363.44.63l1.12 1.93h-.92l-1-1.73a2.332 2.332 0 0 0-.32-.43.78.78 0 0 0-.35-.22 1.624 1.624 0 0 0-.48-.06h-.77V517h-.84v-2.44h-.77c-.194 0-.357.02-.49.06a.784.784 0 0 0-.34.22c-.1.1-.204.243-.31.43l-1 1.73h-.94zm11.824.09c-.553 0-1.036-.103-1.45-.31a2.271 2.271 0 0 1-.95-.94c-.22-.413-.33-.913-.33-1.5 0-.58.107-1.077.32-1.49.214-.413.514-.733.9-.96.387-.227.83-.34 1.33-.34.487 0 .897.103 1.23.31.34.2.6.497.78.89.187.387.28.86.28 1.42v.33h-4.21v-.58h3.67l-.19.17c0-.647-.133-1.127-.4-1.44-.26-.313-.64-.47-1.14-.47-.353 0-.663.08-.93.24-.26.153-.463.387-.61.7-.14.307-.21.683-.21 1.13v.08c0 .473.077.863.23 1.17.154.307.374.537.66.69.287.147.637.22 1.05.22.32 0 .627-.05.92-.15.294-.1.557-.267.79-.5l.31.56a2.223 2.223 0 0 1-.91.58c-.366.127-.746.19-1.14.19zm4.579-.09v-4.69h-1.94v-.67h4.73v.67h-1.95V517h-.84zm6.095.09c-.553 0-1.037-.103-1.45-.31a2.265 2.265 0 0 1-.95-.94c-.22-.413-.33-.913-.33-1.5 0-.58.107-1.077.32-1.49.213-.413.513-.733.9-.96.387-.227.83-.34 1.33-.34.487 0 .897.103 1.23.31.34.2.6.497.78.89.187.387.28.86.28 1.42v.33h-4.21v-.58h3.67l-.19.17c0-.647-.133-1.127-.4-1.44-.26-.313-.64-.47-1.14-.47-.353 0-.663.08-.93.24-.26.153-.463.387-.61.7-.14.307-.21.683-.21 1.13v.08c0 .473.077.863.23 1.17.153.307.373.537.66.69.287.147.637.22 1.05.22.32 0 .627-.05.92-.15.293-.1.557-.267.79-.5l.31.56a2.23 2.23 0 0 1-.91.58c-.367.127-.747.19-1.14.19zm6.252-.09v-5.36h.78v4.57h-.29l3.41-4.57h.71V517h-.78v-4.59h.3l-3.4 4.59h-.73zm8.568.09c-.507 0-.953-.107-1.34-.32a2.273 2.273 0 0 1-.89-.95c-.207-.42-.31-.93-.31-1.53 0-.613.107-1.12.32-1.52.22-.407.52-.71.9-.91.387-.207.823-.31 1.31-.31.373 0 .72.063 1.04.19.32.12.587.297.8.53l-.35.58c-.2-.207-.42-.36-.66-.46-.24-.1-.497-.15-.77-.15-.527 0-.947.17-1.26.51-.313.333-.47.85-.47 1.55 0 .687.157 1.21.47 1.57.313.353.733.53 1.26.53.247 0 .493-.047.74-.14.253-.1.483-.26.69-.48l.35.58c-.233.247-.51.43-.83.55-.32.12-.653.18-1 .18zm2.907-.09v-5.36h4.61V517h-.84v-4.69h-2.93V517h-.84zm8.548.09c-.507 0-.95-.107-1.33-.32a2.208 2.208 0 0 1-.88-.95c-.207-.413-.31-.913-.31-1.5 0-.6.103-1.103.31-1.51.206-.413.5-.727.88-.94.38-.213.823-.32 1.33-.32.52 0 .966.107 1.34.32.38.213.673.527.88.94.206.407.31.91.31 1.51 0 .587-.104 1.087-.31 1.5-.207.413-.5.73-.88.95-.374.213-.82.32-1.34.32zm0-.68c.506 0 .91-.173 1.21-.52.306-.347.46-.873.46-1.58 0-.707-.154-1.23-.46-1.57-.3-.34-.704-.51-1.21-.51-.507 0-.914.17-1.22.51-.3.34-.45.863-.45 1.57 0 .707.15 1.233.45 1.58.306.347.713.52 1.22.52zm3.534.7-.31-.67c.254-.12.464-.263.63-.43a1.71 1.71 0 0 0 .39-.63c.1-.253.17-.57.21-.95.04-.387.06-.857.06-1.41v-1.38h3.83V517h-.84v-4.69h-2.2v.74c0 .633-.033 1.18-.1 1.64-.06.453-.16.837-.3 1.15a2.32 2.32 0 0 1-.55.78c-.226.207-.5.37-.82.49zm6.551-.11v-5.36h.84v1.94h1.58c.713 0 1.243.143 1.59.43.346.287.52.707.52 1.26 0 .373-.08.69-.24.95a1.455 1.455 0 0 1-.7.58c-.314.133-.704.2-1.17.2h-2.42zm.84-.6h1.52c.46 0 .8-.09 1.02-.27.226-.187.34-.47.34-.85 0-.373-.114-.65-.34-.83-.22-.187-.56-.28-1.02-.28h-1.52v2.23zm6.847.69c-.467 0-.897-.063-1.29-.19a2.655 2.655 0 0 1-.96-.53l.32-.59c.253.227.54.393.86.5.32.1.68.15 1.08.15.507 0 .88-.08 1.12-.24.24-.16.36-.393.36-.7 0-.3-.107-.527-.32-.68-.207-.153-.513-.23-.92-.23h-1.28v-.62h1.19c.367 0 .65-.077.85-.23a.778.778 0 0 0 .31-.65.72.72 0 0 0-.35-.65c-.233-.153-.567-.23-1-.23-.36 0-.693.05-1 .15-.307.093-.587.24-.84.44l-.31-.56c.28-.24.607-.413.98-.52.373-.107.78-.16 1.22-.16.653 0 1.163.127 1.53.38.373.247.56.607.56 1.08 0 .34-.11.627-.33.86-.22.233-.5.377-.84.43l-.01-.11c.28.013.52.077.72.19.2.113.357.267.47.46.113.193.17.42.17.68 0 .48-.197.863-.59 1.15-.387.28-.953.42-1.7.42zm5.86 0c-.506 0-.95-.107-1.33-.32a2.214 2.214 0 0 1-.88-.95c-.206-.413-.31-.913-.31-1.5 0-.6.104-1.103.31-1.51.207-.413.5-.727.88-.94.38-.213.824-.32 1.33-.32.52 0 .967.107 1.34.32.38.213.674.527.88.94.207.407.31.91.31 1.51 0 .587-.103 1.087-.31 1.5-.206.413-.5.73-.88.95-.373.213-.82.32-1.34.32zm0-.68c.507 0 .91-.173 1.21-.52.307-.347.46-.873.46-1.58 0-.707-.153-1.23-.46-1.57-.3-.34-.703-.51-1.21-.51-.506 0-.913.17-1.22.51-.3.34-.45.863-.45 1.57 0 .707.15 1.233.45 1.58.307.347.714.52 1.22.52zm3.953.59v-5.36h2.54c.406 0 .746.053 1.02.16.28.1.49.253.63.46.14.207.21.467.21.78 0 .347-.117.637-.35.87-.234.227-.534.363-.9.41l.01-.13c.286.007.533.07.74.19.213.113.38.267.5.46s.18.42.18.68c0 .46-.174.823-.52 1.09-.34.26-.817.39-1.43.39h-2.63zm.8-.57h1.76c.393 0 .693-.08.9-.24.206-.16.31-.393.31-.7 0-.307-.104-.54-.31-.7-.207-.16-.507-.24-.9-.24h-1.76v1.88zm0-2.45h1.65c.373 0 .656-.077.85-.23.193-.153.29-.373.29-.66 0-.287-.097-.503-.29-.65-.194-.153-.477-.23-.85-.23h-1.65v1.77zm6.827 3.12c-.373 0-.707-.073-1-.22a1.7 1.7 0 0 1-.67-.59c-.16-.253-.24-.54-.24-.86 0-.353.09-.643.27-.87.187-.227.5-.393.94-.5.44-.113 1.057-.17 1.85-.17h.63v.58h-.61c-.46 0-.833.02-1.12.06a2.43 2.43 0 0 0-.68.16.646.646 0 0 0-.34.29.95.95 0 0 0-.09.43c0 .313.11.567.33.76.22.187.513.28.88.28.273 0 .523-.06.75-.18.227-.127.403-.307.53-.54.133-.233.2-.507.2-.82v-1.49c0-.44-.103-.75-.31-.93-.2-.18-.5-.27-.9-.27-.333 0-.65.047-.95.14-.3.093-.593.24-.88.44l-.3-.62c.187-.14.397-.253.63-.34.24-.093.49-.163.75-.21a3.8 3.8 0 0 1 .76-.08c.433 0 .797.067 1.09.2.3.127.53.33.69.61.16.28.24.65.24 1.11V517h-.8v-1.19h.11c-.06.253-.17.477-.33.67a1.72 1.72 0 0 1-.6.46c-.24.107-.517.16-.83.16zm5.28-.1v-4.69h-1.94v-.67h4.73v.67h-1.95V517h-.84zm3.704 0v-5.36h.84v1.94h1.58c.713 0 1.243.143 1.59.43.347.287.52.707.52 1.26 0 .373-.08.69-.24.95a1.45 1.45 0 0 1-.7.58c-.313.133-.703.2-1.17.2h-2.42zm.84-.6h1.52c.46 0 .8-.09 1.02-.27.227-.187.34-.47.34-.85 0-.373-.113-.65-.34-.83-.22-.187-.56-.28-1.02-.28h-1.52v2.23zm7.783.6v-5.36h.84v2.25h1.02l1.75-2.25h.96l-2.02 2.59-.24-.26c.193.027.363.073.51.14.153.067.3.177.44.33.14.153.287.363.44.63l1.13 1.93h-.93l-1-1.73a2.288 2.288 0 0 0-.32-.43.78.78 0 0 0-.35-.22 1.624 1.624 0 0 0-.48-.06h-.91V517h-.84zm7.393.1c-.373 0-.707-.073-1-.22a1.7 1.7 0 0 1-.67-.59c-.16-.253-.24-.54-.24-.86 0-.353.09-.643.27-.87.187-.227.5-.393.94-.5.44-.113 1.057-.17 1.85-.17h.63v.58h-.61c-.46 0-.833.02-1.12.06a2.43 2.43 0 0 0-.68.16.646.646 0 0 0-.34.29.95.95 0 0 0-.09.43c0 .313.11.567.33.76.22.187.513.28.88.28.273 0 .523-.06.75-.18.227-.127.403-.307.53-.54.133-.233.2-.507.2-.82v-1.49c0-.44-.103-.75-.31-.93-.2-.18-.5-.27-.9-.27-.333 0-.65.047-.95.14-.3.093-.593.24-.88.44l-.3-.62c.187-.14.397-.253.63-.34.24-.093.49-.163.75-.21a3.8 3.8 0 0 1 .76-.08c.433 0 .797.067 1.09.2.3.127.53.33.69.61.16.28.24.65.24 1.11V517h-.8v-1.19h.11c-.06.253-.17.477-.33.67a1.72 1.72 0 0 1-.6.46c-.24.107-.517.16-.83.16zm4.17-.1v-5.36h.84v2.25h1.02l1.75-2.25h.96l-2.02 2.59-.24-.26c.193.027.363.073.51.14.153.067.3.177.44.33.14.153.286.363.44.63l1.13 1.93h-.93l-1-1.73a2.332 2.332 0 0 0-.32-.43.78.78 0 0 0-.35-.22 1.624 1.624 0 0 0-.48-.06h-.91V517h-.84zm10.716.09c-.507 0-.954-.107-1.34-.32a2.273 2.273 0 0 1-.89-.95c-.207-.42-.31-.93-.31-1.53 0-.613.106-1.12.32-1.52.22-.407.52-.71.9-.91.386-.207.823-.31 1.31-.31.373 0 .72.063 1.04.19.32.12.586.297.8.53l-.35.58c-.2-.207-.42-.36-.66-.46-.24-.1-.497-.15-.77-.15-.527 0-.947.17-1.26.51-.314.333-.47.85-.47 1.55 0 .687.156 1.21.47 1.57.313.353.733.53 1.26.53.246 0 .493-.047.74-.14.253-.1.483-.26.69-.48l.35.58c-.234.247-.51.43-.83.55-.32.12-.654.18-1 .18zm2.907-.09v-5.36h2.54c.406 0 .746.053 1.02.16.28.1.49.253.63.46.14.207.21.467.21.78 0 .347-.117.637-.35.87-.234.227-.534.363-.9.41l.01-.13c.286.007.533.07.74.19.213.113.38.267.5.46s.18.42.18.68c0 .46-.174.823-.52 1.09-.34.26-.817.39-1.43.39h-2.63zm.8-.57h1.76c.393 0 .693-.08.9-.24.206-.16.31-.393.31-.7 0-.307-.104-.54-.31-.7-.207-.16-.507-.24-.9-.24h-1.76v1.88zm0-2.45h1.65c.373 0 .656-.077.85-.23.193-.153.29-.373.29-.66 0-.287-.097-.503-.29-.65-.194-.153-.477-.23-.85-.23h-1.65v1.77zm7.347 3.11c-.507 0-.95-.107-1.33-.32a2.214 2.214 0 0 1-.88-.95c-.207-.413-.31-.913-.31-1.5 0-.6.103-1.103.31-1.51.207-.413.5-.727.88-.94.38-.213.823-.32 1.33-.32.52 0 .967.107 1.34.32.38.213.673.527.88.94.207.407.31.91.31 1.51 0 .587-.103 1.087-.31 1.5-.207.413-.5.73-.88.95-.373.213-.82.32-1.34.32zm0-.68c.507 0 .91-.173 1.21-.52.307-.347.46-.873.46-1.58 0-.707-.153-1.23-.46-1.57-.3-.34-.703-.51-1.21-.51s-.913.17-1.22.51c-.3.34-.45.863-.45 1.57 0 .707.15 1.233.45 1.58.307.347.713.52 1.22.52zm3.952.59v-5.36h.78v4.57h-.29l3.41-4.57h.71V517h-.78v-4.59h.3l-3.4 4.59h-.73zm10.241 0v-4.69h-1.94v-.67h4.73v.67h-1.95V517h-.84zm6.095.09c-.553 0-1.037-.103-1.45-.31a2.265 2.265 0 0 1-.95-.94c-.22-.413-.33-.913-.33-1.5 0-.58.107-1.077.32-1.49.213-.413.513-.733.9-.96.387-.227.83-.34 1.33-.34.487 0 .897.103 1.23.31.34.2.6.497.78.89.187.387.28.86.28 1.42v.33h-4.21v-.58h3.67l-.19.17c0-.647-.133-1.127-.4-1.44-.26-.313-.64-.47-1.14-.47-.353 0-.663.08-.93.24-.26.153-.463.387-.61.7-.14.307-.21.683-.21 1.13v.08c0 .473.077.863.23 1.17.153.307.373.537.66.69.287.147.637.22 1.05.22.32 0 .627-.05.92-.15.293-.1.557-.267.79-.5l.31.56a2.23 2.23 0 0 1-.91.58c-.367.127-.747.19-1.14.19zm3.469-.09v-5.36h3.71v.67h-2.87V517h-.84zm4.717 0v-5.36h.78v4.57h-.29l3.41-4.57h.71V517h-.78v-4.59h.3l-3.4 4.59h-.73zm6.607 1.16-.39-.31c.12-.12.21-.233.27-.34.067-.107.114-.217.14-.33.034-.113.05-.23.05-.35l.19.17h-.69v-1.05h1.06v.74c0 .193-.02.373-.06.54-.04.167-.106.323-.2.47a2.447 2.447 0 0 1-.37.46zM21.98 531v-4.69h-1.94v-.67h4.73v.67h-1.95V531h-.84zm5.384.1c-.373 0-.706-.073-1-.22a1.702 1.702 0 0 1-.67-.59c-.16-.253-.24-.54-.24-.86 0-.353.09-.643.27-.87.187-.227.5-.393.94-.5.44-.113 1.057-.17 1.85-.17h.63v.58h-.61c-.46 0-.833.02-1.12.06a2.428 2.428 0 0 0-.68.16.645.645 0 0 0-.34.29.95.95 0 0 0-.09.43c0 .313.11.567.33.76.22.187.514.28.88.28.274 0 .524-.06.75-.18.227-.127.404-.307.53-.54.134-.233.2-.507.2-.82v-1.49c0-.44-.103-.75-.31-.93-.2-.18-.5-.27-.9-.27-.333 0-.65.047-.95.14-.3.093-.593.24-.88.44l-.3-.62c.187-.14.397-.253.63-.34.24-.093.49-.163.75-.21.26-.053.514-.08.76-.08.434 0 .797.067 1.09.2.3.127.53.33.69.61.16.28.24.65.24 1.11V531h-.8v-1.19h.11c-.06.253-.17.477-.33.67a1.72 1.72 0 0 1-.6.46 2.02 2.02 0 0 1-.83.16zm4.17-.1v-5.36h.84v2.25h1.02l1.75-2.25h.96l-2.02 2.59-.24-.26c.193.027.363.073.51.14.153.067.3.177.44.33a3.6 3.6 0 0 1 .44.63l1.13 1.93h-.93l-1-1.73a2.305 2.305 0 0 0-.32-.43.779.779 0 0 0-.35-.22 1.621 1.621 0 0 0-.48-.06h-.91V531h-.84zm8.496 0v-5.36h.78v4.57h-.29l3.41-4.57h.71V531h-.78v-4.59h.3l-3.4 4.59h-.73zm10.871.09c-.467 0-.897-.063-1.29-.19a2.66 2.66 0 0 1-.96-.53l.32-.59c.253.227.54.393.86.5.32.1.68.15 1.08.15.507 0 .88-.08 1.12-.24.24-.16.36-.393.36-.7 0-.3-.107-.527-.32-.68-.207-.153-.513-.23-.92-.23h-1.28v-.62h1.19c.367 0 .65-.077.85-.23a.779.779 0 0 0 .31-.65.72.72 0 0 0-.35-.65c-.233-.153-.567-.23-1-.23-.36 0-.693.05-1 .15a2.53 2.53 0 0 0-.84.44l-.31-.56c.28-.24.607-.413.98-.52.373-.107.78-.16 1.22-.16.653 0 1.163.127 1.53.38.373.247.56.607.56 1.08 0 .34-.11.627-.33.86-.22.233-.5.377-.84.43l-.01-.11c.28.013.52.077.72.19.2.113.357.267.47.46.113.193.17.42.17.68 0 .48-.197.863-.59 1.15-.387.28-.953.42-1.7.42zm5.34.01c-.373 0-.706-.073-1-.22a1.702 1.702 0 0 1-.67-.59c-.16-.253-.24-.54-.24-.86 0-.353.09-.643.27-.87.187-.227.5-.393.94-.5.44-.113 1.057-.17 1.85-.17h.63v.58h-.61c-.46 0-.833.02-1.12.06a2.43 2.43 0 0 0-.68.16.645.645 0 0 0-.34.29.95.95 0 0 0-.09.43c0 .313.11.567.33.76.22.187.514.28.88.28.274 0 .524-.06.75-.18.227-.127.404-.307.53-.54.134-.233.2-.507.2-.82v-1.49c0-.44-.103-.75-.31-.93-.2-.18-.5-.27-.9-.27-.333 0-.65.047-.95.14-.3.093-.593.24-.88.44l-.3-.62c.187-.14.397-.253.63-.34.24-.093.49-.163.75-.21.26-.053.514-.08.76-.08.434 0 .797.067 1.09.2.3.127.53.33.69.61.16.28.24.65.24 1.11V531h-.8v-1.19h.11c-.06.253-.17.477-.33.67a1.72 1.72 0 0 1-.6.46 2.02 2.02 0 0 1-.83.16zm3.58 1.2v-1.98h.55c.18-.247.32-.52.42-.82.107-.3.183-.637.23-1.01.053-.373.08-.79.08-1.25v-1.6h3.73v4.68h.85v1.98h-.73V531h-4.4v1.3h-.73zm1.38-1.98h2.83v-4.02h-2.18v1.06c0 .573-.057 1.12-.17 1.64-.113.52-.273.96-.48 1.32zm7.316.78c-.373 0-.707-.073-1-.22a1.702 1.702 0 0 1-.67-.59c-.16-.253-.24-.54-.24-.86 0-.353.09-.643.27-.87.187-.227.5-.393.94-.5.44-.113 1.057-.17 1.85-.17h.63v.58h-.61c-.46 0-.834.02-1.12.06a2.43 2.43 0 0 0-.68.16.645.645 0 0 0-.34.29.95.95 0 0 0-.09.43c0 .313.11.567.33.76.22.187.513.28.88.28.273 0 .523-.06.75-.18.227-.127.403-.307.53-.54.133-.233.2-.507.2-.82v-1.49c0-.44-.104-.75-.31-.93-.2-.18-.5-.27-.9-.27-.334 0-.65.047-.95.14-.3.093-.593.24-.88.44l-.3-.62c.186-.14.397-.253.63-.34.24-.093.49-.163.75-.21.26-.053.513-.08.76-.08.433 0 .796.067 1.09.2.3.127.53.33.69.61.16.28.24.65.24 1.11V531h-.8v-1.19h.11c-.06.253-.17.477-.33.67a1.72 1.72 0 0 1-.6.46 2.02 2.02 0 0 1-.83.16zm5.28-.1v-4.69h-1.94v-.67h4.73v.67h-1.95V531h-.84zm3.704 0v-5.36h.84v1.94h1.58c.713 0 1.243.143 1.59.43.347.287.52.707.52 1.26 0 .373-.08.69-.24.95a1.451 1.451 0 0 1-.7.58c-.313.133-.703.2-1.17.2H77.5zm.84-.6h1.52c.46 0 .8-.09 1.02-.27.227-.187.34-.47.34-.85 0-.373-.114-.65-.34-.83-.22-.187-.56-.28-1.02-.28h-1.52v2.23zm7.783.6v-5.36h.78v4.57h-.29l3.41-4.57h.71V531h-.78v-4.59h.3l-3.4 4.59h-.73zm5.678 0 2.36-2.99v.43l-2.22-2.8h1.01l1.7 2.2h-.28l1.71-2.2h.99l-2.21 2.78v-.37l2.34 2.95h-1.03l-1.82-2.35h.28l-1.83 2.35h-1zm10.984.09c-.467 0-.897-.063-1.29-.19a2.655 2.655 0 0 1-.96-.53l.32-.59c.253.227.54.393.86.5.32.1.68.15 1.08.15.506 0 .88-.08 1.12-.24.24-.16.36-.393.36-.7 0-.3-.107-.527-.32-.68-.207-.153-.514-.23-.92-.23h-1.28v-.62h1.19c.366 0 .65-.077.85-.23a.78.78 0 0 0 .31-.65.72.72 0 0 0-.35-.65c-.234-.153-.567-.23-1-.23-.36 0-.694.05-1 .15-.307.093-.587.24-.84.44l-.31-.56c.28-.24.606-.413.98-.52.373-.107.78-.16 1.22-.16.653 0 1.163.127 1.53.38.373.247.56.607.56 1.08 0 .34-.11.627-.33.86-.22.233-.5.377-.84.43l-.01-.11c.28.013.52.077.72.19.2.113.356.267.47.46.113.193.17.42.17.68 0 .48-.197.863-.59 1.15-.387.28-.954.42-1.7.42zm3.178 1.21v-1.98h.55c.18-.247.32-.52.42-.82.106-.3.183-.637.23-1.01.053-.373.08-.79.08-1.25v-1.6h3.73v4.68h.85v1.98h-.73V531h-4.4v1.3h-.73zm1.38-1.98h2.83v-4.02h-2.18v1.06c0 .573-.057 1.12-.17 1.64-.114.52-.274.96-.48 1.32zm8.045.77c-.553 0-1.036-.103-1.45-.31a2.271 2.271 0 0 1-.95-.94c-.22-.413-.33-.913-.33-1.5 0-.58.107-1.077.32-1.49.214-.413.514-.733.9-.96.387-.227.83-.34 1.33-.34.487 0 .897.103 1.23.31.34.2.6.497.78.89.187.387.28.86.28 1.42v.33h-4.21v-.58h3.67l-.19.17c0-.647-.133-1.127-.4-1.44-.26-.313-.64-.47-1.14-.47-.353 0-.663.08-.93.24-.26.153-.463.387-.61.7-.14.307-.21.683-.21 1.13v.08c0 .473.077.863.23 1.17.154.307.374.537.66.69.287.147.637.22 1.05.22.32 0 .627-.05.92-.15.294-.1.557-.267.79-.5l.31.56a2.223 2.223 0 0 1-.91.58c-.366.127-.746.19-1.14.19zm5.689 0c-.506 0-.953-.107-1.34-.32a2.279 2.279 0 0 1-.89-.95c-.206-.42-.31-.93-.31-1.53 0-.613.107-1.12.32-1.52.22-.407.52-.71.9-.91.387-.207.824-.31 1.31-.31.374 0 .72.063 1.04.19.32.12.587.297.8.53l-.35.58c-.2-.207-.42-.36-.66-.46a1.98 1.98 0 0 0-.77-.15c-.526 0-.946.17-1.26.51-.313.333-.47.85-.47 1.55 0 .687.157 1.21.47 1.57.314.353.734.53 1.26.53.247 0 .494-.047.74-.14.254-.1.484-.26.69-.48l.35.58c-.233.247-.51.43-.83.55-.32.12-.653.18-1 .18zm2.907-.09v-5.36h.84v1.94h1.58c.714 0 1.244.143 1.59.43.347.287.52.707.52 1.26 0 .373-.08.69-.24.95a1.446 1.446 0 0 1-.7.58c-.313.133-.703.2-1.17.2h-2.42zm.84-.6h1.52c.46 0 .8-.09 1.02-.27.227-.187.34-.47.34-.85 0-.373-.113-.65-.34-.83-.22-.187-.56-.28-1.02-.28h-1.52v2.23zM22.59 614v-14.1h2.34v5.96h9.62v-5.96h2.34V614h-2.34v-6.18h-9.62V614h-2.34zm22.953.18c-1.28 0-2.393-.2-3.34-.6-.933-.4-1.653-.98-2.16-1.74-.493-.76-.74-1.667-.74-2.72 0-1.013.24-1.907.72-2.68.48-.773 1.153-1.373 2.02-1.8.88-.44 1.9-.66 3.06-.66 1.107 0 2.053.2 2.84.6.787.4 1.387.973 1.8 1.72.427.733.64 1.62.64 2.66v.68h-9.32v-1.42h7.8l-.42.38c-.013-.987-.307-1.733-.88-2.24-.56-.52-1.367-.78-2.42-.78-.747 0-1.393.133-1.94.4a2.79 2.79 0 0 0-1.26 1.12c-.293.48-.44 1.06-.44 1.74v.2c0 .733.147 1.353.44 1.86.307.493.767.873 1.38 1.14.627.253 1.413.38 2.36.38a8.81 8.81 0 0 0 2.1-.24 4.883 4.883 0 0 0 1.7-.8l.68 1.54c-.493.4-1.16.713-2 .94-.827.213-1.7.32-2.62.32zm6.898-.18v-9.84H61v1.82h-6.3V614h-2.26zm13.618.18c-.826 0-1.56-.133-2.2-.4-.64-.267-1.14-.633-1.5-1.1a2.603 2.603 0 0 1-.54-1.6c0-.653.2-1.193.6-1.62.414-.427 1.074-.747 1.98-.96.92-.213 2.154-.32 3.7-.32h2.12v1.4h-2.06c-.8 0-1.466.033-2 .1-.52.053-.933.133-1.24.24-.306.107-.526.253-.66.44-.133.173-.2.387-.2.64 0 .48.214.86.64 1.14.427.267 1.007.4 1.74.4.64 0 1.22-.113 1.74-.34.52-.227.934-.54 1.24-.94a2.26 2.26 0 0 0 .46-1.38v-2.18c0-.693-.233-1.193-.7-1.5-.466-.32-1.173-.48-2.12-.48-.72 0-1.426.093-2.12.28-.68.173-1.333.44-1.96.8l-.68-1.62c.44-.253.927-.467 1.46-.64a9.616 9.616 0 0 1 1.68-.42c.6-.093 1.187-.14 1.76-.14 1.054 0 1.94.147 2.66.44.72.28 1.267.713 1.64 1.3.374.573.56 1.32.56 2.24V614h-2.04v-2.2h.12c-.2.467-.486.88-.86 1.24-.373.36-.826.64-1.36.84-.533.2-1.153.3-1.86.3zm11.374-.18v-8.02h-4.28v-1.82h10.86v1.82h-4.3V614h-2.28zm7.71 0v-9.84h2.16v7.56h-.46l7-7.56h1.96V614h-2.16v-7.56h.46l-7 7.56h-1.96zm13.551 0v-9.84h6.24c.88 0 1.62.1 2.22.3.6.2 1.047.487 1.34.86.307.373.46.84.46 1.4 0 .573-.213 1.06-.64 1.46-.426.4-1.02.667-1.78.8l.04-.1c.614.053 1.127.193 1.54.42.414.213.72.487.92.82.214.333.32.713.32 1.14 0 .853-.373 1.527-1.12 2.02-.733.48-1.753.72-3.06.72h-6.48zm2.14-1.44h3.9c.774 0 1.36-.12 1.76-.36.414-.24.62-.593.62-1.06 0-.48-.206-.833-.62-1.06-.4-.24-.986-.36-1.76-.36h-3.9v2.84zm0-4.28h3.62c.734 0 1.294-.113 1.68-.34.387-.24.58-.58.58-1.02 0-.44-.193-.767-.58-.98-.373-.227-.933-.34-1.68-.34h-3.62v2.68zm10.649 5.72v-9.84h2.26v3.88h6.24v-3.88h2.26V614h-2.26v-4.16h-6.24V614h-2.26zm13.688 0v-9.84h2.26v3.28h3.66c1.52 0 2.66.273 3.42.82.773.547 1.16 1.36 1.16 2.44 0 .693-.18 1.287-.54 1.78-.347.493-.86.873-1.54 1.14-.667.253-1.493.38-2.48.38h-5.94zm2.26-1.56h3.42c.893 0 1.553-.133 1.98-.4.427-.28.64-.733.64-1.36 0-.613-.213-1.047-.64-1.3-.427-.253-1.087-.38-1.98-.38h-3.42v3.44zm10.08 1.56v-9.84h2.26V614h-2.26zm10.716.18c-1.28 0-2.394-.2-3.34-.6-.934-.4-1.654-.98-2.16-1.74-.494-.76-.74-1.667-.74-2.72 0-1.013.24-1.907.72-2.68.48-.773 1.153-1.373 2.02-1.8.88-.44 1.9-.66 3.06-.66 1.106 0 2.053.2 2.84.6.786.4 1.386.973 1.8 1.72.426.733.64 1.62.64 2.66v.68h-9.32v-1.42h7.8l-.42.38c-.014-.987-.307-1.733-.88-2.24-.56-.52-1.367-.78-2.42-.78-.747 0-1.394.133-1.94.4a2.786 2.786 0 0 0-1.26 1.12c-.294.48-.44 1.06-.44 1.74v.2c0 .733.146 1.353.44 1.86.306.493.766.873 1.38 1.14.626.253 1.413.38 2.36.38.746 0 1.446-.08 2.1-.24a4.886 4.886 0 0 0 1.7-.8l.68 1.54c-.494.4-1.16.713-2 .94-.827.213-1.7.32-2.62.32zm14.784-.18v-8.02h-4.28v-1.82h10.86v1.82h-4.3V614h-2.28zm13.192.18c-1.28 0-2.393-.2-3.34-.6-.933-.4-1.653-.98-2.16-1.74-.493-.76-.74-1.667-.74-2.72 0-1.013.24-1.907.72-2.68.48-.773 1.153-1.373 2.02-1.8.88-.44 1.9-.66 3.06-.66 1.107 0 2.053.2 2.84.6.787.4 1.387.973 1.8 1.72.427.733.64 1.62.64 2.66v.68h-9.32v-1.42h7.8l-.42.38c-.013-.987-.307-1.733-.88-2.24-.56-.52-1.367-.78-2.42-.78-.747 0-1.393.133-1.94.4a2.786 2.786 0 0 0-1.26 1.12c-.293.48-.44 1.06-.44 1.74v.2c0 .733.147 1.353.44 1.86.307.493.767.873 1.38 1.14.627.253 1.413.38 2.36.38.747 0 1.447-.08 2.1-.24a4.886 4.886 0 0 0 1.7-.8l.68 1.54c-.493.4-1.16.713-2 .94-.827.213-1.7.32-2.62.32zm6.898-.18v-9.84h8.56v1.82h-6.3V614h-2.26zm9.879 0v-9.84h2.16v7.56h-.46l7-7.56h1.96V614h-2.16v-7.56h.46l-7 7.56h-1.96z" fill="#202020"/><path d="M226 598.667a8.336 8.336 0 0 0-8.333 8.333c0 4.6 3.733 8.333 8.333 8.333s8.333-3.733 8.333-8.333-3.733-8.333-8.333-8.333zm.833 14.166h-1.666v-1.666h1.666v1.666zm1.725-6.458-.75.767c-.6.608-.975 1.108-.975 2.358h-1.666v-.417c0-.916.375-1.75.975-2.358l1.033-1.05c.308-.3.492-.717.492-1.175 0-.917-.75-1.667-1.667-1.667s-1.667.75-1.667 1.667h-1.666a3.331 3.331 0 0 1 3.333-3.333 3.331 3.331 0 0 1 3.333 3.333c0 .733-.3 1.4-.775 1.875zM368 608h-6v6h-2v-6h-6v-2h6v-6h2v6h6v2z" fill="#000"/><path d="M22.611 700v-14.1h7.18c1.187 0 2.187.167 3 .5.827.333 1.447.82 1.86 1.46.427.64.64 1.44.64 2.4 0 .933-.213 1.727-.64 2.38-.413.653-1.033 1.153-1.86 1.5-.813.333-1.813.5-3 .5h-4.84V700h-2.34zm2.34-7.22h4.56c1.174 0 2.04-.2 2.6-.6.574-.413.86-1.053.86-1.92 0-.88-.28-1.513-.84-1.9-.56-.4-1.433-.6-2.62-.6h-4.56v5.02zm15.688 7.4c-.826 0-1.56-.133-2.2-.4-.64-.267-1.14-.633-1.5-1.1a2.603 2.603 0 0 1-.54-1.6c0-.653.2-1.193.6-1.62.414-.427 1.074-.747 1.98-.96.92-.213 2.154-.32 3.7-.32h2.12v1.4h-2.06c-.8 0-1.466.033-2 .1-.52.053-.933.133-1.24.24-.306.107-.526.253-.66.44-.133.173-.2.387-.2.64 0 .48.214.86.64 1.14.427.267 1.007.4 1.74.4.64 0 1.22-.113 1.74-.34.52-.227.934-.54 1.24-.94a2.26 2.26 0 0 0 .46-1.38v-2.18c0-.693-.233-1.193-.7-1.5-.466-.32-1.173-.48-2.12-.48-.72 0-1.426.093-2.12.28-.68.173-1.333.44-1.96.8l-.68-1.62c.44-.253.927-.467 1.46-.64a9.616 9.616 0 0 1 1.68-.42c.6-.093 1.187-.14 1.76-.14 1.054 0 1.94.147 2.66.44.72.28 1.267.713 1.64 1.3.374.573.56 1.32.56 2.24V700H44.6v-2.2h.12c-.2.467-.486.88-.86 1.24-.373.36-.826.64-1.36.84-.533.2-1.153.3-1.86.3zm13.954 0c-1.174 0-2.194-.207-3.06-.62-.854-.427-1.52-1.02-2-1.78-.48-.773-.72-1.667-.72-2.68 0-1.04.24-1.94.72-2.7.48-.773 1.153-1.367 2.02-1.78.866-.427 1.88-.64 3.04-.64.84 0 1.62.113 2.34.34.72.213 1.326.527 1.82.94l-.78 1.62a5.531 5.531 0 0 0-1.52-.8 5.155 5.155 0 0 0-1.68-.28c-1.134 0-2.027.3-2.68.9-.64.587-.96 1.387-.96 2.4s.32 1.813.96 2.4c.653.573 1.54.86 2.66.86.586 0 1.153-.093 1.7-.28a5.238 5.238 0 0 0 1.5-.8l.78 1.64c-.494.387-1.1.693-1.82.92a7.55 7.55 0 0 1-2.32.34zm10.718 0c-1.173 0-2.193-.207-3.06-.62-.853-.427-1.52-1.02-2-1.78-.48-.773-.72-1.667-.72-2.68 0-1.04.24-1.94.72-2.7.48-.773 1.154-1.367 2.02-1.78.867-.427 1.88-.64 3.04-.64.84 0 1.62.113 2.34.34.72.213 1.327.527 1.82.94l-.78 1.62a5.532 5.532 0 0 0-1.52-.8 5.156 5.156 0 0 0-1.68-.28c-1.133 0-2.026.3-2.68.9-.64.587-.96 1.387-.96 2.4s.32 1.813.96 2.4c.654.573 1.54.86 2.66.86.587 0 1.154-.093 1.7-.28a5.238 5.238 0 0 0 1.5-.8l.78 1.64c-.493.387-1.1.693-1.82.92-.706.227-1.48.34-2.32.34zm8.14-.18v-8.02h-4.28v-1.82h10.86v1.82h-4.3V700h-2.28zm12.752.18c-1.2 0-2.234-.213-3.1-.64-.867-.427-1.534-1.027-2-1.8-.467-.773-.7-1.66-.7-2.66 0-1.027.233-1.92.7-2.68.466-.76 1.133-1.353 2-1.78.866-.427 1.9-.64 3.1-.64 1.2 0 2.226.213 3.08.64.866.427 1.533 1.027 2 1.8.466.76.7 1.647.7 2.66 0 1-.234 1.887-.7 2.66-.467.773-1.134 1.373-2 1.8-.854.427-1.88.64-3.08.64zm-.02-1.8c1.12 0 1.986-.3 2.6-.9.626-.6.94-1.407.94-2.42 0-1-.314-1.793-.94-2.38-.614-.6-1.474-.9-2.58-.9-1.12 0-1.987.3-2.6.9-.614.587-.92 1.38-.92 2.38 0 1.013.306 1.82.92 2.42.613.6 1.473.9 2.58.9zm7.041 1.62 1.92-2.72c.293-.413.64-.733 1.04-.96.413-.227.9-.34 1.46-.34h.26l-.1.12c-.84-.013-1.567-.127-2.18-.34-.6-.227-1.066-.553-1.4-.98-.32-.44-.48-.98-.48-1.62 0-.973.374-1.713 1.12-2.22.76-.52 1.86-.78 3.3-.78h5.66V700h-2.1v-3.5h-1.74c-.6 0-1.106.1-1.52.3-.4.187-.753.487-1.06.9l-1.62 2.3h-2.56zm5.34-5.02h3.16v-3.26h-3.16c-.866 0-1.526.14-1.98.42-.44.267-.66.66-.66 1.18 0 .56.227.98.68 1.26.454.267 1.107.4 1.96.4zm8.156 5.02v-9.84h2.26v3.88h6.24v-3.88h2.26V700h-2.26v-4.16h-6.24V700h-2.26zm13.687 0v-9.84h2.16v7.56h-.46l7-7.56h1.96V700h-2.16v-7.56h.46l-7 7.56h-1.96zm19.091.18c-1.28 0-2.393-.2-3.34-.6-.933-.4-1.653-.98-2.16-1.74-.493-.76-.74-1.667-.74-2.72 0-1.013.24-1.907.72-2.68.48-.773 1.153-1.373 2.02-1.8.88-.44 1.9-.66 3.06-.66 1.107 0 2.053.2 2.84.6.787.4 1.387.973 1.8 1.72.427.733.64 1.62.64 2.66v.68h-9.32v-1.42h7.8l-.42.38c-.013-.987-.307-1.733-.88-2.24-.56-.52-1.367-.78-2.42-.78-.747 0-1.393.133-1.94.4a2.786 2.786 0 0 0-1.26 1.12c-.293.48-.44 1.06-.44 1.74v.2c0 .733.147 1.353.44 1.86.307.493.767.873 1.38 1.14.627.253 1.413.38 2.36.38.747 0 1.447-.08 2.1-.24a4.886 4.886 0 0 0 1.7-.8l.68 1.54c-.493.4-1.16.713-2 .94-.827.213-1.7.32-2.62.32zm15.844 3.7c-1.066-1.44-1.866-2.907-2.4-4.4a14.429 14.429 0 0 1-.78-4.74c0-1.667.26-3.247.78-4.74.534-1.493 1.334-2.96 2.4-4.4l1.54.68c-.546.96-1 1.907-1.36 2.84a17.17 17.17 0 0 0-.78 2.78c-.16.92-.24 1.867-.24 2.84 0 .973.08 1.92.24 2.84.174.92.434 1.84.78 2.76.36.933.814 1.887 1.36 2.86l-1.54.68zm3.25-3.88v-14.1h2.26v8.54h.06l5.08-4.28h2.92l-6.36 5.18.02-.84 6.86 5.5h-3.04l-5.48-4.44h-.06V700h-2.26zm11.521 0v-9.84h2.16v2.18h-.1c.253-.467.56-.873.92-1.22.373-.36.813-.64 1.32-.84.507-.2 1.073-.3 1.7-.3.933 0 1.713.187 2.34.56.64.373 1.073.96 1.3 1.76h-.08a4.34 4.34 0 0 1 1.54-1.68c.68-.427 1.52-.64 2.52-.64.84 0 1.56.147 2.16.44.6.28 1.06.747 1.38 1.4.32.653.48 1.513.48 2.58v5.6h-2.26v-5.5c0-.973-.193-1.66-.58-2.06-.387-.413-.967-.62-1.74-.62-.64 0-1.193.133-1.66.4a2.76 2.76 0 0 0-1.08 1.1c-.253.453-.38.967-.38 1.54V700h-2.24v-5.5c0-.96-.207-1.647-.62-2.06-.4-.413-.967-.62-1.7-.62-.64 0-1.193.14-1.66.42-.467.28-.827.647-1.08 1.1-.253.453-.38.953-.38 1.5V700h-2.26zm20.886 3.88-1.52-.68c.547-.973.993-1.927 1.34-2.86.36-.92.62-1.84.78-2.76.173-.92.26-1.867.26-2.84 0-.973-.087-1.92-.26-2.84a14.73 14.73 0 0 0-.78-2.78 19.428 19.428 0 0 0-1.34-2.84l1.52-.68c1.067 1.427 1.86 2.893 2.38 4.4.533 1.507.8 3.087.8 4.74a14.11 14.11 0 0 1-.8 4.74c-.52 1.493-1.313 2.96-2.38 4.4z" fill="#202020"/><rect x="20" y="727" width="353" height="5" rx="2.5" fill="#F0F0F0"/><path d="M20 729.5a2.5 2.5 0 0 1 2.5-2.5H275v5H22.5a2.5 2.5 0 0 1-2.5-2.5z" fill="#202020"/><rect x="270" y="722" width="15" height="15" rx="7.5" fill="#202020"/><rect x="265" y="742" width="25" height="25" rx="12.5" fill="#202020"/><path d="m271.649 758.5 4.152-8.04v.432h-4.692v-.852h5.592v.744l-3.96 7.716h-1.092zm9.451.108c-.952 0-1.692-.204-2.22-.612-.528-.416-.792-.996-.792-1.74 0-.392.08-.74.24-1.044.16-.312.384-.564.672-.756.288-.192.62-.312.996-.36v.18a2.377 2.377 0 0 1-.9-.408 2.124 2.124 0 0 1-.6-.732 2.192 2.192 0 0 1-.204-.948c0-.712.252-1.264.756-1.656.512-.4 1.196-.6 2.052-.6.864 0 1.548.2 2.052.6.512.392.768.944.768 1.656 0 .344-.072.664-.216.96a1.903 1.903 0 0 1-.588.72 2.244 2.244 0 0 1-.9.396v-.168c.376.048.704.172.984.372.288.192.512.44.672.744.16.304.24.652.24 1.044 0 .744-.264 1.324-.792 1.74-.528.408-1.268.612-2.22.612zm0-.816c.68 0 1.192-.132 1.536-.396.352-.264.528-.664.528-1.2 0-.528-.176-.92-.528-1.176-.344-.264-.856-.396-1.536-.396-.672 0-1.184.132-1.536.396-.352.256-.528.648-.528 1.176 0 .536.176.936.528 1.2.352.264.864.396 1.536.396zm0-3.984c.592 0 1.052-.136 1.38-.408.328-.272.492-.648.492-1.128 0-.48-.164-.852-.492-1.116-.328-.272-.788-.408-1.38-.408-.584 0-1.04.136-1.368.408-.328.264-.492.636-.492 1.116 0 .48.164.856.492 1.128.328.272.784.408 1.368.408z" fill="#fff"/><g filter="url(#d)"><rect x="41.5" y="744" width="310" height="60" rx="30" fill="#F0F0F0" fill-opacity=".75" shape-rendering="crispEdges"/><rect x="51.5" y="749" width="50" height="50" rx="25" fill="#555" fill-opacity=".05"/><path d="M74.427 783.75v-6.882h4.588v6.882h5.735v-9.176h3.441l-11.47-10.324-11.471 10.324h3.441v9.176h5.736z" fill="#F05"/><rect x="111.5" y="749" width="50" height="50" rx="25" fill="#555" fill-opacity=".05"/><path d="M136.688 774a4.5 4.5 0 0 0 4.5-4.5 4.5 4.5 0 0 0-4.5-4.5 4.498 4.498 0 0 0-4.5 4.5c0 2.486 2.013 4.5 4.5 4.5zm0 2.25c-3.004 0-9 1.507-9 4.5V783h18v-2.25c0-2.993-5.997-4.5-9-4.5z" fill="#252525"/><rect x="171.5" y="749" width="50" height="50" rx="25" fill="#555" fill-opacity=".05"/><path d="M204.675 764.25h-15.6c-1.073 0-1.94.877-1.94 1.95l-.01 17.55 3.9-3.9h13.65c1.073 0 1.95-.878 1.95-1.95v-11.7c0-1.073-.877-1.95-1.95-1.95zm-13.65 6.825h11.7v1.95h-11.7v-1.95zm7.8 4.875h-7.8V774h7.8v1.95zm3.9-5.85h-11.7v-1.95h11.7v1.95z" fill="#252525"/><rect x="231.5" y="749" width="50" height="50" rx="25" fill="#555" fill-opacity=".05"/><path d="M260.499 776.514h-.881l-.312-.301a7.212 7.212 0 0 0 1.75-4.716 7.247 7.247 0 1 0-7.247 7.247 7.218 7.218 0 0 0 4.717-1.75l.301.312v.881l5.574 5.563 1.661-1.661-5.563-5.575zm-6.69 0a5.01 5.01 0 0 1-5.017-5.017 5.01 5.01 0 0 1 5.017-5.017 5.01 5.01 0 0 1 5.018 5.017 5.01 5.01 0 0 1-5.018 5.017z" fill="#202020"/><rect x="291.5" y="749" width="50" height="50" rx="25" fill="#555" fill-opacity=".05"/><path fill-rule="evenodd" clip-rule="evenodd" d="m313.793 763.183-.793 2.048-2.733 1.55-2.177-.332a1.845 1.845 0 0 0-1.848.905l-.737 1.292a1.844 1.844 0 0 0 .147 2.087l1.384 1.716v3.102l-1.346 1.716a1.85 1.85 0 0 0-.148 2.087l.738 1.292a1.844 1.844 0 0 0 1.848.905l2.177-.332 2.696 1.55.794 2.05a1.845 1.845 0 0 0 1.714 1.181h1.552a1.848 1.848 0 0 0 1.718-1.183l.793-2.048 2.695-1.55 2.177.332a1.845 1.845 0 0 0 1.848-.905l.737-1.292a1.845 1.845 0 0 0-.147-2.087l-1.383-1.716v-3.102l1.347-1.716a1.85 1.85 0 0 0 .147-2.087l-.737-1.292a1.847 1.847 0 0 0-1.848-.905l-2.177.332-2.696-1.55-.794-2.05a1.85 1.85 0 0 0-1.716-1.181h-1.516a1.846 1.846 0 0 0-1.716 1.183zm2.474 14.674a3.853 3.853 0 0 0 2.727-1.13 3.853 3.853 0 0 0 0-5.454 3.853 3.853 0 0 0-5.454 0 3.853 3.853 0 0 0 0 5.454 3.853 3.853 0 0 0 2.727 1.13z" fill="#202020"/></g><rect width="139" height="5" rx="2.5" transform="matrix(-1 0 0 1 266 840)" fill="#000"/></g><defs><filter id="b" x="-50" y="-50" width="493" height="154" filterUnits="userSpaceOnUse" color-interpolation-filters="sRGB"><feFlood flood-opacity="0" result="BackgroundImageFix"/><feGaussianBlur in="BackgroundImageFix" stdDeviation="25"/><feComposite in2="SourceAlpha" operator="in" result="effect1_backgroundBlur_2_716"/><feBlend in="SourceGraphic" in2="effect1_backgroundBlur_2_716" result="shape"/></filter><filter id="d" x="21.5" y="724" width="350" height="100" filterUnits="userSpaceOnUse" color-interpolation-filters="sRGB"><feFlood flood-opacity="0" result="BackgroundImageFix"/><feGaussianBlur in="BackgroundImageFix" stdDeviation="10"/><feComposite in2="SourceAlpha" operator="in" result="effect1_backgroundBlur_2_716"/><feColorMatrix in="SourceAlpha" values="0 0 0 0 0 0 0 0 0 0 0 0 0 0 0 0 0 0 127 0" result="hardAlpha"/><feOffset/><feGaussianBlur stdDeviation="5"/><feComposite in2="hardAlpha" operator="out"/><feColorMatrix values="0 0 0 0 0 0 0 0 0 0 0 0 0 0 0 0 0 0 0.1 0"/><feBlend in2="effect1_backgroundBlur_2_716" result="effect2_dropShadow_2_716"/><feBlend in="SourceGraphic" in2="effect2_dropShadow_2_716" result="shape"/></filter><clipPath id="a"><rect width="393" height="852" rx="48" fill="#fff"/></clipPath></defs></svg>