<svg width="24" height="24" viewBox="0 0 24 24" fill="none" xmlns="http://www.w3.org/2000/svg">
<path d="M12.0288 16.2951L12.3282 16.2026L12.1715 15.9312L6.80152 6.63009C6.45555 6.03086 6.65982 5.26853 7.25905 4.92256C7.85828 4.5766 8.62062 4.78086 8.96658 5.38009L11.9666 10.5762L12.0916 10.7928L12.3081 10.6678L13.0962 10.2128C13.333 10.076 13.5978 9.99465 13.8582 9.98285L13.8582 9.98288L13.8622 9.98265L18.4227 9.70443C18.4229 9.70442 18.4231 9.7044 18.4234 9.70439C19.18 9.6632 19.8758 10.101 20.1561 10.796L21.8405 14.9734C21.8405 14.9734 21.8405 14.9734 21.8405 14.9734C22.1674 15.7846 21.8427 16.7099 21.0926 17.143L15.7579 20.223C15.5537 20.3409 15.2737 20.4479 14.9852 20.5076C14.694 20.568 14.4208 20.5748 14.2196 20.5184C14.2192 20.5182 14.2187 20.5181 14.2182 20.518L8.11803 18.7142L8.35517 17.8075C8.35523 17.8073 8.35529 17.8071 8.35536 17.8068C8.42227 17.558 8.60188 17.3606 8.84691 17.2784L12.0288 16.2951Z" fill="white" stroke="black" stroke-width="0.5"/>
</svg>
