<svg width="393" height="852" fill="none" xmlns="http://www.w3.org/2000/svg"><rect width="393" height="852" rx="48" fill="#fff"/><g clip-path="url(#a)"><g filter="url(#b)"><mask id="c" fill="#fff"><path d="M0 0h393v54H0V0z"/></mask><path d="M0 0h393v54H0V0z" fill="#fff" fill-opacity=".75" style="mix-blend-mode:hard-light"/><path d="M393 53.667H0v.666h393v-.666z" fill="#000" fill-opacity=".3" mask="url(#c)"/><path d="M57.69 23.063c.642 0 1.251.119 1.827.357a4.07 4.07 0 0 1 1.527 1.096c.448.492.8 1.126 1.054 1.9.255.77.382 1.697.382 2.781v.017c0 1.345-.194 2.496-.581 3.453-.387.957-.944 1.693-1.669 2.208-.719.51-1.58.764-2.581.764-.736 0-1.4-.133-1.992-.399a4.076 4.076 0 0 1-1.461-1.112 3.887 3.887 0 0 1-.772-1.627l-.017-.091h2.1l.034.083c.105.276.254.52.448.73.199.21.437.374.714.49.282.11.597.166.946.166.63 0 1.145-.185 1.544-.556.404-.377.705-.877.905-1.503.204-.63.32-1.328.348-2.091.006-.084.009-.164.009-.241v-.24l-.374-2.001c0-.454-.105-.866-.315-1.237a2.372 2.372 0 0 0-.855-.88 2.266 2.266 0 0 0-1.204-.324 2.31 2.31 0 0 0-1.187.316c-.36.21-.647.498-.863.863a2.31 2.31 0 0 0-.324 1.212v.016c0 .465.102.877.307 1.237.205.354.484.634.838.839.355.204.759.307 1.212.307.454 0 .86-.1 1.22-.3.36-.198.645-.475.856-.83.21-.353.315-.755.315-1.203v-.016h.498v2.208h-.29a2.883 2.883 0 0 1-.64.88c-.282.27-.63.49-1.046.655-.409.166-.89.25-1.444.25-.764 0-1.439-.172-2.025-.515a3.73 3.73 0 0 1-1.386-1.412c-.332-.597-.498-1.272-.498-2.025v-.017c0-.813.188-1.535.564-2.166a4.02 4.02 0 0 1 1.577-1.494c.675-.365 1.442-.548 2.3-.548zM66.25 33.73a1.3 1.3 0 0 1-.947-.374 1.28 1.28 0 0 1-.373-.93c0-.37.124-.68.373-.93.255-.254.57-.381.947-.381.381 0 .697.127.946.382.249.249.373.559.373.93 0 .364-.124.674-.373.929-.25.249-.565.373-.946.373zm0-6.16a1.3 1.3 0 0 1-.947-.373 1.28 1.28 0 0 1-.373-.93c0-.37.124-.68.373-.93.255-.254.57-.381.947-.381.381 0 .697.127.946.381.249.25.373.56.373.93 0 .365-.124.675-.373.93-.25.249-.565.373-.946.373zm9.579 7.77v-2.3h-5.86v-1.75l.946-1.62a154.586 154.586 0 0 1 1.959-3.22c.332-.531.66-1.055.987-1.57.332-.52.664-1.026.996-1.518h3.014v7.91h1.618v1.769H77.87v2.299h-2.042zm-3.868-4.018h3.9v-6.25h-.124c-.243.376-.495.763-.755 1.162-.255.398-.512.805-.772 1.22-.26.415-.517.833-.772 1.253a96.31 96.31 0 0 0-1.477 2.49v.125zm12.484 4.018v-9.87h-.15l-2.98 2.1v-2.009l3.13-2.2h2.133V35.34h-2.133z" fill="#202020"/><rect opacity=".35" x="334" y="23.5" width="24" height="12" rx="3.8" stroke="#202020"/><path opacity=".4" d="M359.5 27.781v4.076a2.211 2.211 0 0 0 1.328-2.038c0-.89-.523-1.693-1.328-2.038z" fill="#202020"/><rect x="335.5" y="25" width="21" height="9" rx="2.5" fill="#202020"/><path fill-rule="evenodd" clip-rule="evenodd" d="M317.771 26.104c2.487 0 4.879.922 6.681 2.576a.355.355 0 0 0 .487-.004l1.297-1.263a.344.344 0 0 0 .105-.248.342.342 0 0 0-.108-.246c-4.731-4.375-12.195-4.375-16.926 0a.346.346 0 0 0-.108.246c0 .093.037.182.105.248l1.298 1.263c.133.13.35.132.486.004 1.803-1.654 4.195-2.576 6.683-2.576zm-.004 4.22c1.357 0 2.666.512 3.672 1.436a.344.344 0 0 0 .484-.006l1.287-1.32a.367.367 0 0 0-.005-.519 7.9 7.9 0 0 0-10.873 0 .367.367 0 0 0-.005.52l1.287 1.319a.342.342 0 0 0 .483.006 5.43 5.43 0 0 1 3.67-1.436zm2.525 2.794a.408.408 0 0 1-.103.28l-2.177 2.455a.32.32 0 0 1-.241.113.324.324 0 0 1-.242-.113l-2.177-2.455a.407.407 0 0 1-.102-.28.403.403 0 0 1 .113-.276c1.39-1.314 3.426-1.314 4.816 0 .07.07.111.17.113.276zM301.7 24.682c0-.633-.478-1.146-1.067-1.146h-1.066c-.589 0-1.067.513-1.067 1.146v9.934c0 .633.478 1.146 1.067 1.146h1.066c.589 0 1.067-.513 1.067-1.146v-9.934zm-7.434 1.299h1.067c.589 0 1.066.525 1.066 1.174v7.433c0 .649-.477 1.174-1.066 1.174h-1.067c-.589 0-1.067-.525-1.067-1.174v-7.433c0-.649.478-1.174 1.067-1.174zm-4.332 2.649h-1.067c-.589 0-1.066.532-1.066 1.189v4.754c0 .657.477 1.189 1.066 1.189h1.067c.589 0 1.067-.532 1.067-1.189V29.82c0-.657-.478-1.189-1.067-1.189zm-5.301 2.445h-1.066c-.589 0-1.067.525-1.067 1.172v2.343c0 .647.478 1.172 1.067 1.172h1.066c.589 0 1.067-.525 1.067-1.172v-2.343c0-.647-.478-1.172-1.067-1.172z" fill="#202020"/></g><path d="M40 85H27.83l5.59-5.59L32 78l-8 8 8 8 1.41-1.41L27.83 87H40v-2zM22.16 169v-14.1h14.22V169h-2.34v-12.14H24.5V169h-2.34zm22.435.18c-1.2 0-2.233-.213-3.1-.64-.866-.427-1.533-1.027-2-1.8-.466-.773-.7-1.66-.7-2.66 0-1.027.233-1.92.7-2.68.467-.76 1.134-1.353 2-1.78.867-.427 1.9-.64 3.1-.64 1.2 0 2.227.213 3.08.64.867.427 1.534 1.027 2 1.8.467.76.7 1.647.7 2.66 0 1-.233 1.887-.7 2.66-.466.773-1.133 1.373-2 1.8-.853.427-1.88.64-3.08.64zm-.02-1.8c1.12 0 1.987-.3 2.6-.9.627-.6.94-1.407.94-2.42 0-1-.313-1.793-.94-2.38-.613-.6-1.473-.9-2.58-.9-1.12 0-1.986.3-2.6.9-.613.587-.92 1.38-.92 2.38 0 1.013.307 1.82.92 2.42.614.6 1.474.9 2.58.9zM57.983 169v-9.84h2.26v3.92h2.08l3.72-3.92h2.66l-4.74 4.88-.36-.66c.454.04.834.12 1.14.24.32.107.62.287.9.54.28.253.58.6.9 1.04l2.68 3.8h-2.58l-2.16-3.06a3.018 3.018 0 0 0-.64-.7c-.2-.16-.44-.267-.72-.32-.28-.067-.64-.1-1.08-.1h-1.8V169h-2.26zm15.983.18c-.827 0-1.56-.133-2.2-.4-.64-.267-1.14-.633-1.5-1.1a2.603 2.603 0 0 1-.54-1.6c0-.653.2-1.193.6-1.62.413-.427 1.073-.747 1.98-.96.92-.213 2.153-.32 3.7-.32h2.12v1.4h-2.06c-.8 0-1.467.033-2 .1-.52.053-.934.133-1.24.24-.307.107-.527.253-.66.44-.134.173-.2.387-.2.64 0 .48.213.86.64 1.14.426.267 1.006.4 1.74.4.64 0 1.22-.113 1.74-.34.52-.227.933-.54 1.24-.94a2.26 2.26 0 0 0 .46-1.38v-2.18c0-.693-.234-1.193-.7-1.5-.467-.32-1.174-.48-2.12-.48-.72 0-1.427.093-2.12.28-.68.173-1.334.44-1.96.8l-.68-1.62c.44-.253.926-.467 1.46-.64a9.62 9.62 0 0 1 1.68-.42c.6-.093 1.186-.14 1.76-.14 1.053 0 1.94.147 2.66.44.72.28 1.266.713 1.64 1.3.373.573.56 1.32.56 2.24V169h-2.04v-2.2h.12c-.2.467-.487.88-.86 1.24-.374.36-.827.64-1.36.84-.534.2-1.154.3-1.86.3zm8.873-.18v-9.84h2.26v3.92h2.08l3.72-3.92h2.66l-4.74 4.88-.36-.66c.453.04.833.12 1.14.24.32.107.62.287.9.54.28.253.58.6.9 1.04l2.68 3.8h-2.58l-2.16-3.06a3.02 3.02 0 0 0-.64-.7c-.2-.16-.44-.267-.72-.32-.28-.067-.64-.1-1.08-.1h-1.8V169h-2.26zm17.342.18c-1.2 0-2.233-.213-3.1-.64-.867-.427-1.533-1.027-2-1.8-.467-.773-.7-1.66-.7-2.66 0-1.027.233-1.92.7-2.68.467-.76 1.133-1.353 2-1.78.867-.427 1.9-.64 3.1-.64 1.2 0 2.227.213 3.08.64.867.427 1.533 1.027 2 1.8.467.76.7 1.647.7 2.66 0 1-.233 1.887-.7 2.66-.467.773-1.133 1.373-2 1.8-.853.427-1.88.64-3.08.64zm-.02-1.8c1.12 0 1.987-.3 2.6-.9.627-.6.94-1.407.94-2.42 0-1-.313-1.793-.94-2.38-.613-.6-1.473-.9-2.58-.9-1.12 0-1.987.3-2.6.9-.613.587-.92 1.38-.92 2.38 0 1.013.307 1.82.92 2.42.613.6 1.473.9 2.58.9zm8.022 1.62v-9.84h2.16v7.56h-.46l7-7.56h1.96V169h-2.16v-7.56h.46l-7 7.56h-1.96zm5.34-11.14c-.774 0-1.447-.107-2.02-.32a3.588 3.588 0 0 1-1.44-.96c-.374-.427-.64-.96-.8-1.6l1.32-.34c.213.627.56 1.087 1.04 1.38.48.293 1.113.44 1.9.44.773 0 1.4-.147 1.88-.44.493-.293.846-.753 1.06-1.38l1.32.34c-.174.64-.447 1.173-.82 1.6a3.445 3.445 0 0 1-1.42.96c-.574.213-1.247.32-2.02.32zM127.12 169v-9.84h10.64V169h-2.26v-8.02h-6.12V169h-2.26zm13.551 3.6v-13.44h2.18v2.1h-.14c.293-.72.813-1.28 1.56-1.68.76-.4 1.647-.6 2.66-.6 1.08 0 2.013.213 2.8.64.8.427 1.413 1.02 1.84 1.78.44.76.66 1.653.66 2.68 0 1.013-.22 1.907-.66 2.68a4.502 4.502 0 0 1-1.82 1.78c-.787.427-1.727.64-2.82.64-1 0-1.867-.2-2.6-.6-.733-.4-1.247-.94-1.54-1.62h.16v5.64h-2.28zm5.76-5.18c1.093 0 1.953-.307 2.58-.92s.94-1.427.94-2.44-.313-1.82-.94-2.42c-.627-.6-1.487-.9-2.58-.9-1.107 0-1.973.3-2.6.9-.613.6-.92 1.407-.92 2.42 0 1.027.313 1.847.94 2.46.627.6 1.487.9 2.58.9zm8.025 1.58v-9.84h2.16v7.56h-.46l7-7.56h1.96V169h-2.16v-7.56h.46l-7 7.56h-1.96zm21.251 0v-3.78c-.44.213-.933.38-1.48.5-.533.12-1.1.18-1.7.18-1.147 0-2.087-.16-2.82-.48-.733-.32-1.28-.787-1.64-1.4-.36-.627-.54-1.407-.54-2.34v-2.52h2.28v2.36c0 .6.107 1.087.32 1.46.227.373.573.647 1.04.82.467.16 1.06.24 1.78.24.507 0 .987-.053 1.44-.16.453-.107.887-.26 1.3-.46v-4.26h2.26V169h-2.24zm5.167 0v-9.84h2.16v7.56h-.46l7-7.56h1.96V169h-2.16v-7.56h.46l-7 7.56h-1.96zm13.551 0v-9.84h2.26v3.88h6.24v-3.88h2.26V169h-2.26v-4.16h-6.24V169h-2.26zm19.227.18c-1.28 0-2.393-.2-3.34-.6-.933-.4-1.653-.98-2.16-1.74-.493-.76-.74-1.667-.74-2.72 0-1.013.24-1.907.72-2.68.48-.773 1.154-1.373 2.02-1.8.88-.44 1.9-.66 3.06-.66 1.107 0 2.054.2 2.84.6.787.4 1.387.973 1.8 1.72.427.733.64 1.62.64 2.66v.68h-9.32v-1.42h7.8l-.42.38c-.013-.987-.306-1.733-.88-2.24-.56-.52-1.366-.78-2.42-.78-.746 0-1.393.133-1.94.4a2.796 2.796 0 0 0-1.26 1.12c-.293.48-.44 1.06-.44 1.74v.2c0 .733.147 1.353.44 1.86.307.493.767.873 1.38 1.14.627.253 1.414.38 2.36.38.747 0 1.447-.08 2.1-.24a4.878 4.878 0 0 0 1.7-.8l.68 1.54c-.493.4-1.16.713-2 .94-.826.213-1.7.32-2.62.32zm12.285-.18v-9.84h6.24c.88 0 1.62.1 2.22.3.6.2 1.046.487 1.34.86.306.373.46.84.46 1.4a1.93 1.93 0 0 1-.64 1.46c-.427.4-1.02.667-1.78.8l.04-.1c.613.053 1.126.193 1.54.42.413.213.72.487.92.82.213.333.32.713.32 1.14 0 .853-.374 1.527-1.12 2.02-.734.48-1.754.72-3.06.72h-6.48zm2.14-1.44h3.9c.773 0 1.36-.12 1.76-.36.413-.24.62-.593.62-1.06 0-.48-.207-.833-.62-1.06-.4-.24-.987-.36-1.76-.36h-3.9v2.84zm0-4.28h3.62c.733 0 1.293-.113 1.68-.34.386-.24.58-.58.58-1.02 0-.44-.194-.767-.58-.98-.374-.227-.934-.34-1.68-.34h-3.62v2.68zm10.649 5.72v-9.84h2.26v3.28h3.66c1.52 0 2.66.273 3.42.82.773.547 1.16 1.36 1.16 2.44 0 .693-.18 1.287-.54 1.78-.347.493-.86.873-1.54 1.14-.667.253-1.494.38-2.48.38h-5.94zm2.26-1.56h3.42c.893 0 1.553-.133 1.98-.4.426-.28.64-.733.64-1.36 0-.613-.214-1.047-.64-1.3-.427-.253-1.087-.38-1.98-.38h-3.42v3.44zm10.08 1.56v-9.84h2.26V169h-2.26zM20.04 197l2.68-3.8c.32-.453.62-.8.9-1.04.28-.253.58-.433.9-.54.333-.12.727-.2 1.18-.24l-.36.68-4.78-4.9h2.66l3.72 3.92h1.8v-3.92h2.28v3.92h1.8l3.72-3.92h2.64l-4.76 4.9-.36-.68c.44.04.82.113 1.14.22.32.107.627.287.92.54.293.24.6.593.92 1.06l2.66 3.8h-2.56l-2.18-3.1c-.227-.307-.44-.533-.64-.68-.2-.16-.44-.267-.72-.32-.28-.053-.64-.08-1.08-.08h-1.5V197h-2.28v-4.18h-1.5c-.44 0-.8.027-1.08.08a1.76 1.76 0 0 0-.74.32c-.2.16-.407.387-.62.68l-2.18 3.1h-2.58zm24.406.18c-.827 0-1.56-.133-2.2-.4-.64-.267-1.14-.633-1.5-1.1a2.603 2.603 0 0 1-.54-1.6c0-.653.2-1.193.6-1.62.413-.427 1.073-.747 1.98-.96.92-.213 2.153-.32 3.7-.32h2.12v1.4h-2.06c-.8 0-1.467.033-2 .1-.52.053-.933.133-1.24.24-.307.107-.527.253-.66.44-.133.173-.2.387-.2.64 0 .48.213.86.64 1.14.427.267 1.007.4 1.74.4.64 0 1.22-.113 1.74-.34.52-.227.933-.54 1.24-.94a2.26 2.26 0 0 0 .46-1.38v-2.18c0-.693-.233-1.193-.7-1.5-.467-.32-1.173-.48-2.12-.48-.72 0-1.427.093-2.12.28-.68.173-1.333.44-1.96.8l-.68-1.62c.44-.253.927-.467 1.46-.64a9.616 9.616 0 0 1 1.68-.42c.6-.093 1.187-.14 1.76-.14 1.053 0 1.94.147 2.66.44.72.28 1.267.713 1.64 1.3.373.573.56 1.32.56 2.24V197h-2.04v-2.2h.12c-.2.467-.487.88-.86 1.24s-.827.64-1.36.84c-.533.2-1.153.3-1.86.3zm8.253.08-.74-1.8c.56-.187 1.02-.413 1.38-.68.374-.267.66-.593.86-.98.214-.4.36-.887.44-1.46.094-.587.14-1.287.14-2.1v-3.08h8.94V197h-2.28v-8.02h-4.56v1.34c0 1.053-.08 1.973-.24 2.76-.146.787-.38 1.453-.7 2-.32.547-.746 1-1.28 1.36-.533.36-1.186.633-1.96.82zm15.237 3.34 2.3-4.44v1.38l-5.28-10.38h2.46l3.88 7.88h-.34l3.84-7.88h2.36l-6.84 13.44h-2.38zm15.857-3.42c-1.28 0-2.393-.2-3.34-.6-.933-.4-1.653-.98-2.16-1.74-.493-.76-.74-1.667-.74-2.72 0-1.013.24-1.907.72-2.68.48-.773 1.153-1.373 2.02-1.8.88-.44 1.9-.66 3.06-.66 1.107 0 2.053.2 2.84.6.787.4 1.387.973 1.8 1.72.427.733.64 1.62.64 2.66v.68h-9.32v-1.42h7.8l-.42.38c-.013-.987-.307-1.733-.88-2.24-.56-.52-1.367-.78-2.42-.78-.747 0-1.393.133-1.94.4a2.79 2.79 0 0 0-1.26 1.12c-.293.48-.44 1.06-.44 1.74v.2c0 .733.147 1.353.44 1.86.307.493.767.873 1.38 1.14.627.253 1.413.38 2.36.38a8.81 8.81 0 0 0 2.1-.24 4.883 4.883 0 0 0 1.7-.8l.68 1.54c-.493.4-1.16.713-2 .94-.827.213-1.7.32-2.62.32zm9.397-.18v-8.02h-4.28v-1.82h10.86v1.82h-4.3V197h-2.28zm13.193.18c-1.28 0-2.394-.2-3.34-.6-.934-.4-1.654-.98-2.16-1.74-.494-.76-.74-1.667-.74-2.72 0-1.013.24-1.907.72-2.68.48-.773 1.153-1.373 2.02-1.8.88-.44 1.9-.66 3.06-.66 1.106 0 2.053.2 2.84.6.786.4 1.386.973 1.8 1.72.426.733.64 1.62.64 2.66v.68h-9.32v-1.42h7.8l-.42.38c-.014-.987-.307-1.733-.88-2.24-.56-.52-1.367-.78-2.42-.78-.747 0-1.394.133-1.94.4a2.786 2.786 0 0 0-1.26 1.12c-.294.48-.44 1.06-.44 1.74v.2c0 .733.146 1.353.44 1.86.306.493.766.873 1.38 1.14.626.253 1.413.38 2.36.38.746 0 1.446-.08 2.1-.24a4.886 4.886 0 0 0 1.7-.8l.68 1.54c-.494.4-1.16.713-2 .94-.827.213-1.7.32-2.62.32zm11.977 0c-1.173 0-2.193-.207-3.06-.62-.853-.427-1.52-1.02-2-1.78-.48-.773-.72-1.667-.72-2.68 0-1.04.24-1.94.72-2.7.48-.773 1.154-1.367 2.02-1.78.867-.427 1.88-.64 3.04-.64.84 0 1.62.113 2.34.34.72.213 1.327.527 1.82.94l-.78 1.62a5.518 5.518 0 0 0-1.52-.8 5.15 5.15 0 0 0-1.68-.28c-1.133 0-2.026.3-2.68.9-.64.587-.96 1.387-.96 2.4s.32 1.813.96 2.4c.654.573 1.54.86 2.66.86.587 0 1.154-.093 1.7-.28a5.23 5.23 0 0 0 1.5-.8l.78 1.64c-.493.387-1.1.693-1.82.92-.706.227-1.48.34-2.32.34zm5.639-.18v-9.84h2.26v3.28h3.72c1.52 0 2.66.273 3.42.82.773.547 1.16 1.36 1.16 2.44 0 .693-.18 1.287-.54 1.78-.347.493-.86.873-1.54 1.14-.667.253-1.493.38-2.48.38h-6zm2.26-1.56h3.48c.893 0 1.553-.133 1.98-.4.427-.28.64-.733.64-1.36 0-.6-.213-1.027-.64-1.28-.427-.267-1.087-.4-1.98-.4h-3.48v3.44zM141.94 197v-9.84h2.26v3.88h6.24v-3.88h2.26V197h-2.26v-4.16h-6.24V197h-2.26zm17.428.18c-.827 0-1.56-.133-2.2-.4-.64-.267-1.14-.633-1.5-1.1a2.603 2.603 0 0 1-.54-1.6c0-.653.2-1.193.6-1.62.413-.427 1.073-.747 1.98-.96.92-.213 2.153-.32 3.7-.32h2.12v1.4h-2.06c-.8 0-1.467.033-2 .1-.52.053-.933.133-1.24.24-.307.107-.527.253-.66.44a1.02 1.02 0 0 0-.2.64c0 .48.213.86.64 1.14.427.267 1.007.4 1.74.4.64 0 1.22-.113 1.74-.34.52-.227.933-.54 1.24-.94.307-.413.46-.873.46-1.38v-2.18c0-.693-.233-1.193-.7-1.5-.467-.32-1.173-.48-2.12-.48-.72 0-1.427.093-2.12.28a7.77 7.77 0 0 0-1.96.8l-.68-1.62c.44-.253.927-.467 1.46-.64a9.603 9.603 0 0 1 1.68-.42c.6-.093 1.187-.14 1.76-.14 1.053 0 1.94.147 2.66.44.72.28 1.267.713 1.64 1.3.373.573.56 1.32.56 2.24V197h-2.04v-2.2h.12c-.2.467-.487.88-.86 1.24s-.827.64-1.36.84c-.533.2-1.153.3-1.86.3zm24.02 3.04c-1.533 0-2.927-.2-4.18-.6-1.24-.387-2.313-.96-3.22-1.72a7.977 7.977 0 0 1-2.08-2.72c-.48-1.053-.72-2.233-.72-3.54 0-1.347.247-2.56.74-3.64a8.12 8.12 0 0 1 2.16-2.82c.933-.787 2.047-1.393 3.34-1.82 1.293-.427 2.733-.64 4.32-.64 1.92 0 3.587.307 5 .92 1.413.6 2.5 1.46 3.26 2.58.773 1.12 1.16 2.44 1.16 3.96 0 1.12-.207 2.1-.62 2.94-.4.84-.96 1.5-1.68 1.98-.72.467-1.553.7-2.5.7-.907 0-1.593-.2-2.06-.6-.453-.413-.667-.973-.64-1.68l.3-.08a4.256 4.256 0 0 1-1.62 1.74c-.693.413-1.5.62-2.42.62-1.173 0-2.1-.32-2.78-.96-.667-.653-1-1.573-1-2.76 0-.987.22-1.853.66-2.6a4.817 4.817 0 0 1 1.82-1.8c.787-.44 1.687-.66 2.7-.66.827 0 1.507.167 2.04.5.533.32.893.787 1.08 1.4h-.18l.36-1.68h1.76l-1.04 4.82c-.04.2-.073.393-.1.58-.027.187-.04.36-.04.52 0 .44.107.767.32.98.213.2.54.3.98.3.613 0 1.147-.18 1.6-.54.467-.36.827-.86 1.08-1.5.267-.64.4-1.367.4-2.18 0-1.267-.32-2.353-.96-3.26-.627-.907-1.52-1.6-2.68-2.08-1.16-.493-2.547-.74-4.16-.74-1.84 0-3.427.313-4.76.94-1.333.613-2.36 1.48-3.08 2.6-.72 1.12-1.08 2.44-1.08 3.96 0 1.48.347 2.76 1.04 3.84.693 1.067 1.68 1.887 2.96 2.46s2.787.86 4.52.86c1.253 0 2.4-.16 3.44-.48 1.053-.307 1.933-.747 2.64-1.32l.82 1.18a7.27 7.27 0 0 1-1.86 1.12 10.21 10.21 0 0 1-2.34.68c-.853.16-1.753.24-2.7.24zm-1.06-5.86c.707 0 1.327-.16 1.86-.48.547-.333.967-.78 1.26-1.34a4 4 0 0 0 .46-1.92c0-.733-.193-1.273-.58-1.62-.373-.347-.94-.52-1.7-.52-.72 0-1.353.153-1.9.46a3.223 3.223 0 0 0-1.26 1.24c-.307.52-.46 1.133-.46 1.84 0 .76.193 1.34.58 1.74.4.4.98.6 1.74.6zm13.267 2.64v-9.84h2.16v2.18h-.1c.254-.467.56-.873.92-1.22.374-.36.814-.64 1.32-.84a4.6 4.6 0 0 1 1.7-.3c.934 0 1.714.187 2.34.56.64.373 1.074.96 1.3 1.76h-.08a4.348 4.348 0 0 1 1.54-1.68c.68-.427 1.52-.64 2.52-.64.84 0 1.56.147 2.16.44.6.28 1.06.747 1.38 1.4.32.653.48 1.513.48 2.58v5.6h-2.26v-5.5c0-.973-.193-1.66-.58-2.06-.386-.413-.966-.62-1.74-.62-.64 0-1.193.133-1.66.4a2.773 2.773 0 0 0-1.08 1.1c-.253.453-.38.967-.38 1.54V197h-2.24v-5.5c0-.96-.206-1.647-.62-2.06-.4-.413-.966-.62-1.7-.62-.64 0-1.193.14-1.66.42-.466.28-.826.647-1.08 1.1-.253.453-.38.953-.38 1.5V197h-2.26zm24.107.18c-.827 0-1.56-.133-2.2-.4-.64-.267-1.14-.633-1.5-1.1a2.603 2.603 0 0 1-.54-1.6c0-.653.2-1.193.6-1.62.413-.427 1.073-.747 1.98-.96.92-.213 2.153-.32 3.7-.32h2.12v1.4h-2.06c-.8 0-1.467.033-2 .1-.52.053-.934.133-1.24.24-.307.107-.527.253-.66.44-.134.173-.2.387-.2.64 0 .48.213.86.64 1.14.426.267 1.006.4 1.74.4.64 0 1.22-.113 1.74-.34.52-.227.933-.54 1.24-.94.306-.413.46-.873.46-1.38v-2.18c0-.693-.234-1.193-.7-1.5-.467-.32-1.174-.48-2.12-.48-.72 0-1.427.093-2.12.28-.68.173-1.334.44-1.96.8l-.68-1.62c.44-.253.926-.467 1.46-.64a9.603 9.603 0 0 1 1.68-.42c.6-.093 1.186-.14 1.76-.14 1.053 0 1.94.147 2.66.44.72.28 1.266.713 1.64 1.3.373.573.56 1.32.56 2.24V197h-2.04v-2.2h.12c-.2.467-.487.88-.86 1.24-.374.36-.827.64-1.36.84-.534.2-1.154.3-1.86.3zm9.9 3.42 2.3-4.44v1.38l-5.28-10.38h2.46l3.88 7.88h-.34l3.84-7.88h2.36l-6.84 13.44h-2.38zm16.578-3.42c-.974 0-1.84-.2-2.6-.6-.76-.413-1.314-.987-1.66-1.72h.12V197h-2.16v-14.1h2.28v6.34H242c.333-.693.873-1.24 1.62-1.64.746-.413 1.606-.62 2.58-.62 1.053 0 1.973.213 2.76.64a4.508 4.508 0 0 1 1.82 1.78c.44.76.66 1.653.66 2.68 0 1.013-.22 1.907-.66 2.68a4.474 4.474 0 0 1-1.84 1.78c-.787.427-1.707.64-2.76.64zm-.54-1.76c1.106 0 1.966-.3 2.58-.9.626-.613.94-1.427.94-2.44 0-1.027-.314-1.84-.94-2.44-.614-.6-1.474-.9-2.58-.9-1.107 0-1.974.3-2.6.9-.614.6-.92 1.413-.92 2.44 0 1.013.306 1.827.92 2.44.626.6 1.493.9 2.6.9zm13.35 1.76c-1.28 0-2.393-.2-3.34-.6-.933-.4-1.653-.98-2.16-1.74-.493-.76-.74-1.667-.74-2.72 0-1.013.24-1.907.72-2.68.48-.773 1.153-1.373 2.02-1.8.88-.44 1.9-.66 3.06-.66 1.107 0 2.053.2 2.84.6.787.4 1.387.973 1.8 1.72.427.733.64 1.62.64 2.66v.68h-9.32v-1.42h7.8l-.42.38c-.013-.987-.307-1.733-.88-2.24-.56-.52-1.367-.78-2.42-.78-.747 0-1.393.133-1.94.4a2.786 2.786 0 0 0-1.26 1.12c-.293.48-.44 1.06-.44 1.74v.2c0 .733.147 1.353.44 1.86.307.493.767.873 1.38 1.14.627.253 1.413.38 2.36.38.747 0 1.447-.08 2.1-.24a4.886 4.886 0 0 0 1.7-.8l.68 1.54c-.493.4-1.16.713-2 .94-.827.213-1.7.32-2.62.32zm8.987-4.32v-.6c0-.44.06-.853.18-1.24s.334-.767.64-1.14c.307-.387.727-.78 1.26-1.18a7.789 7.789 0 0 0 1-.82 2.98 2.98 0 0 0 .6-.76c.134-.253.2-.513.2-.78 0-.413-.12-.74-.36-.98s-.566-.413-.98-.52a5.096 5.096 0 0 0-1.42-.18c-.84 0-1.64.133-2.4.4-.746.267-1.46.68-2.14 1.24l-.88-1.74c.454-.387.98-.72 1.58-1a8.28 8.28 0 0 1 1.92-.62 9.724 9.724 0 0 1 2.06-.22c.987 0 1.847.133 2.58.4.734.267 1.3.653 1.7 1.16.414.493.62 1.107.62 1.84 0 .453-.1.873-.3 1.26a4.205 4.205 0 0 1-.84 1.14c-.36.36-.8.727-1.32 1.1-.52.387-.94.733-1.26 1.04-.306.307-.526.607-.66.9a2.62 2.62 0 0 0-.24.92l-.04.38h-1.5zm-.58 4.14v-2.56h2.66V197h-2.66zM26 273c0 1.1.9 2 2 2h8c1.1 0 2-.9 2-2v-12H26v12zm2.46-7.12 1.41-1.41 2.13 2.12 2.12-2.12 1.41 1.41-2.12 2.12 2.12 2.12-1.41 1.41-2.12-2.12-2.12 2.12-1.41-1.41 2.12-2.12-2.13-2.12zM35.5 258l-1-1h-5l-1 1H25v2h14v-2h-3.5zM70.816 271.144c-1.205 0-2.235-.235-3.088-.704a4.906 4.906 0 0 1-1.984-2c-.459-.864-.688-1.893-.688-3.088 0-1.184.23-2.208.688-3.072a4.906 4.906 0 0 1 1.984-2c.864-.469 1.893-.704 3.088-.704.853 0 1.643.128 2.368.384.725.256 1.333.624 1.824 1.104l-.544 1.104c-.533-.469-1.093-.811-1.68-1.024-.576-.213-1.221-.32-1.936-.32-1.387 0-2.453.395-3.2 1.184-.747.789-1.12 1.909-1.12 3.36 0 1.44.373 2.555 1.12 3.344.747.789 1.813 1.184 3.2 1.184.715 0 1.36-.107 1.936-.32.587-.213 1.147-.555 1.68-1.024l.544 1.104c-.49.48-1.099.848-1.824 1.104a7.068 7.068 0 0 1-2.368.384zm5.926-.144v-8.576h7.376V271h-1.344v-7.504h-4.688V271h-1.344zm12.444.16c-.597 0-1.13-.117-1.6-.352a2.723 2.723 0 0 1-1.072-.944 2.522 2.522 0 0 1-.384-1.376c0-.565.144-1.029.432-1.392.299-.363.8-.629 1.504-.8.704-.181 1.69-.272 2.96-.272h1.008v.928h-.976c-.736 0-1.333.032-1.792.096-.458.053-.821.139-1.088.256-.256.107-.437.261-.544.464a1.522 1.522 0 0 0-.144.688c0 .501.176.907.528 1.216.352.299.822.448 1.408.448.438 0 .838-.096 1.2-.288.363-.203.646-.491.848-.864.214-.373.32-.811.32-1.312v-2.384c0-.704-.165-1.2-.496-1.488-.32-.288-.8-.432-1.44-.432-.533 0-1.04.075-1.52.224a5.11 5.11 0 0 0-1.408.704l-.48-.992a3.984 3.984 0 0 1 1.008-.544 6.494 6.494 0 0 1 1.2-.336 6.068 6.068 0 0 1 1.216-.128c.694 0 1.275.107 1.744.32.48.203.848.528 1.104.976.256.448.384 1.04.384 1.776V271h-1.28v-1.904h.176a2.594 2.594 0 0 1-.528 1.072 2.751 2.751 0 0 1-.96.736c-.384.171-.826.256-1.328.256zm6.272-.16v-8.576h1.184l3.168 5.792 3.168-5.792h1.152V271h-1.216v-7.104h.368l-3.136 5.728h-.688l-3.136-5.728h.352V271h-1.216zM25.25 306.069l2.83-2.827 14.134 14.15-2.83 2.827-14.134-14.15zm4.236-4.242 2.828-2.828 5.657 5.656-2.827 2.828-5.658-5.656zm-8.487 8.488 2.828-2.829 5.657 5.657-2.828 2.829-5.657-5.657zM21 319h12v2H21v-2zM65.52 315v-11.28h1.392v4.976h7.472v-4.976h1.392V315h-1.392v-5.136h-7.472V315H65.52zm15.457.16c-.598 0-1.13-.117-1.6-.352a2.723 2.723 0 0 1-1.072-.944 2.522 2.522 0 0 1-.384-1.376c0-.565.144-1.029.432-1.392.299-.363.8-.629 1.504-.8.704-.181 1.69-.272 2.96-.272h1.008v.928h-.976c-.736 0-1.334.032-1.792.096-.459.053-.822.139-1.088.256-.256.107-.438.261-.544.464a1.522 1.522 0 0 0-.144.688c0 .501.176.907.528 1.216.352.299.821.448 1.408.448.437 0 .837-.096 1.2-.288.362-.203.645-.491.848-.864.213-.373.32-.811.32-1.312v-2.384c0-.704-.165-1.2-.496-1.488-.32-.288-.8-.432-1.44-.432-.534 0-1.04.075-1.52.224a5.11 5.11 0 0 0-1.408.704l-.48-.992a3.984 3.984 0 0 1 1.008-.544 6.494 6.494 0 0 1 1.2-.336 6.068 6.068 0 0 1 1.216-.128c.693 0 1.274.107 1.744.32.48.203.848.528 1.104.976.256.448.384 1.04.384 1.776V315h-1.28v-1.904h.176a2.594 2.594 0 0 1-.528 1.072 2.751 2.751 0 0 1-.96.736c-.384.171-.827.256-1.328.256zm9.823-.016c-.81 0-1.525-.171-2.144-.512a3.638 3.638 0 0 1-1.424-1.52c-.33-.672-.496-1.488-.496-2.448 0-.981.17-1.792.512-2.432.352-.651.832-1.136 1.44-1.456.619-.331 1.318-.496 2.096-.496.598 0 1.152.101 1.664.304a3.25 3.25 0 0 1 1.28.848l-.56.928a3.153 3.153 0 0 0-1.056-.736 3.17 3.17 0 0 0-1.232-.24c-.842 0-1.514.272-2.016.816-.501.533-.752 1.36-.752 2.48 0 1.099.25 1.936.752 2.512.502.565 1.174.848 2.016.848.395 0 .79-.075 1.184-.224.406-.16.774-.416 1.104-.768l.56.928a3.488 3.488 0 0 1-1.328.88 4.52 4.52 0 0 1-1.6.288zm4.251-.144v-8.576H96.3v7.312h-.464l5.456-7.312h1.136V315h-1.248v-7.344h.48L96.219 315h-1.168zm9.261.176-.496-1.072a3.572 3.572 0 0 0 1.008-.688c.266-.267.474-.603.624-1.008.16-.405.272-.912.336-1.52.064-.619.096-1.371.096-2.256v-2.208h6.128V315h-1.344v-7.504h-3.52v1.184c0 1.013-.054 1.888-.16 2.624-.096.725-.256 1.339-.48 1.84a3.725 3.725 0 0 1-.88 1.248c-.363.331-.8.592-1.312.784zm10.08-.176v-8.576h1.248v7.312h-.464l5.456-7.312h1.136V315h-1.248v-7.344h.48L115.56 315h-1.168zm13.612.144c-.885 0-1.658-.165-2.32-.496a3.63 3.63 0 0 1-1.52-1.504c-.352-.661-.528-1.461-.528-2.4 0-.928.171-1.723.512-2.384a3.723 3.723 0 0 1 1.44-1.536c.619-.363 1.328-.544 2.128-.544.779 0 1.435.165 1.968.496.544.32.96.795 1.248 1.424.299.619.448 1.376.448 2.272V311h-6.736v-.928h5.872l-.304.272c0-1.035-.213-1.803-.64-2.304-.416-.501-1.024-.752-1.824-.752-.565 0-1.061.128-1.488.384-.416.245-.741.619-.976 1.12-.224.491-.336 1.093-.336 1.808v.128c0 .757.123 1.381.368 1.872.246.491.598.859 1.056 1.104.459.235 1.019.352 1.68.352.512 0 1.003-.08 1.472-.24a3.26 3.26 0 0 0 1.264-.8l.496.896c-.373.405-.858.715-1.456.928a5.533 5.533 0 0 1-1.824.304zM31 347.5h-3V346h.5c.55 0 1-.45 1-1s-.45-1-1-1h-3c-.55 0-1 .45-1 1s.45 1 1 1h.5v1.5h-3c-.55 0-1 .45-1 1s.45 1 1 1v7.5c0 1.1.9 2 2 2h1v4l2 1.5V359h1c1.1 0 2-.9 2-2v-7.5c.55 0 1-.45 1-1s-.45-1-1-1zm-2 3.5h-1.75c-.41 0-.75.34-.75.75s.34.75.75.75H29v1.5h-1.75c-.41 0-.75.34-.75.75s.34.75.75.75H29v1.5h-4v-7.5h4v1.5zm10.5 1.5v-.5c.55 0 1-.45 1-1s-.45-1-1-1h-5c-.55 0-1 .45-1 1s.45 1 1 1v.5c0 .5-1.5 1.16-1.5 3v6.5c0 1.1.9 2 2 2h4c1.1 0 2-.9 2-2v-6.5c0-1.84-1.5-2.5-1.5-3zm-3 0v-.5h1v.5c0 1.6 1.5 2 1.5 3v.5h-4v-.5c0-1 1.5-1.4 1.5-3zM35 362v-1.5h4v1.5h-4zM69.424 359.144c-.683 0-1.323-.053-1.92-.16a7.602 7.602 0 0 1-1.6-.496 5.289 5.289 0 0 1-1.216-.784l.528-1.056a5.58 5.58 0 0 0 1.824.976c.672.213 1.45.32 2.336.32 1.13 0 1.973-.176 2.528-.528.555-.352.832-.88.832-1.584 0-.661-.235-1.157-.704-1.488-.47-.331-1.184-.496-2.144-.496h-3.024v-1.12h2.832c.875 0 1.547-.171 2.016-.512.47-.352.704-.843.704-1.472s-.256-1.115-.768-1.456c-.501-.341-1.253-.512-2.256-.512-.768 0-1.477.107-2.128.32a5.033 5.033 0 0 0-1.744.944l-.528-1.04a4.761 4.761 0 0 1 1.2-.784c.47-.213.981-.373 1.536-.48a9.359 9.359 0 0 1 1.744-.16c.95 0 1.744.123 2.384.368.64.245 1.125.592 1.456 1.04.33.448.496.987.496 1.616 0 .693-.219 1.285-.656 1.776-.437.48-1.035.8-1.792.96v-.224c.864.117 1.536.421 2.016.912.49.48.736 1.104.736 1.872 0 .672-.176 1.253-.528 1.744-.352.491-.875.864-1.568 1.12-.693.256-1.557.384-2.592.384zm9.46.016c-.598 0-1.132-.117-1.6-.352a2.724 2.724 0 0 1-1.073-.944 2.522 2.522 0 0 1-.384-1.376c0-.565.144-1.029.432-1.392.299-.363.8-.629 1.504-.8.704-.181 1.69-.272 2.96-.272h1.008v.928h-.976c-.736 0-1.333.032-1.792.096-.459.053-.821.139-1.088.256-.256.107-.437.261-.544.464a1.522 1.522 0 0 0-.144.688c0 .501.176.907.528 1.216.352.299.822.448 1.408.448.438 0 .837-.096 1.2-.288.363-.203.646-.491.848-.864.213-.373.32-.811.32-1.312v-2.384c0-.704-.165-1.2-.496-1.488-.32-.288-.8-.432-1.44-.432-.533 0-1.04.075-1.52.224a5.11 5.11 0 0 0-1.408.704l-.48-.992a3.987 3.987 0 0 1 1.008-.544 6.494 6.494 0 0 1 1.2-.336 6.07 6.07 0 0 1 1.216-.128c.694 0 1.275.107 1.744.32.48.203.848.528 1.104.976.256.448.384 1.04.384 1.776V359h-1.28v-1.904h.176a2.594 2.594 0 0 1-.528 1.072 2.751 2.751 0 0 1-.96.736c-.384.171-.826.256-1.328.256zm6.27-.16v-8.576h7.377V359h-1.345v-7.504h-4.688V359h-1.344zm9.773 2.88v-11.456h1.328v2.016h-.208c.192-.693.57-1.227 1.136-1.6.565-.373 1.232-.56 2-.56.757 0 1.418.171 1.984.512.576.341 1.018.843 1.328 1.504.309.651.464 1.456.464 2.416 0 .939-.16 1.739-.48 2.4-.31.661-.747 1.168-1.312 1.52-.555.341-1.216.512-1.984.512s-1.435-.187-2-.56c-.555-.384-.928-.923-1.12-1.616h.208v4.912h-1.344zm3.984-3.824c.81 0 1.456-.277 1.936-.832.49-.555.736-1.392.736-2.512 0-1.141-.246-1.984-.736-2.528-.48-.544-1.126-.816-1.936-.816-.8 0-1.446.272-1.936.816-.49.544-.736 1.387-.736 2.528 0 1.12.245 1.957.736 2.512.49.555 1.136.832 1.936.832zm9.768 1.088c-.885 0-1.658-.165-2.32-.496a3.63 3.63 0 0 1-1.52-1.504c-.352-.661-.528-1.461-.528-2.4 0-.928.171-1.723.512-2.384a3.723 3.723 0 0 1 1.44-1.536c.619-.363 1.328-.544 2.128-.544.779 0 1.435.165 1.968.496.544.32.96.795 1.248 1.424.299.619.448 1.376.448 2.272V355h-6.736v-.928h5.872l-.304.272c0-1.035-.213-1.803-.64-2.304-.416-.501-1.024-.752-1.824-.752-.565 0-1.061.128-1.488.384-.416.245-.741.619-.976 1.12-.224.491-.336 1.093-.336 1.808v.128c0 .757.123 1.381.368 1.872.246.491.598.859 1.056 1.104.459.235 1.019.352 1.68.352.512 0 1.003-.08 1.472-.24a3.26 3.26 0 0 0 1.264-.8l.496.896c-.373.405-.858.715-1.456.928a5.533 5.533 0 0 1-1.824.304zm16.447 1.936V359H113.83v-8.576h1.296v7.504h3.616v-7.504h1.296v7.504h3.616v-7.504h1.296v7.504h1.344v3.152h-1.168zm6.503-1.936c-.885 0-1.658-.165-2.32-.496a3.63 3.63 0 0 1-1.52-1.504c-.352-.661-.528-1.461-.528-2.4 0-.928.171-1.723.512-2.384a3.723 3.723 0 0 1 1.44-1.536c.619-.363 1.328-.544 2.128-.544.779 0 1.435.165 1.968.496.544.32.96.795 1.248 1.424.299.619.448 1.376.448 2.272V355h-6.736v-.928h5.872l-.304.272c0-1.035-.213-1.803-.64-2.304-.416-.501-1.024-.752-1.824-.752-.565 0-1.061.128-1.488.384-.416.245-.741.619-.976 1.12-.224.491-.336 1.093-.336 1.808v.128c0 .757.123 1.381.368 1.872.246.491.598.859 1.056 1.104.459.235 1.019.352 1.68.352.512 0 1.003-.08 1.472-.24a3.26 3.26 0 0 0 1.264-.8l.496.896c-.373.405-.858.715-1.456.928a5.533 5.533 0 0 1-1.824.304zm.528-10.336v-1.424h1.472v1.424h-1.472zm-3.04 0v-1.424h1.472v1.424h-1.472zM136.779 359v-8.576h1.344v3.6h4.736v-3.6h1.344V359h-1.344v-3.888h-4.736V359h-1.344zm9.804 0v-8.576h1.344v3.6h4.736v-3.6h1.344V359h-1.344v-3.888h-4.736V359h-1.344zm9.803 0v-8.576h1.344v3.104h2.528c1.141 0 1.989.229 2.544.688.554.459.832 1.131.832 2.016 0 .597-.128 1.104-.384 1.52-.246.405-.619.715-1.12.928-.502.213-1.126.32-1.872.32h-3.872zm1.344-.96h2.432c.736 0 1.28-.144 1.632-.432.362-.299.544-.752.544-1.36 0-.608-.182-1.056-.544-1.344-.352-.288-.896-.432-1.632-.432h-2.432v3.568zm7.2.96v-8.576h1.344V359h-1.344zm7.599.144c-.885 0-1.658-.165-2.32-.496a3.63 3.63 0 0 1-1.52-1.504c-.352-.661-.528-1.461-.528-2.4 0-.928.171-1.723.512-2.384a3.723 3.723 0 0 1 1.44-1.536c.619-.363 1.328-.544 2.128-.544.779 0 1.435.165 1.968.496.544.32.96.795 1.248 1.424.299.619.448 1.376.448 2.272V355h-6.736v-.928h5.872l-.304.272c0-1.035-.213-1.803-.64-2.304-.416-.501-1.024-.752-1.824-.752-.565 0-1.061.128-1.488.384-.416.245-.741.619-.976 1.12-.224.491-.336 1.093-.336 1.808v.128c0 .757.123 1.381.368 1.872.246.491.598.859 1.056 1.104.459.235 1.019.352 1.68.352.512 0 1.003-.08 1.472-.24a3.26 3.26 0 0 0 1.264-.8l.496.896c-.373.405-.858.715-1.456.928a5.533 5.533 0 0 1-1.824.304zm9.204-.144v-8.576h4.064c.65 0 1.194.085 1.632.256.448.16.784.405 1.008.736.224.331.336.747.336 1.248 0 .555-.187 1.019-.56 1.392-.374.363-.854.581-1.44.656l.016-.208c.458.011.853.112 1.184.304.341.181.608.427.8.736.192.309.288.672.288 1.088 0 .736-.278 1.317-.832 1.744-.544.416-1.307.624-2.288.624h-4.208zm1.28-.912h2.816c.629 0 1.109-.128 1.44-.384.33-.256.496-.629.496-1.12 0-.491-.166-.864-.496-1.12-.331-.256-.811-.384-1.44-.384h-2.816v3.008zm0-3.92h2.64c.597 0 1.05-.123 1.36-.368.309-.245.464-.597.464-1.056 0-.459-.155-.805-.464-1.04-.31-.245-.763-.368-1.36-.368h-2.64v2.832zm11.691 4.976c-.885 0-1.658-.165-2.32-.496a3.63 3.63 0 0 1-1.52-1.504c-.352-.661-.528-1.461-.528-2.4 0-.928.171-1.723.512-2.384a3.723 3.723 0 0 1 1.44-1.536c.619-.363 1.328-.544 2.128-.544.779 0 1.435.165 1.968.496.544.32.96.795 1.248 1.424.299.619.448 1.376.448 2.272V355h-6.736v-.928h5.872l-.304.272c0-1.035-.213-1.803-.64-2.304-.416-.501-1.024-.752-1.824-.752-.565 0-1.061.128-1.488.384-.416.245-.741.619-.976 1.12-.224.491-.336 1.093-.336 1.808v.128c0 .757.123 1.381.368 1.872.246.491.598.859 1.056 1.104.459.235 1.019.352 1.68.352.512 0 1.003-.08 1.472-.24a3.26 3.26 0 0 0 1.264-.8l.496.896c-.373.405-.858.715-1.456.928a5.533 5.533 0 0 1-1.824.304zm16.446 1.936V359h-11.296v-8.576h1.296v7.504h3.616v-7.504h1.296v7.504h3.616v-7.504h1.296v7.504h1.344v3.152h-1.168zm6.504-1.936c-.885 0-1.658-.165-2.32-.496a3.63 3.63 0 0 1-1.52-1.504c-.352-.661-.528-1.461-.528-2.4 0-.928.171-1.723.512-2.384a3.723 3.723 0 0 1 1.44-1.536c.619-.363 1.328-.544 2.128-.544.779 0 1.435.165 1.968.496.544.32.96.795 1.248 1.424.299.619.448 1.376.448 2.272V355h-6.736v-.928h5.872l-.304.272c0-1.035-.213-1.803-.64-2.304-.416-.501-1.024-.752-1.824-.752-.565 0-1.061.128-1.488.384-.416.245-.741.619-.976 1.12-.224.491-.336 1.093-.336 1.808v.128c0 .757.123 1.381.368 1.872.246.491.598.859 1.056 1.104.459.235 1.019.352 1.68.352.512 0 1.003-.08 1.472-.24a3.26 3.26 0 0 0 1.264-.8l.496.896c-.373.405-.858.715-1.456.928a5.533 5.533 0 0 1-1.824.304zm8.703 0c-.811 0-1.526-.171-2.144-.512a3.636 3.636 0 0 1-1.424-1.52c-.331-.672-.496-1.488-.496-2.448 0-.981.17-1.792.512-2.432.352-.651.832-1.136 1.44-1.456.618-.331 1.317-.496 2.096-.496.597 0 1.152.101 1.664.304.512.192.938.475 1.28.848l-.56.928a3.153 3.153 0 0 0-1.056-.736 3.172 3.172 0 0 0-1.232-.24c-.843 0-1.515.272-2.016.816-.502.533-.752 1.36-.752 2.48 0 1.099.25 1.936.752 2.512.501.565 1.173.848 2.016.848.394 0 .789-.075 1.184-.224.405-.16.773-.416 1.104-.768l.56.928a3.493 3.493 0 0 1-1.328.88 4.522 4.522 0 0 1-1.6.288zm6.027-.144v-7.504h-3.104v-1.072h7.568v1.072h-3.12V359h-1.344zm5.527 0v-8.576h4.064c.65 0 1.194.085 1.632.256.448.16.784.405 1.008.736.224.331.336.747.336 1.248 0 .555-.187 1.019-.56 1.392-.374.363-.854.581-1.44.656l.016-.208c.458.011.853.112 1.184.304.341.181.608.427.8.736.192.309.288.672.288 1.088 0 .736-.278 1.317-.832 1.744-.544.416-1.307.624-2.288.624h-4.208zm1.28-.912h2.816c.629 0 1.109-.128 1.44-.384.33-.256.496-.629.496-1.12 0-.491-.166-.864-.496-1.12-.331-.256-.811-.384-1.44-.384h-2.816v3.008zm0-3.92h2.64c.597 0 1.05-.123 1.36-.368.309-.245.464-.597.464-1.056 0-.459-.155-.805-.464-1.04-.31-.245-.763-.368-1.36-.368h-2.64v2.832zm10.523 4.992c-.597 0-1.13-.117-1.6-.352a2.728 2.728 0 0 1-1.072-.944 2.522 2.522 0 0 1-.384-1.376c0-.565.144-1.029.432-1.392.299-.363.8-.629 1.504-.8.704-.181 1.691-.272 2.96-.272h1.008v.928h-.976c-.736 0-1.333.032-1.792.096-.458.053-.821.139-1.088.256-.256.107-.437.261-.544.464a1.522 1.522 0 0 0-.144.688c0 .501.176.907.528 1.216.352.299.822.448 1.408.448a2.52 2.52 0 0 0 1.2-.288c.363-.203.646-.491.848-.864.214-.373.32-.811.32-1.312v-2.384c0-.704-.165-1.2-.496-1.488-.32-.288-.8-.432-1.44-.432a5.1 5.1 0 0 0-1.52.224c-.48.149-.949.384-1.408.704l-.48-.992a3.997 3.997 0 0 1 1.008-.544 6.494 6.494 0 0 1 1.2-.336 6.074 6.074 0 0 1 1.216-.128c.694 0 1.275.107 1.744.32.48.203.848.528 1.104.976.256.448.384 1.04.384 1.776V359h-1.28v-1.904h.176a2.594 2.594 0 0 1-.528 1.072 2.751 2.751 0 0 1-.96.736c-.384.171-.826.256-1.328.256zM32.65 396a5.99 5.99 0 0 0-5.65-4c-3.31 0-6 2.69-6 6s2.69 6 6 6a5.99 5.99 0 0 0 5.65-4H37v4h4v-4h2v-4H32.65zM27 400c-1.1 0-2-.9-2-2s.9-2 2-2 2 .9 2 2-.9 2-2 2zM65.52 403v-11.28h4.928c.885 0 1.627.133 2.224.4.597.256 1.05.635 1.36 1.136.31.501.464 1.12.464 1.856 0 .725-.155 1.344-.464 1.856-.31.512-.763.901-1.36 1.168-.597.256-1.339.384-2.224.384h-3.536V403H65.52zm1.392-5.616h3.392c.95 0 1.653-.187 2.112-.56.47-.384.704-.955.704-1.712s-.235-1.323-.704-1.696c-.459-.384-1.163-.576-2.112-.576h-3.392v4.544zm11.627 5.776c-.597 0-1.13-.117-1.6-.352a2.723 2.723 0 0 1-1.072-.944 2.522 2.522 0 0 1-.384-1.376c0-.565.144-1.029.432-1.392.299-.363.8-.629 1.504-.8.704-.181 1.691-.272 2.96-.272h1.008v.928h-.976c-.736 0-1.333.032-1.792.096-.458.053-.821.139-1.088.256-.256.107-.437.261-.544.464a1.522 1.522 0 0 0-.144.688c0 .501.176.907.528 1.216.352.299.822.448 1.408.448.438 0 .838-.096 1.2-.288.363-.203.646-.491.848-.864.214-.373.32-.811.32-1.312v-2.384c0-.704-.165-1.2-.496-1.488-.32-.288-.8-.432-1.44-.432-.533 0-1.04.075-1.52.224a5.11 5.11 0 0 0-1.408.704l-.48-.992a3.984 3.984 0 0 1 1.008-.544 6.494 6.494 0 0 1 1.2-.336 6.068 6.068 0 0 1 1.216-.128c.694 0 1.275.107 1.744.32.48.203.848.528 1.104.976.256.448.384 1.04.384 1.776V403h-1.28v-1.904h.176a2.594 2.594 0 0 1-.528 1.072 2.751 2.751 0 0 1-.96.736c-.384.171-.826.256-1.328.256zm9.824-.016c-.81 0-1.526-.171-2.144-.512a3.638 3.638 0 0 1-1.424-1.52c-.33-.672-.496-1.488-.496-2.448 0-.981.17-1.792.512-2.432.352-.651.832-1.136 1.44-1.456.618-.331 1.317-.496 2.096-.496.597 0 1.152.101 1.664.304a3.25 3.25 0 0 1 1.28.848l-.56.928a3.153 3.153 0 0 0-1.056-.736 3.17 3.17 0 0 0-1.232-.24c-.843 0-1.515.272-2.016.816-.502.533-.752 1.36-.752 2.48 0 1.099.25 1.936.752 2.512.501.565 1.173.848 2.016.848.394 0 .79-.075 1.184-.224.405-.16.773-.416 1.104-.768l.56.928a3.488 3.488 0 0 1-1.328.88 4.52 4.52 0 0 1-1.6.288zm4.25-.144v-8.576h1.345v3.6h1.632l2.8-3.6h1.536l-3.232 4.144-.384-.416c.31.043.581.117.816.224.245.107.48.283.704.528.224.245.459.581.704 1.008l1.808 3.088h-1.488l-1.6-2.768a3.694 3.694 0 0 0-.512-.688 1.248 1.248 0 0 0-.56-.352 2.594 2.594 0 0 0-.768-.096h-1.456V403h-1.344zm8.758 2.88v-11.456h1.328v2.016h-.208c.192-.693.57-1.227 1.136-1.6.565-.373 1.232-.56 2-.56.757 0 1.418.171 1.984.512.576.341 1.018.843 1.328 1.504.309.651.464 1.456.464 2.416 0 .939-.16 1.739-.48 2.4-.31.661-.747 1.168-1.312 1.52-.555.341-1.216.512-1.984.512s-1.435-.187-2-.56c-.555-.384-.928-.923-1.12-1.616h.208v4.912h-1.344zm3.984-3.824c.81 0 1.456-.277 1.936-.832.49-.555.736-1.392.736-2.512 0-1.141-.246-1.984-.736-2.528-.48-.544-1.126-.816-1.936-.816-.8 0-1.446.272-1.936.816-.491.544-.736 1.387-.736 2.528 0 1.12.245 1.957.736 2.512.49.555 1.136.832 1.936.832zm5.912.944v-8.576h1.344v3.104h2.528c1.141 0 1.989.229 2.544.688.555.459.832 1.131.832 2.016 0 .597-.128 1.104-.384 1.52-.245.405-.619.715-1.12.928-.501.213-1.125.32-1.872.32h-3.872zm1.344-.96h2.432c.736 0 1.28-.144 1.632-.432.363-.299.544-.752.544-1.36 0-.608-.181-1.056-.544-1.344-.352-.288-.896-.432-1.632-.432h-2.432v3.568zm7.2.96v-8.576h1.344V403h-1.344zm5.519 0v-7.504h-3.104v-1.072h7.568v1.072h-3.12V403h-1.344zm5.528 0v-8.576h1.248v7.312h-.464l5.456-7.312h1.136V403h-1.248v-7.344h.48l-5.44 7.344h-1.168zm13.612.144c-.885 0-1.659-.165-2.32-.496a3.625 3.625 0 0 1-1.52-1.504c-.352-.661-.528-1.461-.528-2.4 0-.928.171-1.723.512-2.384a3.71 3.71 0 0 1 1.44-1.536c.619-.363 1.328-.544 2.128-.544.779 0 1.435.165 1.968.496.544.32.96.795 1.248 1.424.299.619.448 1.376.448 2.272V399h-6.736v-.928h5.872l-.304.272c0-1.035-.213-1.803-.64-2.304-.416-.501-1.024-.752-1.824-.752-.565 0-1.061.128-1.488.384-.416.245-.741.619-.976 1.12-.224.491-.336 1.093-.336 1.808v.128c0 .757.123 1.381.368 1.872.245.491.597.859 1.056 1.104.459.235 1.019.352 1.68.352.512 0 1.003-.08 1.472-.24.469-.16.891-.427 1.264-.8l.496.896c-.373.405-.859.715-1.456.928a5.541 5.541 0 0 1-1.824.304zm8.707.032-.496-1.072a3.544 3.544 0 0 0 1.008-.688c.267-.267.475-.603.624-1.008.16-.405.272-.912.336-1.52.064-.619.096-1.371.096-2.256v-2.208h6.128V403h-1.344v-7.504h-3.52v1.184c0 1.013-.053 1.888-.16 2.624-.096.725-.256 1.339-.48 1.84a3.71 3.71 0 0 1-.88 1.248c-.362.331-.8.592-1.312.784zm10.081-.176v-8.576h1.248v7.312h-.464l5.456-7.312h1.136V403h-1.248v-7.344h.48l-5.44 7.344h-1.168zm15.244 0v-3.456a4.44 4.44 0 0 1-1.088.416 5.068 5.068 0 0 1-1.232.144c-.8 0-1.461-.117-1.984-.352-.523-.245-.912-.603-1.168-1.072-.245-.48-.368-1.083-.368-1.808v-2.448h1.344v2.352c0 .523.085.949.256 1.28.181.32.443.555.784.704.352.149.795.224 1.328.224a4.63 4.63 0 0 0 1.12-.128c.341-.096.672-.24.992-.432v-4h1.344V403h-1.328zm3.706 0v-8.576h1.344v3.6h4.736v-3.6h1.344V403h-1.344v-3.888h-4.736V403h-1.344zm9.803 0v-8.576h1.344v3.104h2.528c1.141 0 1.989.229 2.544.688.554.459.832 1.131.832 2.016 0 .597-.128 1.104-.384 1.52-.246.405-.619.715-1.12.928-.502.213-1.126.32-1.872.32h-3.872zm1.344-.96h2.432c.736 0 1.28-.144 1.632-.432.362-.299.544-.752.544-1.36 0-.608-.182-1.056-.544-1.344-.352-.288-.896-.432-1.632-.432h-2.432v3.568zm7.2.96v-8.576h1.344V403h-1.344zm2.671 0 3.776-4.784v.688l-3.552-4.48h1.616l2.72 3.52h-.448l2.736-3.52h1.584l-3.536 4.448v-.592l3.744 4.72h-1.648l-2.912-3.76h.448l-2.928 3.76h-1.6zm13.047 2.08v-3.168h.88c.288-.395.512-.832.672-1.312.171-.48.293-1.019.368-1.616a14.27 14.27 0 0 0 .128-2v-2.56h5.968v7.488h1.36v3.168h-1.168V403h-7.04v2.08h-1.168zm2.208-3.168h4.528v-6.432h-3.488v1.696c0 .917-.091 1.792-.272 2.624-.181.832-.437 1.536-.768 2.112zm11.305 1.248c-.597 0-1.13-.117-1.6-.352a2.728 2.728 0 0 1-1.072-.944 2.522 2.522 0 0 1-.384-1.376c0-.565.144-1.029.432-1.392.299-.363.8-.629 1.504-.8.704-.181 1.691-.272 2.96-.272h1.008v.928h-.976c-.736 0-1.333.032-1.792.096-.458.053-.821.139-1.088.256-.256.107-.437.261-.544.464a1.522 1.522 0 0 0-.144.688c0 .501.176.907.528 1.216.352.299.822.448 1.408.448a2.52 2.52 0 0 0 1.2-.288c.363-.203.646-.491.848-.864.214-.373.32-.811.32-1.312v-2.384c0-.704-.165-1.2-.496-1.488-.32-.288-.8-.432-1.44-.432a5.1 5.1 0 0 0-1.52.224c-.48.149-.949.384-1.408.704l-.48-.992a3.997 3.997 0 0 1 1.008-.544 6.494 6.494 0 0 1 1.2-.336 6.074 6.074 0 0 1 1.216-.128c.694 0 1.275.107 1.744.32.48.203.848.528 1.104.976.256.448.384 1.04.384 1.776V403h-1.28v-1.904h.176a2.594 2.594 0 0 1-.528 1.072 2.751 2.751 0 0 1-.96.736c-.384.171-.826.256-1.328.256zm6.272-.16v-8.576h1.344v3.6h4.736v-3.6h1.344V403h-1.344v-3.888h-4.736V403h-1.344zm9.803 0v-8.576h1.344v3.6h4.736v-3.6h1.344V403h-1.344v-3.888h-4.736V403h-1.344zm9.803 0v-8.576h1.344v3.104h2.528c1.141 0 1.989.229 2.544.688.555.459.832 1.131.832 2.016 0 .597-.128 1.104-.384 1.52-.245.405-.619.715-1.12.928-.501.213-1.125.32-1.872.32h-3.872zm1.344-.96h2.432c.736 0 1.28-.144 1.632-.432.363-.299.544-.752.544-1.36 0-.608-.181-1.056-.544-1.344-.352-.288-.896-.432-1.632-.432h-2.432v3.568zm7.2.96v-8.576h1.344V403h-1.344zm2.671 0 3.776-4.784v.688l-3.552-4.48h1.616l2.72 3.52h-.448l2.736-3.52h1.584l-3.536 4.448v-.592l3.744 4.72h-1.648l-2.912-3.76h.448l-2.928 3.76h-1.6zM32 432c-5.52 0-10 4.48-10 10s4.48 10 10 10 10-4.48 10-10-4.48-10-10-10zm-8 10c0-1.85.63-3.54 1.69-4.9l1.9 1.9h2.83l-3.32-3.31A7.924 7.924 0 0 1 32 434c4.41 0 8 3.59 8 8 0 1.85-.63 3.54-1.69 4.9l-1.9-1.9h-2.83l3.31 3.31A7.874 7.874 0 0 1 32 450c-4.41 0-8-3.59-8-8z" fill="#202020"/><path d="m34.25 444-1.5-2 1.5-2h-1.5l-.75 1-.75-1h-1.5l1.5 2-1.5 2h1.5l.75-1 .75 1h1.5zM28 440l-.75 1-.75-1H25l1.5 2-1.5 2h1.5l.75-1 .75 1h1.5l-1.5-2 1.5-2H28zm8 4 .75-1 .75 1H39l-1.5-2 1.5-2h-1.5l-.75 1-.75-1h-1.5l1.5 2-1.5 2H36zM65.52 447v-11.28h10.16V447h-1.376v-10.112h-7.392V447H65.52zm16.21.144c-.81 0-1.52-.171-2.127-.512a3.538 3.538 0 0 1-1.408-1.52c-.33-.661-.496-1.461-.496-2.4 0-.96.165-1.765.496-2.416.33-.661.8-1.163 1.408-1.504.608-.341 1.317-.512 2.128-.512.832 0 1.546.171 2.144.512.608.341 1.077.843 1.408 1.504.33.651.496 1.456.496 2.416 0 .939-.166 1.739-.496 2.4-.33.661-.8 1.168-1.408 1.52-.598.341-1.312.512-2.144.512zm0-1.088c.811 0 1.457-.277 1.937-.832.49-.555.736-1.397.736-2.528s-.246-1.968-.736-2.512c-.48-.544-1.126-.816-1.936-.816s-1.462.272-1.952.816c-.48.544-.72 1.381-.72 2.512s.24 1.973.72 2.528c.49.555 1.141.832 1.952.832zm5.94 3.824v-11.456H89v2.016h-.209c.192-.693.571-1.227 1.136-1.6.566-.373 1.233-.56 2-.56.758 0 1.42.171 1.984.512.577.341 1.02.843 1.329 1.504.309.651.463 1.456.463 2.416 0 .939-.16 1.739-.48 2.4-.309.661-.746 1.168-1.311 1.52-.555.341-1.216.512-1.984.512-.769 0-1.435-.187-2-.56-.555-.384-.928-.923-1.12-1.616h.207v4.912h-1.343zm3.984-3.824c.811 0 1.457-.277 1.937-.832.49-.555.736-1.392.736-2.512 0-1.141-.246-1.984-.736-2.528-.48-.544-1.126-.816-1.936-.816-.8 0-1.446.272-1.936.816-.491.544-.736 1.387-.736 2.528 0 1.12.245 1.957.736 2.512.49.555 1.136.832 1.936.832zm5.913.944v-8.576h1.344v3.6h4.736v-3.6h1.344V447h-1.344v-3.888h-4.736V447h-1.344zm13.323.144c-.811 0-1.52-.171-2.128-.512a3.54 3.54 0 0 1-1.408-1.52c-.331-.661-.496-1.461-.496-2.4 0-.96.165-1.765.496-2.416.331-.661.8-1.163 1.408-1.504.608-.341 1.317-.512 2.128-.512.832 0 1.547.171 2.144.512.608.341 1.077.843 1.408 1.504.331.651.496 1.456.496 2.416 0 .939-.165 1.739-.496 2.4a3.54 3.54 0 0 1-1.408 1.52c-.597.341-1.312.512-2.144.512zm0-1.088c.811 0 1.456-.277 1.936-.832.491-.555.736-1.397.736-2.528s-.245-1.968-.736-2.512c-.48-.544-1.125-.816-1.936-.816-.811 0-1.461.272-1.952.816-.48.544-.72 1.381-.72 2.512s.24 1.973.72 2.528c.491.555 1.141.832 1.952.832zm5.924.944v-8.576h5.936v1.072h-4.592V447h-1.344zm7.163 2.88v-11.456h1.328v2.016h-.208c.192-.693.57-1.227 1.136-1.6.565-.373 1.232-.56 2-.56.757 0 1.418.171 1.984.512.576.341 1.018.843 1.328 1.504.309.651.464 1.456.464 2.416 0 .939-.16 1.739-.48 2.4-.31.661-.747 1.168-1.312 1.52-.555.341-1.216.512-1.984.512s-1.435-.187-2-.56c-.555-.384-.928-.923-1.12-1.616h.208v4.912h-1.344zm3.984-3.824c.81 0 1.456-.277 1.936-.832.49-.555.736-1.392.736-2.512 0-1.141-.246-1.984-.736-2.528-.48-.544-1.126-.816-1.936-.816-.8 0-1.446.272-1.936.816-.491.544-.736 1.387-.736 2.528 0 1.12.245 1.957.736 2.512.49.555 1.136.832 1.936.832zm8.6 1.104c-.597 0-1.13-.117-1.6-.352a2.728 2.728 0 0 1-1.072-.944 2.522 2.522 0 0 1-.384-1.376c0-.565.144-1.029.432-1.392.299-.363.8-.629 1.504-.8.704-.181 1.691-.272 2.96-.272h1.008v.928h-.976c-.736 0-1.333.032-1.792.096-.458.053-.821.139-1.088.256-.256.107-.437.261-.544.464a1.522 1.522 0 0 0-.144.688c0 .501.176.907.528 1.216.352.299.822.448 1.408.448a2.52 2.52 0 0 0 1.2-.288c.363-.203.646-.491.848-.864.214-.373.32-.811.32-1.312v-2.384c0-.704-.165-1.2-.496-1.488-.32-.288-.8-.432-1.44-.432a5.1 5.1 0 0 0-1.52.224c-.48.149-.949.384-1.408.704l-.48-.992a3.997 3.997 0 0 1 1.008-.544 6.494 6.494 0 0 1 1.2-.336 6.074 6.074 0 0 1 1.216-.128c.694 0 1.275.107 1.744.32.48.203.848.528 1.104.976.256.448.384 1.04.384 1.776V447h-1.28v-1.904h.176a2.594 2.594 0 0 1-.528 1.072 2.751 2.751 0 0 1-.96.736c-.384.171-.826.256-1.328.256zm11.12 2.72v-4.768h.176c-.182.64-.486 1.141-.912 1.504-.416.352-.934.528-1.552.528-.619 0-1.158-.181-1.616-.544-.459-.363-.816-.875-1.072-1.536-.256-.672-.384-1.456-.384-2.352 0-.907.128-1.691.384-2.352.256-.661.613-1.173 1.072-1.536.458-.363.997-.544 1.616-.544.618 0 1.136.176 1.552.528.426.352.73.853.912 1.504h-.176v-4.592h1.344v4.592h-.176c.192-.651.496-1.152.912-1.504.426-.352.944-.528 1.552-.528.618 0 1.157.181 1.616.544.469.363.826.875 1.072 1.536.256.661.384 1.445.384 2.352 0 .896-.128 1.68-.384 2.352-.246.661-.598 1.173-1.056 1.536-.459.363-1.003.544-1.632.544-.608 0-1.126-.176-1.552-.528-.416-.363-.72-.864-.912-1.504h.176v4.768h-1.344zm-1.968-3.808c.416 0 .768-.128 1.056-.384.298-.267.528-.651.688-1.152.17-.501.256-1.109.256-1.824 0-.715-.08-1.323-.24-1.824-.16-.501-.39-.88-.688-1.136a1.554 1.554 0 0 0-1.072-.4c-.619 0-1.115.293-1.488.88-.363.587-.544 1.413-.544 2.48 0 1.077.181 1.909.544 2.496.362.576.858.864 1.488.864zm5.28 0c.629 0 1.125-.288 1.488-.864.373-.587.56-1.419.56-2.496 0-1.067-.187-1.893-.56-2.48-.363-.587-.859-.88-1.488-.88a1.53 1.53 0 0 0-1.056.4c-.299.256-.528.635-.688 1.136-.16.501-.24 1.109-.24 1.824 0 .715.08 1.323.24 1.824.16.501.389.885.688 1.152.298.256.65.384 1.056.384zm5.268.928v-8.576h1.248v7.312h-.464l5.456-7.312h1.136V447h-1.248v-7.344h.48l-5.44 7.344h-1.168zm9.068 0 1.392-2.432a2.63 2.63 0 0 1 .784-.88c.32-.213.677-.32 1.072-.32h.288l-.032.144c-.651 0-1.211-.096-1.68-.288a2.327 2.327 0 0 1-1.088-.864c-.245-.384-.368-.853-.368-1.408 0-.832.272-1.461.816-1.888.544-.427 1.317-.64 2.32-.64h3.76V447h-1.264v-3.312h-1.296c-.48 0-.875.112-1.184.336-.309.213-.587.523-.832.928L166.865 447h-1.536zm3.696-4.272h2.304v-3.36h-2.304c-.672 0-1.179.144-1.52.432-.331.288-.496.699-.496 1.232 0 .544.171.965.512 1.264.341.288.843.432 1.504.432zM31.88 483.14c1.28.06 1.61 1.15 1.63 1.66h1.79c-.08-1.98-1.49-3.19-3.45-3.19-2.21 0-3.85 1.39-3.85 4.53 0 1.94.93 4.24 3.84 4.24 2.22 0 3.41-1.65 3.44-2.95h-1.79c-.03.59-.45 1.38-1.63 1.44-1.31-.04-1.86-1.06-1.86-2.73 0-2.89 1.28-2.98 1.88-3zM32 476c-5.52 0-10 4.48-10 10s4.48 10 10 10 10-4.48 10-10-4.48-10-10-10zm0 18c-4.41 0-8-3.59-8-8s3.59-8 8-8 8 3.59 8 8-3.59 8-8 8zM64.336 491l5.424-11.28h1.2L76.384 491h-1.44l-1.52-3.216.688.352h-7.536l.688-.352L65.76 491h-1.424zm6-9.776-2.832 6.096-.432-.304h6.544l-.416.304-2.832-6.096h-.032zm7.36 9.776v-8.576h4.063c.65 0 1.195.085 1.632.256.448.16.784.405 1.008.736.224.331.336.747.336 1.248 0 .555-.186 1.019-.56 1.392-.373.363-.853.581-1.44.656l.016-.208c.459.011.853.112 1.184.304.341.181.608.427.8.736.192.309.288.672.288 1.088 0 .736-.277 1.317-.832 1.744-.544.416-1.306.624-2.288.624h-4.208zm1.28-.912h2.815c.63 0 1.11-.128 1.44-.384.33-.256.496-.629.496-1.12 0-.491-.165-.864-.496-1.12-.33-.256-.81-.384-1.44-.384h-2.816v3.008zm0-3.92h2.64c.597 0 1.05-.123 1.36-.368.308-.245.463-.597.463-1.056 0-.459-.154-.805-.464-1.04-.31-.245-.762-.368-1.36-.368h-2.64v2.832zM88.758 491v-7.504h-3.104v-1.072h7.568v1.072h-3.12V491h-1.344zm9.016.144c-.811 0-1.52-.171-2.129-.512a3.538 3.538 0 0 1-1.407-1.52c-.331-.661-.496-1.461-.496-2.4 0-.96.165-1.765.496-2.416.33-.661.8-1.163 1.407-1.504.608-.341 1.318-.512 2.129-.512.831 0 1.546.171 2.143.512.608.341 1.078.843 1.408 1.504.331.651.496 1.456.496 2.416 0 .939-.165 1.739-.496 2.4-.33.661-.8 1.168-1.407 1.52-.598.341-1.313.512-2.144.512zm0-1.088c.81 0 1.456-.277 1.935-.832.491-.555.736-1.397.736-2.528s-.245-1.968-.736-2.512c-.48-.544-1.125-.816-1.935-.816-.811 0-1.462.272-1.953.816-.48.544-.72 1.381-.72 2.512s.24 1.973.72 2.528c.491.555 1.142.832 1.953.832zm5.939 3.824v-11.456h1.328v2.016h-.208c.192-.693.571-1.227 1.136-1.6.566-.373 1.232-.56 2-.56.758 0 1.419.171 1.984.512.576.341 1.019.843 1.328 1.504.31.651.464 1.456.464 2.416 0 .939-.16 1.739-.48 2.4-.309.661-.746 1.168-1.312 1.52-.554.341-1.216.512-1.984.512s-1.434-.187-2-.56c-.554-.384-.928-.923-1.12-1.616h.208v4.912h-1.344zm3.984-3.824c.811 0 1.456-.277 1.936-.832.491-.555.736-1.392.736-2.512 0-1.141-.245-1.984-.736-2.528-.48-.544-1.125-.816-1.936-.816-.8 0-1.445.272-1.936.816-.49.544-.736 1.387-.736 2.528 0 1.12.246 1.957.736 2.512.491.555 1.136.832 1.936.832zm9.465 1.088c-.811 0-1.526-.171-2.144-.512a3.636 3.636 0 0 1-1.424-1.52c-.331-.672-.496-1.488-.496-2.448 0-.981.17-1.792.512-2.432.352-.651.832-1.136 1.44-1.456.618-.331 1.317-.496 2.096-.496.597 0 1.152.101 1.664.304.512.192.938.475 1.28.848l-.56.928a3.153 3.153 0 0 0-1.056-.736 3.172 3.172 0 0 0-1.232-.24c-.843 0-1.515.272-2.016.816-.502.533-.752 1.36-.752 2.48 0 1.099.25 1.936.752 2.512.501.565 1.173.848 2.016.848.394 0 .789-.075 1.184-.224.405-.16.773-.416 1.104-.768l.56.928a3.493 3.493 0 0 1-1.328.88 4.522 4.522 0 0 1-1.6.288zm4.251-.144v-8.576h1.344v3.6h1.632l2.8-3.6h1.536l-3.232 4.144-.384-.416c.309.043.581.117.816.224.245.107.48.283.704.528.224.245.459.581.704 1.008l1.808 3.088h-1.488l-1.6-2.768a3.676 3.676 0 0 0-.512-.688 1.25 1.25 0 0 0-.56-.352 2.596 2.596 0 0 0-.768-.096h-1.456V491h-1.344zm12.26.144c-.81 0-1.52-.171-2.128-.512a3.54 3.54 0 0 1-1.408-1.52c-.33-.661-.496-1.461-.496-2.4 0-.96.166-1.765.496-2.416.331-.661.8-1.163 1.408-1.504.608-.341 1.318-.512 2.128-.512.832 0 1.547.171 2.144.512.608.341 1.078.843 1.408 1.504.331.651.496 1.456.496 2.416 0 .939-.165 1.739-.496 2.4-.33.661-.8 1.168-1.408 1.52-.597.341-1.312.512-2.144.512zm0-1.088c.811 0 1.456-.277 1.936-.832.491-.555.736-1.397.736-2.528s-.245-1.968-.736-2.512c-.48-.544-1.125-.816-1.936-.816-.81 0-1.461.272-1.952.816-.48.544-.72 1.381-.72 2.512s.24 1.973.72 2.528c.491.555 1.142.832 1.952.832zm9.78 1.088c-.885 0-1.658-.165-2.32-.496a3.63 3.63 0 0 1-1.52-1.504c-.352-.661-.528-1.461-.528-2.4 0-.928.171-1.723.512-2.384a3.723 3.723 0 0 1 1.44-1.536c.619-.363 1.328-.544 2.128-.544.779 0 1.435.165 1.968.496.544.32.96.795 1.248 1.424.299.619.448 1.376.448 2.272V487h-6.736v-.928h5.872l-.304.272c0-1.035-.213-1.803-.64-2.304-.416-.501-1.024-.752-1.824-.752-.565 0-1.061.128-1.488.384-.416.245-.741.619-.976 1.12-.224.491-.336 1.093-.336 1.808v.128c0 .757.123 1.381.368 1.872.246.491.598.859 1.056 1.104.459.235 1.019.352 1.68.352.512 0 1.003-.08 1.472-.24a3.26 3.26 0 0 0 1.264-.8l.496.896c-.373.405-.858.715-1.456.928a5.533 5.533 0 0 1-1.824.304zm9.204-.144v-8.576h7.376V491h-1.344v-7.504h-4.688V491h-1.344zm9.772 2.88v-11.456h1.328v2.016h-.208c.192-.693.571-1.227 1.136-1.6s1.232-.56 2-.56c.757 0 1.419.171 1.984.512.576.341 1.019.843 1.328 1.504.309.651.464 1.456.464 2.416 0 .939-.16 1.739-.48 2.4-.309.661-.747 1.168-1.312 1.52-.555.341-1.216.512-1.984.512s-1.435-.187-2-.56c-.555-.384-.928-.923-1.12-1.616h.208v4.912h-1.344zm3.984-3.824c.811 0 1.456-.277 1.936-.832.491-.555.736-1.392.736-2.512 0-1.141-.245-1.984-.736-2.528-.48-.544-1.125-.816-1.936-.816-.8 0-1.445.272-1.936.816-.491.544-.736 1.387-.736 2.528 0 1.12.245 1.957.736 2.512.491.555 1.136.832 1.936.832zm8.6 1.104c-.597 0-1.13-.117-1.6-.352a2.728 2.728 0 0 1-1.072-.944 2.522 2.522 0 0 1-.384-1.376c0-.565.144-1.029.432-1.392.299-.363.8-.629 1.504-.8.704-.181 1.691-.272 2.96-.272h1.008v.928h-.976c-.736 0-1.333.032-1.792.096-.458.053-.821.139-1.088.256-.256.107-.437.261-.544.464a1.522 1.522 0 0 0-.144.688c0 .501.176.907.528 1.216.352.299.822.448 1.408.448a2.52 2.52 0 0 0 1.2-.288c.363-.203.646-.491.848-.864.214-.373.32-.811.32-1.312v-2.384c0-.704-.165-1.2-.496-1.488-.32-.288-.8-.432-1.44-.432a5.1 5.1 0 0 0-1.52.224c-.48.149-.949.384-1.408.704l-.48-.992a3.997 3.997 0 0 1 1.008-.544 6.494 6.494 0 0 1 1.2-.336 6.074 6.074 0 0 1 1.216-.128c.694 0 1.275.107 1.744.32.48.203.848.528 1.104.976.256.448.384 1.04.384 1.776V491h-1.28v-1.904h.176a2.594 2.594 0 0 1-.528 1.072 2.751 2.751 0 0 1-.96.736c-.384.171-.826.256-1.328.256zm6.272-.16v-8.576h4.064c.65 0 1.194.085 1.632.256.448.16.784.405 1.008.736.224.331.336.747.336 1.248 0 .555-.187 1.019-.56 1.392-.374.363-.854.581-1.44.656l.016-.208c.458.011.853.112 1.184.304.341.181.608.427.8.736.192.309.288.672.288 1.088 0 .736-.278 1.317-.832 1.744-.544.416-1.307.624-2.288.624h-4.208zm1.28-.912h2.816c.629 0 1.109-.128 1.44-.384.33-.256.496-.629.496-1.12 0-.491-.166-.864-.496-1.12-.331-.256-.811-.384-1.44-.384h-2.816v3.008zm0-3.92h2.64c.597 0 1.05-.123 1.36-.368.309-.245.464-.597.464-1.056 0-.459-.155-.805-.464-1.04-.31-.245-.763-.368-1.36-.368h-2.64v2.832zm11.355 4.976c-.81 0-1.52-.171-2.128-.512a3.54 3.54 0 0 1-1.408-1.52c-.33-.661-.496-1.461-.496-2.4 0-.96.166-1.765.496-2.416.331-.661.8-1.163 1.408-1.504.608-.341 1.318-.512 2.128-.512.832 0 1.547.171 2.144.512.608.341 1.078.843 1.408 1.504.331.651.496 1.456.496 2.416 0 .939-.165 1.739-.496 2.4-.33.661-.8 1.168-1.408 1.52-.597.341-1.312.512-2.144.512zm0-1.088c.811 0 1.456-.277 1.936-.832.491-.555.736-1.397.736-2.528s-.245-1.968-.736-2.512c-.48-.544-1.125-.816-1.936-.816-.81 0-1.461.272-1.952.816-.48.544-.72 1.381-.72 2.512s.24 1.973.72 2.528c.491.555 1.142.832 1.952.832zM21 539h22l-11-19-11 19zm12-3h-2v-2h2v2zm0-4h-2v-4h2v4zM64.272 537.528v-3.664h1.216c.416-.459.752-1.024 1.008-1.696.267-.683.464-1.483.592-2.4.139-.917.208-1.963.208-3.136v-2.912h8.16v10.144h1.76v3.664h-1.264V535H65.536v2.528h-1.264zm2.656-3.664h7.136v-9.008h-5.472v1.872a23.37 23.37 0 0 1-.176 3.04c-.117.885-.299 1.664-.544 2.336a6.933 6.933 0 0 1-.944 1.76zm11.658 4.016v-11.456h1.328v2.016h-.208c.192-.693.57-1.227 1.136-1.6s1.232-.56 2-.56c.758 0 1.419.171 1.984.512.576.341 1.019.843 1.328 1.504.31.651.464 1.456.464 2.416 0 .939-.16 1.739-.48 2.4-.31.661-.747 1.168-1.312 1.52-.554.341-1.216.512-1.984.512s-1.434-.187-2-.56c-.555-.384-.928-.923-1.12-1.616h.208v4.912h-1.344zm3.984-3.824c.81 0 1.456-.277 1.936-.832.49-.555.736-1.392.736-2.512 0-1.141-.245-1.984-.736-2.528-.48-.544-1.125-.816-1.936-.816-.8 0-1.445.272-1.936.816-.49.544-.736 1.387-.736 2.528 0 1.12.246 1.957.736 2.512.49.555 1.136.832 1.936.832zm6.955 3.824 1.44-3.248v.608l-3.744-8.816h1.488l3.056 7.504h-.416l3.088-7.504h1.408L90.95 537.88h-1.424zm7.542-2.88v-8.576h5.936v1.072h-4.592V535h-1.344zm10.667.144c-.811 0-1.52-.171-2.128-.512a3.54 3.54 0 0 1-1.408-1.52c-.331-.661-.496-1.461-.496-2.4 0-.96.165-1.765.496-2.416.331-.661.8-1.163 1.408-1.504.608-.341 1.317-.512 2.128-.512.832 0 1.547.171 2.144.512.608.341 1.077.843 1.408 1.504.331.651.496 1.456.496 2.416 0 .939-.165 1.739-.496 2.4a3.54 3.54 0 0 1-1.408 1.52c-.597.341-1.312.512-2.144.512zm0-1.088c.811 0 1.456-.277 1.936-.832.491-.555.736-1.397.736-2.528s-.245-1.968-.736-2.512c-.48-.544-1.125-.816-1.936-.816-.811 0-1.461.272-1.952.816-.48.544-.72 1.381-.72 2.512s.24 1.973.72 2.528c.491.555 1.141.832 1.952.832zm9.78 1.088c-.886 0-1.659-.165-2.32-.496a3.619 3.619 0 0 1-1.52-1.504c-.352-.661-.528-1.461-.528-2.4 0-.928.17-1.723.512-2.384a3.71 3.71 0 0 1 1.44-1.536c.618-.363 1.328-.544 2.128-.544.778 0 1.434.165 1.968.496.544.32.96.795 1.248 1.424.298.619.448 1.376.448 2.272V531h-6.736v-.928h5.872l-.304.272c0-1.035-.214-1.803-.64-2.304-.416-.501-1.024-.752-1.824-.752-.566 0-1.062.128-1.488.384-.416.245-.742.619-.976 1.12-.224.491-.336 1.093-.336 1.808v.128c0 .757.122 1.381.368 1.872.245.491.597.859 1.056 1.104.458.235 1.018.352 1.68.352.512 0 1.002-.08 1.472-.24.469-.16.89-.427 1.264-.8l.496.896c-.374.405-.859.715-1.456.928a5.541 5.541 0 0 1-1.824.304z" fill="#202020"/><rect x="41.5" y="744" width="310" height="60" rx="30" fill="#F0F0F0" fill-opacity=".5"/><rect x="51.5" y="749" width="50" height="50" rx="25" fill="#555" fill-opacity=".05"/><path d="M74.427 783.75v-6.882h4.588v6.882h5.735v-9.176h3.441l-11.47-10.324-11.471 10.324h3.441v9.176h5.736z" fill="#202020"/><rect x="111.5" y="749" width="50" height="50" rx="25" fill="#555" fill-opacity=".05"/><path d="M136.688 774a4.5 4.5 0 0 0 4.5-4.5 4.5 4.5 0 0 0-4.5-4.5 4.498 4.498 0 0 0-4.5 4.5c0 2.486 2.013 4.5 4.5 4.5zm0 2.25c-3.004 0-9 1.507-9 4.5V783h18v-2.25c0-2.993-5.997-4.5-9-4.5z" fill="#252525"/><rect x="171.5" y="749" width="50" height="50" rx="25" fill="#555" fill-opacity=".05"/><path d="M204.675 764.25h-15.6c-1.073 0-1.94.877-1.94 1.95l-.01 17.55 3.9-3.9h13.65c1.073 0 1.95-.878 1.95-1.95v-11.7c0-1.073-.877-1.95-1.95-1.95zm-13.65 6.825h11.7v1.95h-11.7v-1.95zm7.8 4.875h-7.8V774h7.8v1.95zm3.9-5.85h-11.7v-1.95h11.7v1.95z" fill="#252525"/><rect x="231.5" y="749" width="50" height="50" rx="25" fill="#555" fill-opacity=".05"/><path d="M260.499 776.514h-.881l-.312-.301a7.212 7.212 0 0 0 1.75-4.716 7.247 7.247 0 1 0-7.247 7.247 7.218 7.218 0 0 0 4.717-1.75l.301.312v.881l5.574 5.563 1.661-1.661-5.563-5.575zm-6.69 0a5.01 5.01 0 0 1-5.017-5.017 5.01 5.01 0 0 1 5.017-5.017 5.01 5.01 0 0 1 5.018 5.017 5.01 5.01 0 0 1-5.018 5.017z" fill="#202020"/><rect x="291.5" y="749" width="50" height="50" rx="25" fill="#555" fill-opacity=".05"/><path fill-rule="evenodd" clip-rule="evenodd" d="m313.793 763.183-.793 2.048-2.733 1.55-2.177-.332a1.845 1.845 0 0 0-1.848.905l-.737 1.292a1.844 1.844 0 0 0 .147 2.087l1.384 1.716v3.102l-1.346 1.716a1.85 1.85 0 0 0-.148 2.087l.738 1.292a1.844 1.844 0 0 0 1.848.905l2.177-.332 2.696 1.55.794 2.05a1.845 1.845 0 0 0 1.714 1.181h1.552a1.848 1.848 0 0 0 1.718-1.183l.793-2.048 2.695-1.55 2.177.332a1.845 1.845 0 0 0 1.848-.905l.737-1.292a1.845 1.845 0 0 0-.147-2.087l-1.383-1.716v-3.102l1.347-1.716a1.85 1.85 0 0 0 .147-2.087l-.737-1.292a1.847 1.847 0 0 0-1.848-.905l-2.177.332-2.696-1.55-.794-2.05a1.85 1.85 0 0 0-1.716-1.181h-1.516a1.846 1.846 0 0 0-1.716 1.183zm2.474 14.674a3.853 3.853 0 0 0 2.727-1.13 3.853 3.853 0 0 0 0-5.454 3.853 3.853 0 0 0-5.454 0 3.853 3.853 0 0 0 0 5.454 3.853 3.853 0 0 0 2.727 1.13z" fill="#202020"/><rect width="139" height="5" rx="2.5" transform="matrix(-1 0 0 1 266 840)" fill="#202020"/></g><defs><clipPath id="a"><rect width="393" height="852" rx="48" fill="#fff"/></clipPath><filter id="b" x="-50" y="-50" width="493" height="154" filterUnits="userSpaceOnUse" color-interpolation-filters="sRGB"><feFlood flood-opacity="0" result="BackgroundImageFix"/><feGaussianBlur in="BackgroundImageFix" stdDeviation="25"/><feComposite in2="SourceAlpha" operator="in" result="effect1_backgroundBlur_71_4395"/><feBlend in="SourceGraphic" in2="effect1_backgroundBlur_71_4395" result="shape"/></filter></defs></svg>