<svg width="393" height="852" viewBox="0 0 393 852" fill="none" xmlns="http://www.w3.org/2000/svg">
<rect width="393" height="852" rx="48" fill="white"/>
<g clip-path="url(#clip0_71_4395)">
<g filter="url(#filter0_b_71_4395)">
<mask id="path-3-inside-1_71_4395" fill="white">
<path d="M0 0H393V54H0V0Z"/>
</mask>
<path d="M0 0H393V54H0V0Z" fill="white" fill-opacity="0.75" style="mix-blend-mode:hard-light"/>
<path d="M393 53.6667H0V54.3333H393V53.6667Z" fill="black" fill-opacity="0.3" mask="url(#path-3-inside-1_71_4395)"/>
<path d="M57.6904 23.063C58.3324 23.063 58.9411 23.182 59.5166 23.4199C60.0921 23.6523 60.6012 24.0176 61.0439 24.5156C61.4922 25.0081 61.8436 25.6418 62.0981 26.4165C62.3527 27.1857 62.48 28.1126 62.48 29.1973V29.2139C62.48 30.5586 62.2863 31.7096 61.8989 32.667C61.5116 33.6243 60.9554 34.3604 60.2305 34.875C59.5111 35.3841 58.6506 35.6387 57.6489 35.6387C56.9129 35.6387 56.2489 35.5059 55.6567 35.2402C55.0701 34.9691 54.5832 34.5983 54.1958 34.1279C53.814 33.652 53.5566 33.1097 53.4238 32.501L53.4072 32.4097H55.5073L55.5405 32.4927C55.6457 32.7694 55.7951 33.0129 55.9888 33.2231C56.188 33.4334 56.4259 33.5967 56.7026 33.7129C56.9849 33.8236 57.3003 33.8789 57.6489 33.8789C58.2798 33.8789 58.7944 33.6935 59.1929 33.3228C59.5968 32.9465 59.8984 32.4456 60.0977 31.8203C60.3024 31.1895 60.4186 30.4922 60.4463 29.7285C60.4518 29.6455 60.4546 29.5653 60.4546 29.4878C60.4546 29.4048 60.4546 29.3245 60.4546 29.2471L60.0811 27.2466C60.0811 26.7928 59.9759 26.3805 59.7656 26.0098C59.5553 25.639 59.2703 25.3457 58.9106 25.1299C58.5565 24.9141 58.1553 24.8062 57.707 24.8062C57.2754 24.8062 56.8797 24.9113 56.52 25.1216C56.1603 25.3319 55.8726 25.6196 55.6567 25.9849C55.4409 26.3446 55.333 26.7485 55.333 27.1968V27.2134C55.333 27.6782 55.4354 28.0905 55.6401 28.4502C55.8449 28.8044 56.1243 29.0838 56.4785 29.2886C56.8327 29.4933 57.2367 29.5957 57.6904 29.5957C58.1442 29.5957 58.5509 29.4961 58.9106 29.2969C59.2703 29.0977 59.5553 28.821 59.7656 28.4668C59.9759 28.1126 60.0811 27.7114 60.0811 27.2632V27.2466H60.5791V29.4546H60.2886C60.1447 29.77 59.9316 30.0633 59.6494 30.3345C59.3672 30.6056 59.0186 30.8242 58.6035 30.9902C58.194 31.1562 57.7126 31.2393 57.1592 31.2393C56.3955 31.2393 55.7204 31.0677 55.1338 30.7246C54.5472 30.3815 54.0851 29.9111 53.7476 29.3135C53.4155 28.7158 53.2495 28.0407 53.2495 27.2881V27.2715C53.2495 26.458 53.4377 25.7358 53.814 25.105C54.1958 24.4686 54.7215 23.9705 55.3911 23.6108C56.0662 23.2456 56.8327 23.063 57.6904 23.063ZM66.2485 33.7295C65.8722 33.7295 65.5568 33.605 65.3022 33.356C65.0532 33.1014 64.9287 32.7915 64.9287 32.4263C64.9287 32.0555 65.0532 31.7456 65.3022 31.4966C65.5568 31.242 65.8722 31.1147 66.2485 31.1147C66.6304 31.1147 66.9458 31.242 67.1948 31.4966C67.4438 31.7456 67.5684 32.0555 67.5684 32.4263C67.5684 32.7915 67.4438 33.1014 67.1948 33.356C66.9458 33.605 66.6304 33.7295 66.2485 33.7295ZM66.2485 27.5703C65.8722 27.5703 65.5568 27.4458 65.3022 27.1968C65.0532 26.9422 64.9287 26.6323 64.9287 26.2671C64.9287 25.8963 65.0532 25.5864 65.3022 25.3374C65.5568 25.0828 65.8722 24.9556 66.2485 24.9556C66.6304 24.9556 66.9458 25.0828 67.1948 25.3374C67.4438 25.5864 67.5684 25.8963 67.5684 26.2671C67.5684 26.6323 67.4438 26.9422 67.1948 27.1968C66.9458 27.4458 66.6304 27.5703 66.2485 27.5703ZM75.8276 35.3398V33.0405H69.9673V31.2891C70.2827 30.7523 70.5981 30.2127 70.9136 29.6704C71.2345 29.1281 71.5583 28.5885 71.8848 28.0518C72.2168 27.5094 72.5461 26.9754 72.8726 26.4497C73.2046 25.9185 73.5339 25.3955 73.8604 24.8809C74.1924 24.3607 74.5244 23.8543 74.8564 23.3618H77.8696V31.2725H79.4883V33.0405H77.8696V35.3398H75.8276ZM71.9595 31.3223H75.8608V25.0718H75.7363C75.4928 25.4481 75.241 25.8354 74.981 26.2339C74.7264 26.6323 74.4691 27.0391 74.209 27.4541C73.9489 27.8691 73.6916 28.2869 73.437 28.7075C73.1825 29.1226 72.9307 29.5404 72.6816 29.9609C72.4326 30.376 72.1919 30.7882 71.9595 31.1978V31.3223ZM84.4438 35.3398V25.4702H84.2944L81.3145 27.5703V25.5615L84.4438 23.3618H86.5771V35.3398H84.4438Z" fill="#202020"/>
<rect opacity="0.35" x="334" y="23.5" width="24" height="12" rx="3.8" stroke="#202020"/>
<path opacity="0.4" d="M359.5 27.7812V31.8567C360.305 31.5116 360.828 30.7086 360.828 29.819C360.828 28.9294 360.305 28.1264 359.5 27.7812Z" fill="#202020"/>
<rect x="335.5" y="25" width="21" height="9" rx="2.5" fill="#202020"/>
<path fill-rule="evenodd" clip-rule="evenodd" d="M317.771 26.104C320.258 26.1041 322.65 27.0262 324.452 28.6796C324.588 28.8073 324.805 28.8057 324.939 28.676L326.236 27.4126C326.304 27.3468 326.341 27.2577 326.341 27.165C326.34 27.0724 326.302 26.9837 326.233 26.9187C321.502 22.544 314.038 22.544 309.307 26.9187C309.239 26.9837 309.2 27.0723 309.199 27.165C309.199 27.2577 309.236 27.3468 309.304 27.4126L310.602 28.676C310.735 28.8059 310.952 28.8075 311.088 28.6796C312.891 27.0261 315.283 26.104 317.771 26.104ZM317.767 30.3243C319.124 30.3242 320.433 30.8359 321.439 31.76C321.576 31.8912 321.79 31.8883 321.923 31.7536L323.21 30.4343C323.278 30.3651 323.315 30.2712 323.314 30.1737C323.313 30.0761 323.274 29.9831 323.205 29.9153C320.141 27.0244 315.396 27.0244 312.332 29.9153C312.263 29.9831 312.224 30.0762 312.223 30.1738C312.222 30.2714 312.26 30.3652 312.327 30.4343L313.614 31.7536C313.747 31.8883 313.961 31.8912 314.097 31.76C315.103 30.8365 316.411 30.3248 317.767 30.3243ZM320.292 33.1178C320.294 33.2232 320.256 33.3247 320.189 33.3985L318.012 35.8533C317.949 35.9254 317.862 35.966 317.771 35.966C317.68 35.966 317.593 35.9254 317.529 35.8533L315.352 33.3985C315.285 33.3247 315.248 33.2231 315.25 33.1177C315.252 33.0124 315.293 32.9126 315.363 32.842C316.753 31.5281 318.789 31.5281 320.179 32.842C320.249 32.9127 320.29 33.0125 320.292 33.1178Z" fill="#202020"/>
<path fill-rule="evenodd" clip-rule="evenodd" d="M301.7 24.6819C301.7 24.0488 301.222 23.5356 300.633 23.5356H299.567C298.978 23.5356 298.5 24.0488 298.5 24.6819V34.6158C298.5 35.2489 298.978 35.7621 299.567 35.7621H300.633C301.222 35.7621 301.7 35.2489 301.7 34.6158V24.6819ZM294.266 25.9809H295.333C295.922 25.9809 296.399 26.5064 296.399 27.1547V34.5883C296.399 35.2366 295.922 35.7621 295.333 35.7621H294.266C293.677 35.7621 293.199 35.2366 293.199 34.5883V27.1547C293.199 26.5064 293.677 25.9809 294.266 25.9809ZM289.934 28.63H288.867C288.278 28.63 287.801 29.1622 287.801 29.8187V34.5734C287.801 35.2299 288.278 35.762 288.867 35.762H289.934C290.523 35.762 291.001 35.2299 291.001 34.5734V29.8187C291.001 29.1622 290.523 28.63 289.934 28.63ZM284.633 31.0753H283.567C282.978 31.0753 282.5 31.5999 282.5 32.247V34.5904C282.5 35.2375 282.978 35.7621 283.567 35.7621H284.633C285.222 35.7621 285.7 35.2375 285.7 34.5904V32.247C285.7 31.5999 285.222 31.0753 284.633 31.0753Z" fill="#202020"/>
</g>
<path d="M40 85H27.83L33.42 79.41L32 78L24 86L32 94L33.41 92.59L27.83 87H40V85Z" fill="#202020"/>
<path d="M22.16 169V154.9H36.38V169H34.04V156.86H24.5V169H22.16ZM44.5952 169.18C43.3952 169.18 42.3618 168.967 41.4952 168.54C40.6285 168.113 39.9618 167.513 39.4952 166.74C39.0285 165.967 38.7952 165.08 38.7952 164.08C38.7952 163.053 39.0285 162.16 39.4952 161.4C39.9618 160.64 40.6285 160.047 41.4952 159.62C42.3618 159.193 43.3952 158.98 44.5952 158.98C45.7952 158.98 46.8218 159.193 47.6752 159.62C48.5418 160.047 49.2085 160.647 49.6752 161.42C50.1418 162.18 50.3752 163.067 50.3752 164.08C50.3752 165.08 50.1418 165.967 49.6752 166.74C49.2085 167.513 48.5418 168.113 47.6752 168.54C46.8218 168.967 45.7952 169.18 44.5952 169.18ZM44.5752 167.38C45.6952 167.38 46.5618 167.08 47.1752 166.48C47.8018 165.88 48.1152 165.073 48.1152 164.06C48.1152 163.06 47.8018 162.267 47.1752 161.68C46.5618 161.08 45.7018 160.78 44.5952 160.78C43.4752 160.78 42.6085 161.08 41.9952 161.68C41.3818 162.267 41.0752 163.06 41.0752 164.06C41.0752 165.073 41.3818 165.88 41.9952 166.48C42.6085 167.08 43.4685 167.38 44.5752 167.38ZM57.9834 169V159.16H60.2434V163.08H62.3234L66.0434 159.16H68.7034L63.9634 164.04L63.6034 163.38C64.0568 163.42 64.4368 163.5 64.7434 163.62C65.0634 163.727 65.3634 163.907 65.6434 164.16C65.9234 164.413 66.2234 164.76 66.5434 165.2L69.2234 169H66.6434L64.4834 165.94C64.2701 165.633 64.0568 165.4 63.8434 165.24C63.6434 165.08 63.4034 164.973 63.1234 164.92C62.8434 164.853 62.4834 164.82 62.0434 164.82H60.2434V169H57.9834ZM73.9656 169.18C73.139 169.18 72.4056 169.047 71.7656 168.78C71.1256 168.513 70.6256 168.147 70.2656 167.68C69.9056 167.2 69.7256 166.667 69.7256 166.08C69.7256 165.427 69.9256 164.887 70.3256 164.46C70.739 164.033 71.399 163.713 72.3056 163.5C73.2256 163.287 74.459 163.18 76.0056 163.18H78.1256V164.58H76.0656C75.2656 164.58 74.599 164.613 74.0656 164.68C73.5456 164.733 73.1323 164.813 72.8256 164.92C72.519 165.027 72.299 165.173 72.1656 165.36C72.0323 165.533 71.9656 165.747 71.9656 166C71.9656 166.48 72.179 166.86 72.6056 167.14C73.0323 167.407 73.6123 167.54 74.3456 167.54C74.9856 167.54 75.5656 167.427 76.0856 167.2C76.6056 166.973 77.019 166.66 77.3256 166.26C77.6323 165.847 77.7856 165.387 77.7856 164.88V162.7C77.7856 162.007 77.5523 161.507 77.0856 161.2C76.619 160.88 75.9123 160.72 74.9656 160.72C74.2456 160.72 73.539 160.813 72.8456 161C72.1656 161.173 71.5123 161.44 70.8856 161.8L70.2056 160.18C70.6456 159.927 71.1323 159.713 71.6656 159.54C72.199 159.353 72.759 159.213 73.3456 159.12C73.9456 159.027 74.5323 158.98 75.1056 158.98C76.159 158.98 77.0456 159.127 77.7656 159.42C78.4856 159.7 79.0323 160.133 79.4056 160.72C79.779 161.293 79.9656 162.04 79.9656 162.96V169H77.9256V166.8H78.0456C77.8456 167.267 77.559 167.68 77.1856 168.04C76.8123 168.4 76.359 168.68 75.8256 168.88C75.2923 169.08 74.6723 169.18 73.9656 169.18ZM82.8389 169V159.16H85.0989V163.08H87.1789L90.8989 159.16H93.5589L88.8189 164.04L88.4589 163.38C88.9122 163.42 89.2922 163.5 89.5989 163.62C89.9189 163.727 90.2189 163.907 90.4989 164.16C90.7789 164.413 91.0789 164.76 91.3989 165.2L94.0789 169H91.4989L89.3389 165.94C89.1256 165.633 88.9122 165.4 88.6989 165.24C88.4989 165.08 88.2589 164.973 87.9789 164.92C87.6989 164.853 87.3389 164.82 86.8989 164.82H85.0989V169H82.8389ZM100.181 169.18C98.9811 169.18 97.9478 168.967 97.0811 168.54C96.2144 168.113 95.5478 167.513 95.0811 166.74C94.6144 165.967 94.3811 165.08 94.3811 164.08C94.3811 163.053 94.6144 162.16 95.0811 161.4C95.5478 160.64 96.2144 160.047 97.0811 159.62C97.9478 159.193 98.9811 158.98 100.181 158.98C101.381 158.98 102.408 159.193 103.261 159.62C104.128 160.047 104.794 160.647 105.261 161.42C105.728 162.18 105.961 163.067 105.961 164.08C105.961 165.08 105.728 165.967 105.261 166.74C104.794 167.513 104.128 168.113 103.261 168.54C102.408 168.967 101.381 169.18 100.181 169.18ZM100.161 167.38C101.281 167.38 102.148 167.08 102.761 166.48C103.388 165.88 103.701 165.073 103.701 164.06C103.701 163.06 103.388 162.267 102.761 161.68C102.148 161.08 101.288 160.78 100.181 160.78C99.0611 160.78 98.1944 161.08 97.5811 161.68C96.9678 162.267 96.6611 163.06 96.6611 164.06C96.6611 165.073 96.9678 165.88 97.5811 166.48C98.1944 167.08 99.0544 167.38 100.161 167.38ZM108.183 169V159.16H110.343V166.72H109.883L116.883 159.16H118.843V169H116.683V161.44H117.143L110.143 169H108.183ZM113.523 157.86C112.749 157.86 112.076 157.753 111.503 157.54C110.929 157.327 110.449 157.007 110.063 156.58C109.689 156.153 109.423 155.62 109.263 154.98L110.583 154.64C110.796 155.267 111.143 155.727 111.623 156.02C112.103 156.313 112.736 156.46 113.523 156.46C114.296 156.46 114.923 156.313 115.403 156.02C115.896 155.727 116.249 155.267 116.463 154.64L117.783 154.98C117.609 155.62 117.336 156.153 116.963 156.58C116.589 157.007 116.116 157.327 115.543 157.54C114.969 157.753 114.296 157.86 113.523 157.86ZM127.12 169V159.16H137.76V169H135.5V160.98H129.38V169H127.12ZM140.671 172.6V159.16H142.851V161.26H142.711C143.004 160.54 143.524 159.98 144.271 159.58C145.031 159.18 145.918 158.98 146.931 158.98C148.011 158.98 148.944 159.193 149.731 159.62C150.531 160.047 151.144 160.64 151.571 161.4C152.011 162.16 152.231 163.053 152.231 164.08C152.231 165.093 152.011 165.987 151.571 166.76C151.144 167.52 150.538 168.113 149.751 168.54C148.964 168.967 148.024 169.18 146.931 169.18C145.931 169.18 145.064 168.98 144.331 168.58C143.598 168.18 143.084 167.64 142.791 166.96H142.951V172.6H140.671ZM146.431 167.42C147.524 167.42 148.384 167.113 149.011 166.5C149.638 165.887 149.951 165.073 149.951 164.06C149.951 163.047 149.638 162.24 149.011 161.64C148.384 161.04 147.524 160.74 146.431 160.74C145.324 160.74 144.458 161.04 143.831 161.64C143.218 162.24 142.911 163.047 142.911 164.06C142.911 165.087 143.224 165.907 143.851 166.52C144.478 167.12 145.338 167.42 146.431 167.42ZM154.456 169V159.16H156.616V166.72H156.156L163.156 159.16H165.116V169H162.956V161.44H163.416L156.416 169H154.456ZM175.707 169V165.22C175.267 165.433 174.774 165.6 174.227 165.72C173.694 165.84 173.127 165.9 172.527 165.9C171.38 165.9 170.44 165.74 169.707 165.42C168.974 165.1 168.427 164.633 168.067 164.02C167.707 163.393 167.527 162.613 167.527 161.68V159.16H169.807V161.52C169.807 162.12 169.914 162.607 170.127 162.98C170.354 163.353 170.7 163.627 171.167 163.8C171.634 163.96 172.227 164.04 172.947 164.04C173.454 164.04 173.934 163.987 174.387 163.88C174.84 163.773 175.274 163.62 175.687 163.42V159.16H177.947V169H175.707ZM180.874 169V159.16H183.034V166.72H182.574L189.574 159.16H191.534V169H189.374V161.44H189.834L182.834 169H180.874ZM194.425 169V159.16H196.685V163.04H202.925V159.16H205.185V169H202.925V164.84H196.685V169H194.425ZM213.652 169.18C212.372 169.18 211.259 168.98 210.312 168.58C209.379 168.18 208.659 167.6 208.152 166.84C207.659 166.08 207.412 165.173 207.412 164.12C207.412 163.107 207.652 162.213 208.132 161.44C208.612 160.667 209.286 160.067 210.152 159.64C211.032 159.2 212.052 158.98 213.212 158.98C214.319 158.98 215.266 159.18 216.052 159.58C216.839 159.98 217.439 160.553 217.852 161.3C218.279 162.033 218.492 162.92 218.492 163.96V164.64H209.172V163.22H216.972L216.552 163.6C216.539 162.613 216.246 161.867 215.672 161.36C215.112 160.84 214.306 160.58 213.252 160.58C212.506 160.58 211.859 160.713 211.312 160.98C210.766 161.233 210.346 161.607 210.052 162.1C209.759 162.58 209.612 163.16 209.612 163.84V164.04C209.612 164.773 209.759 165.393 210.052 165.9C210.359 166.393 210.819 166.773 211.432 167.04C212.059 167.293 212.846 167.42 213.792 167.42C214.539 167.42 215.239 167.34 215.892 167.18C216.546 167.007 217.112 166.74 217.592 166.38L218.272 167.92C217.779 168.32 217.112 168.633 216.272 168.86C215.446 169.073 214.572 169.18 213.652 169.18ZM225.937 169V159.16H232.177C233.057 159.16 233.797 159.26 234.397 159.46C234.997 159.66 235.443 159.947 235.737 160.32C236.043 160.693 236.197 161.16 236.197 161.72C236.197 162.293 235.983 162.78 235.557 163.18C235.13 163.58 234.537 163.847 233.777 163.98L233.817 163.88C234.43 163.933 234.943 164.073 235.357 164.3C235.77 164.513 236.077 164.787 236.277 165.12C236.49 165.453 236.597 165.833 236.597 166.26C236.597 167.113 236.223 167.787 235.477 168.28C234.743 168.76 233.723 169 232.417 169H225.937ZM228.077 167.56H231.977C232.75 167.56 233.337 167.44 233.737 167.2C234.15 166.96 234.357 166.607 234.357 166.14C234.357 165.66 234.15 165.307 233.737 165.08C233.337 164.84 232.75 164.72 231.977 164.72H228.077V167.56ZM228.077 163.28H231.697C232.43 163.28 232.99 163.167 233.377 162.94C233.763 162.7 233.957 162.36 233.957 161.92C233.957 161.48 233.763 161.153 233.377 160.94C233.003 160.713 232.443 160.6 231.697 160.6H228.077V163.28ZM238.726 169V159.16H240.986V162.44H244.646C246.166 162.44 247.306 162.713 248.066 163.26C248.839 163.807 249.226 164.62 249.226 165.7C249.226 166.393 249.046 166.987 248.686 167.48C248.339 167.973 247.826 168.353 247.146 168.62C246.479 168.873 245.652 169 244.666 169H238.726ZM240.986 167.44H244.406C245.299 167.44 245.959 167.307 246.386 167.04C246.812 166.76 247.026 166.307 247.026 165.68C247.026 165.067 246.812 164.633 246.386 164.38C245.959 164.127 245.299 164 244.406 164H240.986V167.44ZM251.066 169V159.16H253.326V169H251.066ZM20.04 197L22.72 193.2C23.04 192.747 23.34 192.4 23.62 192.16C23.9 191.907 24.2 191.727 24.52 191.62C24.8533 191.5 25.2467 191.42 25.7 191.38L25.34 192.06L20.56 187.16H23.22L26.94 191.08H28.74V187.16H31.02V191.08H32.82L36.54 187.16H39.18L34.42 192.06L34.06 191.38C34.5 191.42 34.88 191.493 35.2 191.6C35.52 191.707 35.8267 191.887 36.12 192.14C36.4133 192.38 36.72 192.733 37.04 193.2L39.7 197H37.14L34.96 193.9C34.7333 193.593 34.52 193.367 34.32 193.22C34.12 193.06 33.88 192.953 33.6 192.9C33.32 192.847 32.96 192.82 32.52 192.82H31.02V197H28.74V192.82H27.24C26.8 192.82 26.44 192.847 26.16 192.9C25.88 192.953 25.6333 193.06 25.42 193.22C25.22 193.38 25.0133 193.607 24.8 193.9L22.62 197H20.04ZM44.4461 197.18C43.6194 197.18 42.8861 197.047 42.2461 196.78C41.6061 196.513 41.1061 196.147 40.7461 195.68C40.3861 195.2 40.2061 194.667 40.2061 194.08C40.2061 193.427 40.4061 192.887 40.8061 192.46C41.2194 192.033 41.8794 191.713 42.7861 191.5C43.7061 191.287 44.9394 191.18 46.4861 191.18H48.6061V192.58H46.5461C45.7461 192.58 45.0794 192.613 44.5461 192.68C44.0261 192.733 43.6128 192.813 43.3061 192.92C42.9994 193.027 42.7794 193.173 42.6461 193.36C42.5128 193.533 42.4461 193.747 42.4461 194C42.4461 194.48 42.6594 194.86 43.0861 195.14C43.5128 195.407 44.0928 195.54 44.8261 195.54C45.4661 195.54 46.0461 195.427 46.5661 195.2C47.0861 194.973 47.4994 194.66 47.8061 194.26C48.1128 193.847 48.2661 193.387 48.2661 192.88V190.7C48.2661 190.007 48.0328 189.507 47.5661 189.2C47.0994 188.88 46.3928 188.72 45.4461 188.72C44.7261 188.72 44.0194 188.813 43.3261 189C42.6461 189.173 41.9928 189.44 41.3661 189.8L40.6861 188.18C41.1261 187.927 41.6128 187.713 42.1461 187.54C42.6794 187.353 43.2394 187.213 43.8261 187.12C44.4261 187.027 45.0128 186.98 45.5861 186.98C46.6394 186.98 47.5261 187.127 48.2461 187.42C48.9661 187.7 49.5128 188.133 49.8861 188.72C50.2594 189.293 50.4461 190.04 50.4461 190.96V197H48.4061V194.8H48.5261C48.3261 195.267 48.0394 195.68 47.6661 196.04C47.2928 196.4 46.8394 196.68 46.3061 196.88C45.7728 197.08 45.1528 197.18 44.4461 197.18ZM52.6994 197.26L51.9594 195.46C52.5194 195.273 52.9794 195.047 53.3394 194.78C53.7127 194.513 53.9994 194.187 54.1994 193.8C54.4127 193.4 54.5594 192.913 54.6394 192.34C54.7327 191.753 54.7794 191.053 54.7794 190.24V187.16H63.7194V197H61.4394V188.98H56.8794V190.32C56.8794 191.373 56.7994 192.293 56.6394 193.08C56.4927 193.867 56.2594 194.533 55.9394 195.08C55.6194 195.627 55.1927 196.08 54.6594 196.44C54.126 196.8 53.4727 197.073 52.6994 197.26ZM67.9363 200.6L70.2363 196.16V197.54L64.9563 187.16H67.4163L71.2963 195.04H70.9563L74.7963 187.16H77.1562L70.3163 200.6H67.9363ZM83.793 197.18C82.513 197.18 81.3996 196.98 80.453 196.58C79.5196 196.18 78.7996 195.6 78.293 194.84C77.7996 194.08 77.553 193.173 77.553 192.12C77.553 191.107 77.793 190.213 78.273 189.44C78.753 188.667 79.4263 188.067 80.293 187.64C81.173 187.2 82.193 186.98 83.353 186.98C84.4596 186.98 85.4063 187.18 86.193 187.58C86.9796 187.98 87.5796 188.553 87.993 189.3C88.4196 190.033 88.633 190.92 88.633 191.96V192.64H79.313V191.22H87.113L86.693 191.6C86.6796 190.613 86.3863 189.867 85.813 189.36C85.253 188.84 84.4463 188.58 83.393 188.58C82.6463 188.58 81.9996 188.713 81.453 188.98C80.9063 189.233 80.4863 189.607 80.193 190.1C79.8996 190.58 79.753 191.16 79.753 191.84V192.04C79.753 192.773 79.8996 193.393 80.193 193.9C80.4996 194.393 80.9596 194.773 81.573 195.04C82.1996 195.293 82.9863 195.42 83.933 195.42C84.6796 195.42 85.3796 195.34 86.033 195.18C86.6863 195.007 87.253 194.74 87.733 194.38L88.413 195.92C87.9196 196.32 87.253 196.633 86.413 196.86C85.5863 197.073 84.713 197.18 83.793 197.18ZM93.1905 197V188.98H88.9105V187.16H99.7705V188.98H95.4705V197H93.1905ZM106.383 197.18C105.103 197.18 103.989 196.98 103.043 196.58C102.109 196.18 101.389 195.6 100.883 194.84C100.389 194.08 100.143 193.173 100.143 192.12C100.143 191.107 100.383 190.213 100.863 189.44C101.343 188.667 102.016 188.067 102.883 187.64C103.763 187.2 104.783 186.98 105.943 186.98C107.049 186.98 107.996 187.18 108.783 187.58C109.569 187.98 110.169 188.553 110.583 189.3C111.009 190.033 111.223 190.92 111.223 191.96V192.64H101.903V191.22H109.703L109.283 191.6C109.269 190.613 108.976 189.867 108.403 189.36C107.843 188.84 107.036 188.58 105.983 188.58C105.236 188.58 104.589 188.713 104.043 188.98C103.496 189.233 103.076 189.607 102.783 190.1C102.489 190.58 102.343 191.16 102.343 191.84V192.04C102.343 192.773 102.489 193.393 102.783 193.9C103.089 194.393 103.549 194.773 104.163 195.04C104.789 195.293 105.576 195.42 106.523 195.42C107.269 195.42 107.969 195.34 108.623 195.18C109.276 195.007 109.843 194.74 110.323 194.38L111.003 195.92C110.509 196.32 109.843 196.633 109.003 196.86C108.176 197.073 107.303 197.18 106.383 197.18ZM118.36 197.18C117.187 197.18 116.167 196.973 115.3 196.56C114.447 196.133 113.78 195.54 113.3 194.78C112.82 194.007 112.58 193.113 112.58 192.1C112.58 191.06 112.82 190.16 113.3 189.4C113.78 188.627 114.454 188.033 115.32 187.62C116.187 187.193 117.2 186.98 118.36 186.98C119.2 186.98 119.98 187.093 120.7 187.32C121.42 187.533 122.027 187.847 122.52 188.26L121.74 189.88C121.274 189.533 120.767 189.267 120.22 189.08C119.674 188.893 119.114 188.8 118.54 188.8C117.407 188.8 116.514 189.1 115.86 189.7C115.22 190.287 114.9 191.087 114.9 192.1C114.9 193.113 115.22 193.913 115.86 194.5C116.514 195.073 117.4 195.36 118.52 195.36C119.107 195.36 119.674 195.267 120.22 195.08C120.767 194.893 121.267 194.627 121.72 194.28L122.5 195.92C122.007 196.307 121.4 196.613 120.68 196.84C119.974 197.067 119.2 197.18 118.36 197.18ZM123.999 197V187.16H126.259V190.44H129.979C131.499 190.44 132.639 190.713 133.399 191.26C134.172 191.807 134.559 192.62 134.559 193.7C134.559 194.393 134.379 194.987 134.019 195.48C133.672 195.973 133.159 196.353 132.479 196.62C131.812 196.873 130.986 197 129.999 197H123.999ZM126.259 195.44H129.739C130.632 195.44 131.292 195.307 131.719 195.04C132.146 194.76 132.359 194.307 132.359 193.68C132.359 193.08 132.146 192.653 131.719 192.4C131.292 192.133 130.632 192 129.739 192H126.259V195.44ZM141.94 197V187.16H144.2V191.04H150.44V187.16H152.7V197H150.44V192.84H144.2V197H141.94ZM159.368 197.18C158.541 197.18 157.808 197.047 157.168 196.78C156.528 196.513 156.028 196.147 155.668 195.68C155.308 195.2 155.128 194.667 155.128 194.08C155.128 193.427 155.328 192.887 155.728 192.46C156.141 192.033 156.801 191.713 157.708 191.5C158.628 191.287 159.861 191.18 161.408 191.18H163.528V192.58H161.468C160.668 192.58 160.001 192.613 159.468 192.68C158.948 192.733 158.535 192.813 158.228 192.92C157.921 193.027 157.701 193.173 157.568 193.36C157.435 193.533 157.368 193.747 157.368 194C157.368 194.48 157.581 194.86 158.008 195.14C158.435 195.407 159.015 195.54 159.748 195.54C160.388 195.54 160.968 195.427 161.488 195.2C162.008 194.973 162.421 194.66 162.728 194.26C163.035 193.847 163.188 193.387 163.188 192.88V190.7C163.188 190.007 162.955 189.507 162.488 189.2C162.021 188.88 161.315 188.72 160.368 188.72C159.648 188.72 158.941 188.813 158.248 189C157.568 189.173 156.915 189.44 156.288 189.8L155.608 188.18C156.048 187.927 156.535 187.713 157.068 187.54C157.601 187.353 158.161 187.213 158.748 187.12C159.348 187.027 159.935 186.98 160.508 186.98C161.561 186.98 162.448 187.127 163.168 187.42C163.888 187.7 164.435 188.133 164.808 188.72C165.181 189.293 165.368 190.04 165.368 190.96V197H163.328V194.8H163.448C163.248 195.267 162.961 195.68 162.588 196.04C162.215 196.4 161.761 196.68 161.228 196.88C160.695 197.08 160.075 197.18 159.368 197.18ZM183.388 200.22C181.855 200.22 180.461 200.02 179.208 199.62C177.968 199.233 176.895 198.66 175.988 197.9C175.095 197.14 174.401 196.233 173.908 195.18C173.428 194.127 173.188 192.947 173.188 191.64C173.188 190.293 173.435 189.08 173.928 188C174.435 186.907 175.155 185.967 176.088 185.18C177.021 184.393 178.135 183.787 179.428 183.36C180.721 182.933 182.161 182.72 183.748 182.72C185.668 182.72 187.335 183.027 188.748 183.64C190.161 184.24 191.248 185.1 192.008 186.22C192.781 187.34 193.168 188.66 193.168 190.18C193.168 191.3 192.961 192.28 192.548 193.12C192.148 193.96 191.588 194.62 190.868 195.1C190.148 195.567 189.315 195.8 188.368 195.8C187.461 195.8 186.775 195.6 186.308 195.2C185.855 194.787 185.641 194.227 185.668 193.52L185.968 193.44C185.581 194.187 185.041 194.767 184.348 195.18C183.655 195.593 182.848 195.8 181.928 195.8C180.755 195.8 179.828 195.48 179.148 194.84C178.481 194.187 178.148 193.267 178.148 192.08C178.148 191.093 178.368 190.227 178.808 189.48C179.248 188.72 179.855 188.12 180.628 187.68C181.415 187.24 182.315 187.02 183.328 187.02C184.155 187.02 184.835 187.187 185.368 187.52C185.901 187.84 186.261 188.307 186.448 188.92H186.268L186.628 187.24H188.388L187.348 192.06C187.308 192.26 187.275 192.453 187.248 192.64C187.221 192.827 187.208 193 187.208 193.16C187.208 193.6 187.315 193.927 187.528 194.14C187.741 194.34 188.068 194.44 188.508 194.44C189.121 194.44 189.655 194.26 190.108 193.9C190.575 193.54 190.935 193.04 191.188 192.4C191.455 191.76 191.588 191.033 191.588 190.22C191.588 188.953 191.268 187.867 190.628 186.96C190.001 186.053 189.108 185.36 187.948 184.88C186.788 184.387 185.401 184.14 183.788 184.14C181.948 184.14 180.361 184.453 179.028 185.08C177.695 185.693 176.668 186.56 175.948 187.68C175.228 188.8 174.868 190.12 174.868 191.64C174.868 193.12 175.215 194.4 175.908 195.48C176.601 196.547 177.588 197.367 178.868 197.94C180.148 198.513 181.655 198.8 183.388 198.8C184.641 198.8 185.788 198.64 186.828 198.32C187.881 198.013 188.761 197.573 189.468 197L190.288 198.18C189.768 198.62 189.148 198.993 188.428 199.3C187.721 199.607 186.941 199.833 186.088 199.98C185.235 200.14 184.335 200.22 183.388 200.22ZM182.328 194.36C183.035 194.36 183.655 194.2 184.188 193.88C184.735 193.547 185.155 193.1 185.448 192.54C185.755 191.967 185.908 191.327 185.908 190.62C185.908 189.887 185.715 189.347 185.328 189C184.955 188.653 184.388 188.48 183.628 188.48C182.908 188.48 182.275 188.633 181.728 188.94C181.195 189.233 180.775 189.647 180.468 190.18C180.161 190.7 180.008 191.313 180.008 192.02C180.008 192.78 180.201 193.36 180.588 193.76C180.988 194.16 181.568 194.36 182.328 194.36ZM195.595 197V187.16H197.755V189.34H197.655C197.909 188.873 198.215 188.467 198.575 188.12C198.949 187.76 199.389 187.48 199.895 187.28C200.402 187.08 200.969 186.98 201.595 186.98C202.529 186.98 203.309 187.167 203.935 187.54C204.575 187.913 205.009 188.5 205.235 189.3H205.155C205.515 188.607 206.029 188.047 206.695 187.62C207.375 187.193 208.215 186.98 209.215 186.98C210.055 186.98 210.775 187.127 211.375 187.42C211.975 187.7 212.435 188.167 212.755 188.82C213.075 189.473 213.235 190.333 213.235 191.4V197H210.975V191.5C210.975 190.527 210.782 189.84 210.395 189.44C210.009 189.027 209.429 188.82 208.655 188.82C208.015 188.82 207.462 188.953 206.995 189.22C206.529 189.487 206.169 189.853 205.915 190.32C205.662 190.773 205.535 191.287 205.535 191.86V197H203.295V191.5C203.295 190.54 203.089 189.853 202.675 189.44C202.275 189.027 201.709 188.82 200.975 188.82C200.335 188.82 199.782 188.96 199.315 189.24C198.849 189.52 198.489 189.887 198.235 190.34C197.982 190.793 197.855 191.293 197.855 191.84V197H195.595ZM219.702 197.18C218.875 197.18 218.142 197.047 217.502 196.78C216.862 196.513 216.362 196.147 216.002 195.68C215.642 195.2 215.462 194.667 215.462 194.08C215.462 193.427 215.662 192.887 216.062 192.46C216.475 192.033 217.135 191.713 218.042 191.5C218.962 191.287 220.195 191.18 221.742 191.18H223.862V192.58H221.802C221.002 192.58 220.335 192.613 219.802 192.68C219.282 192.733 218.868 192.813 218.562 192.92C218.255 193.027 218.035 193.173 217.902 193.36C217.768 193.533 217.702 193.747 217.702 194C217.702 194.48 217.915 194.86 218.342 195.14C218.768 195.407 219.348 195.54 220.082 195.54C220.722 195.54 221.302 195.427 221.822 195.2C222.342 194.973 222.755 194.66 223.062 194.26C223.368 193.847 223.522 193.387 223.522 192.88V190.7C223.522 190.007 223.288 189.507 222.822 189.2C222.355 188.88 221.648 188.72 220.702 188.72C219.982 188.72 219.275 188.813 218.582 189C217.902 189.173 217.248 189.44 216.622 189.8L215.942 188.18C216.382 187.927 216.868 187.713 217.402 187.54C217.935 187.353 218.495 187.213 219.082 187.12C219.682 187.027 220.268 186.98 220.842 186.98C221.895 186.98 222.782 187.127 223.502 187.42C224.222 187.7 224.768 188.133 225.142 188.72C225.515 189.293 225.702 190.04 225.702 190.96V197H223.662V194.8H223.782C223.582 195.267 223.295 195.68 222.922 196.04C222.548 196.4 222.095 196.68 221.562 196.88C221.028 197.08 220.408 197.18 219.702 197.18ZM229.602 200.6L231.902 196.16V197.54L226.622 187.16H229.082L232.962 195.04H232.622L236.462 187.16H238.822L231.982 200.6H229.602ZM246.18 197.18C245.206 197.18 244.34 196.98 243.58 196.58C242.82 196.167 242.266 195.593 241.92 194.86H242.04V197H239.88V182.9H242.16V189.24H242C242.333 188.547 242.873 188 243.62 187.6C244.366 187.187 245.226 186.98 246.2 186.98C247.253 186.98 248.173 187.193 248.96 187.62C249.746 188.047 250.353 188.64 250.78 189.4C251.22 190.16 251.44 191.053 251.44 192.08C251.44 193.093 251.22 193.987 250.78 194.76C250.353 195.52 249.74 196.113 248.94 196.54C248.153 196.967 247.233 197.18 246.18 197.18ZM245.64 195.42C246.746 195.42 247.606 195.12 248.22 194.52C248.846 193.907 249.16 193.093 249.16 192.08C249.16 191.053 248.846 190.24 248.22 189.64C247.606 189.04 246.746 188.74 245.64 188.74C244.533 188.74 243.666 189.04 243.04 189.64C242.426 190.24 242.12 191.053 242.12 192.08C242.12 193.093 242.426 193.907 243.04 194.52C243.666 195.12 244.533 195.42 245.64 195.42ZM258.99 197.18C257.71 197.18 256.597 196.98 255.65 196.58C254.717 196.18 253.997 195.6 253.49 194.84C252.997 194.08 252.75 193.173 252.75 192.12C252.75 191.107 252.99 190.213 253.47 189.44C253.95 188.667 254.623 188.067 255.49 187.64C256.37 187.2 257.39 186.98 258.55 186.98C259.657 186.98 260.603 187.18 261.39 187.58C262.177 187.98 262.777 188.553 263.19 189.3C263.617 190.033 263.83 190.92 263.83 191.96V192.64H254.51V191.22H262.31L261.89 191.6C261.877 190.613 261.583 189.867 261.01 189.36C260.45 188.84 259.643 188.58 258.59 188.58C257.843 188.58 257.197 188.713 256.65 188.98C256.103 189.233 255.683 189.607 255.39 190.1C255.097 190.58 254.95 191.16 254.95 191.84V192.04C254.95 192.773 255.097 193.393 255.39 193.9C255.697 194.393 256.157 194.773 256.77 195.04C257.397 195.293 258.183 195.42 259.13 195.42C259.877 195.42 260.577 195.34 261.23 195.18C261.883 195.007 262.45 194.74 262.93 194.38L263.61 195.92C263.117 196.32 262.45 196.633 261.61 196.86C260.783 197.073 259.91 197.18 258.99 197.18ZM267.977 192.86V192.26C267.977 191.82 268.037 191.407 268.157 191.02C268.277 190.633 268.491 190.253 268.797 189.88C269.104 189.493 269.524 189.1 270.057 188.7C270.471 188.407 270.804 188.133 271.057 187.88C271.324 187.627 271.524 187.373 271.657 187.12C271.791 186.867 271.857 186.607 271.857 186.34C271.857 185.927 271.737 185.6 271.497 185.36C271.257 185.12 270.931 184.947 270.517 184.84C270.104 184.72 269.631 184.66 269.097 184.66C268.257 184.66 267.457 184.793 266.697 185.06C265.951 185.327 265.237 185.74 264.557 186.3L263.677 184.56C264.131 184.173 264.657 183.84 265.257 183.56C265.857 183.28 266.497 183.073 267.177 182.94C267.857 182.793 268.544 182.72 269.237 182.72C270.224 182.72 271.084 182.853 271.817 183.12C272.551 183.387 273.117 183.773 273.517 184.28C273.931 184.773 274.137 185.387 274.137 186.12C274.137 186.573 274.037 186.993 273.837 187.38C273.651 187.767 273.371 188.147 272.997 188.52C272.637 188.88 272.197 189.247 271.677 189.62C271.157 190.007 270.737 190.353 270.417 190.66C270.111 190.967 269.891 191.267 269.757 191.56C269.624 191.84 269.544 192.147 269.517 192.48L269.477 192.86H267.977ZM267.397 197V194.44H270.057V197H267.397Z" fill="#202020"/>
<path d="M26 273C26 274.1 26.9 275 28 275H36C37.1 275 38 274.1 38 273V261H26V273ZM28.46 265.88L29.87 264.47L32 266.59L34.12 264.47L35.53 265.88L33.41 268L35.53 270.12L34.12 271.53L32 269.41L29.88 271.53L28.47 270.12L30.59 268L28.46 265.88ZM35.5 258L34.5 257H29.5L28.5 258H25V260H39V258H35.5Z" fill="#202020"/>
<path d="M70.816 271.144C69.6107 271.144 68.5813 270.909 67.728 270.44C66.8747 269.971 66.2133 269.304 65.744 268.44C65.2853 267.576 65.056 266.547 65.056 265.352C65.056 264.168 65.2853 263.144 65.744 262.28C66.2133 261.416 66.8747 260.749 67.728 260.28C68.592 259.811 69.6213 259.576 70.816 259.576C71.6693 259.576 72.4587 259.704 73.184 259.96C73.9093 260.216 74.5173 260.584 75.008 261.064L74.464 262.168C73.9307 261.699 73.3707 261.357 72.784 261.144C72.208 260.931 71.5627 260.824 70.848 260.824C69.4613 260.824 68.3947 261.219 67.648 262.008C66.9013 262.797 66.528 263.917 66.528 265.368C66.528 266.808 66.9013 267.923 67.648 268.712C68.3947 269.501 69.4613 269.896 70.848 269.896C71.5627 269.896 72.208 269.789 72.784 269.576C73.3707 269.363 73.9307 269.021 74.464 268.552L75.008 269.656C74.5173 270.136 73.9093 270.504 73.184 270.76C72.4587 271.016 71.6693 271.144 70.816 271.144ZM76.742 271V262.424H84.118V271H82.774V263.496H78.086V271H76.742ZM89.1863 271.16C88.5889 271.16 88.0556 271.043 87.5863 270.808C87.1276 270.573 86.7703 270.259 86.5143 269.864C86.2583 269.459 86.1303 269 86.1303 268.488C86.1303 267.923 86.2743 267.459 86.5623 267.096C86.8609 266.733 87.3623 266.467 88.0663 266.296C88.7703 266.115 89.7569 266.024 91.0263 266.024H92.0343V266.952H91.0583C90.3223 266.952 89.7249 266.984 89.2663 267.048C88.8076 267.101 88.4449 267.187 88.1783 267.304C87.9223 267.411 87.7409 267.565 87.6343 267.768C87.5383 267.96 87.4903 268.189 87.4903 268.456C87.4903 268.957 87.6663 269.363 88.0183 269.672C88.3703 269.971 88.8396 270.12 89.4263 270.12C89.8636 270.12 90.2636 270.024 90.6263 269.832C90.9889 269.629 91.2716 269.341 91.4743 268.968C91.6876 268.595 91.7943 268.157 91.7943 267.656V265.272C91.7943 264.568 91.6289 264.072 91.2983 263.784C90.9783 263.496 90.4983 263.352 89.8583 263.352C89.3249 263.352 88.8183 263.427 88.3383 263.576C87.8583 263.725 87.3889 263.96 86.9303 264.28L86.4503 263.288C86.7489 263.064 87.0849 262.883 87.4583 262.744C87.8423 262.595 88.2423 262.483 88.6583 262.408C89.0743 262.323 89.4796 262.28 89.8743 262.28C90.5676 262.28 91.1489 262.387 91.6183 262.6C92.0983 262.803 92.4663 263.128 92.7223 263.576C92.9783 264.024 93.1063 264.616 93.1063 265.352V271H91.8263V269.096H92.0023C91.9063 269.501 91.7303 269.859 91.4743 270.168C91.2183 270.477 90.8983 270.723 90.5143 270.904C90.1303 271.075 89.6876 271.16 89.1863 271.16ZM95.4576 271V262.424H96.6416L99.8096 268.216L102.978 262.424H104.13V271H102.914V263.896H103.282L100.146 269.624H99.4576L96.3216 263.896H96.6736V271H95.4576Z" fill="#202020"/>
<path d="M25.2495 306.069L28.0795 303.242L42.2138 317.392L39.3838 320.219L25.2495 306.069ZM29.4858 301.827L32.3138 298.999L37.9715 304.655L35.1435 307.483L29.4858 301.827ZM20.999 310.315L23.8274 307.486L29.4843 313.143L26.6558 315.972L20.999 310.315ZM21.0001 319H33.0001V321H21.0001V319Z" fill="#202020"/>
<path d="M65.52 315V303.72H66.912V308.696H74.384V303.72H75.776V315H74.384V309.864H66.912V315H65.52ZM80.9769 315.16C80.3795 315.16 79.8462 315.043 79.3769 314.808C78.9182 314.573 78.5609 314.259 78.3049 313.864C78.0489 313.459 77.9209 313 77.9209 312.488C77.9209 311.923 78.0649 311.459 78.3529 311.096C78.6515 310.733 79.1529 310.467 79.8569 310.296C80.5609 310.115 81.5475 310.024 82.8169 310.024H83.8249V310.952H82.8489C82.1129 310.952 81.5155 310.984 81.0569 311.048C80.5982 311.101 80.2355 311.187 79.9689 311.304C79.7129 311.411 79.5315 311.565 79.4249 311.768C79.3289 311.96 79.2809 312.189 79.2809 312.456C79.2809 312.957 79.4569 313.363 79.8089 313.672C80.1609 313.971 80.6302 314.12 81.2169 314.12C81.6542 314.12 82.0542 314.024 82.4169 313.832C82.7795 313.629 83.0622 313.341 83.2649 312.968C83.4782 312.595 83.5849 312.157 83.5849 311.656V309.272C83.5849 308.568 83.4195 308.072 83.0889 307.784C82.7689 307.496 82.2889 307.352 81.6489 307.352C81.1155 307.352 80.6089 307.427 80.1289 307.576C79.6489 307.725 79.1795 307.96 78.7209 308.28L78.2409 307.288C78.5395 307.064 78.8755 306.883 79.2489 306.744C79.6329 306.595 80.0329 306.483 80.4489 306.408C80.8649 306.323 81.2702 306.28 81.6649 306.28C82.3582 306.28 82.9395 306.387 83.4089 306.6C83.8889 306.803 84.2569 307.128 84.5129 307.576C84.7689 308.024 84.8969 308.616 84.8969 309.352V315H83.6169V313.096H83.7929C83.6969 313.501 83.5209 313.859 83.2649 314.168C83.0089 314.477 82.6889 314.723 82.3049 314.904C81.9209 315.075 81.4782 315.16 80.9769 315.16ZM90.8003 315.144C89.9896 315.144 89.2749 314.973 88.6563 314.632C88.0483 314.28 87.5736 313.773 87.2323 313.112C86.9016 312.44 86.7363 311.624 86.7363 310.664C86.7363 309.683 86.9069 308.872 87.2483 308.232C87.6003 307.581 88.0803 307.096 88.6883 306.776C89.3069 306.445 90.0056 306.28 90.7843 306.28C91.3816 306.28 91.9363 306.381 92.4483 306.584C92.9603 306.776 93.3869 307.059 93.7283 307.432L93.1683 308.36C92.8483 308.029 92.4963 307.784 92.1123 307.624C91.7283 307.464 91.3176 307.384 90.8803 307.384C90.0376 307.384 89.3656 307.656 88.8643 308.2C88.3629 308.733 88.1123 309.56 88.1123 310.68C88.1123 311.779 88.3629 312.616 88.8643 313.192C89.3656 313.757 90.0376 314.04 90.8803 314.04C91.2749 314.04 91.6696 313.965 92.0643 313.816C92.4696 313.656 92.8376 313.4 93.1683 313.048L93.7283 313.976C93.3549 314.371 92.9123 314.664 92.4003 314.856C91.8883 315.048 91.3549 315.144 90.8003 315.144ZM95.0514 315V306.424H96.2994V313.736H95.8354L101.291 306.424H102.427V315H101.179V307.656H101.659L96.2194 315H95.0514ZM104.312 315.176L103.816 314.104C104.221 313.912 104.557 313.683 104.824 313.416C105.09 313.149 105.298 312.813 105.448 312.408C105.608 312.003 105.72 311.496 105.784 310.888C105.848 310.269 105.88 309.517 105.88 308.632V306.424H112.008V315H110.664V307.496H107.144V308.68C107.144 309.693 107.09 310.568 106.984 311.304C106.888 312.029 106.728 312.643 106.504 313.144C106.28 313.645 105.986 314.061 105.624 314.392C105.261 314.723 104.824 314.984 104.312 315.176ZM114.392 315V306.424H115.64V313.736H115.176L120.632 306.424H121.768V315H120.52V307.656H121L115.56 315H114.392ZM128.004 315.144C127.119 315.144 126.346 314.979 125.684 314.648C125.034 314.307 124.527 313.805 124.164 313.144C123.812 312.483 123.636 311.683 123.636 310.744C123.636 309.816 123.807 309.021 124.148 308.36C124.49 307.699 124.97 307.187 125.588 306.824C126.207 306.461 126.916 306.28 127.716 306.28C128.495 306.28 129.151 306.445 129.684 306.776C130.228 307.096 130.644 307.571 130.932 308.2C131.231 308.819 131.38 309.576 131.38 310.472V311H124.644V310.072H130.516L130.212 310.344C130.212 309.309 129.999 308.541 129.572 308.04C129.156 307.539 128.548 307.288 127.748 307.288C127.183 307.288 126.687 307.416 126.26 307.672C125.844 307.917 125.519 308.291 125.284 308.792C125.06 309.283 124.948 309.885 124.948 310.6V310.728C124.948 311.485 125.071 312.109 125.316 312.6C125.562 313.091 125.914 313.459 126.372 313.704C126.831 313.939 127.391 314.056 128.052 314.056C128.564 314.056 129.055 313.976 129.524 313.816C129.994 313.656 130.415 313.389 130.788 313.016L131.284 313.912C130.911 314.317 130.426 314.627 129.828 314.84C129.242 315.043 128.634 315.144 128.004 315.144Z" fill="#202020"/>
<path d="M31 347.5H28V346H28.5C29.05 346 29.5 345.55 29.5 345C29.5 344.45 29.05 344 28.5 344H25.5C24.95 344 24.5 344.45 24.5 345C24.5 345.55 24.95 346 25.5 346H26V347.5H23C22.45 347.5 22 347.95 22 348.5C22 349.05 22.45 349.5 23 349.5V357C23 358.1 23.9 359 25 359H26V363L28 364.5V359H29C30.1 359 31 358.1 31 357V349.5C31.55 349.5 32 349.05 32 348.5C32 347.95 31.55 347.5 31 347.5ZM29 351H27.25C26.84 351 26.5 351.34 26.5 351.75C26.5 352.16 26.84 352.5 27.25 352.5H29V354H27.25C26.84 354 26.5 354.34 26.5 354.75C26.5 355.16 26.84 355.5 27.25 355.5H29V357H25V349.5H29V351ZM39.5 352.5V352C40.05 352 40.5 351.55 40.5 351C40.5 350.45 40.05 350 39.5 350H34.5C33.95 350 33.5 350.45 33.5 351C33.5 351.55 33.95 352 34.5 352V352.5C34.5 353 33 353.66 33 355.5V362C33 363.1 33.9 364 35 364H39C40.1 364 41 363.1 41 362V355.5C41 353.66 39.5 353 39.5 352.5ZM36.5 352.5V352H37.5V352.5C37.5 354.1 39 354.5 39 355.5V356H35V355.5C35 354.5 36.5 354.1 36.5 352.5ZM35 362V360.5H39V362H35Z" fill="#202020"/>
<path d="M69.424 359.144C68.7413 359.144 68.1013 359.091 67.504 358.984C66.9173 358.867 66.384 358.701 65.904 358.488C65.4347 358.264 65.0293 358.003 64.688 357.704L65.216 356.648C65.76 357.085 66.368 357.411 67.04 357.624C67.712 357.837 68.4907 357.944 69.376 357.944C70.5067 357.944 71.3493 357.768 71.904 357.416C72.4587 357.064 72.736 356.536 72.736 355.832C72.736 355.171 72.5013 354.675 72.032 354.344C71.5627 354.013 70.848 353.848 69.888 353.848H66.864V352.728H69.696C70.5707 352.728 71.2427 352.557 71.712 352.216C72.1813 351.864 72.416 351.373 72.416 350.744C72.416 350.115 72.16 349.629 71.648 349.288C71.1467 348.947 70.3947 348.776 69.392 348.776C68.624 348.776 67.9147 348.883 67.264 349.096C66.6133 349.299 66.032 349.613 65.52 350.04L64.992 349C65.3333 348.691 65.7333 348.429 66.192 348.216C66.6613 348.003 67.1733 347.843 67.728 347.736C68.2933 347.629 68.8747 347.576 69.472 347.576C70.4213 347.576 71.216 347.699 71.856 347.944C72.496 348.189 72.9813 348.536 73.312 348.984C73.6427 349.432 73.808 349.971 73.808 350.6C73.808 351.293 73.5893 351.885 73.152 352.376C72.7147 352.856 72.1173 353.176 71.36 353.336V353.112C72.224 353.229 72.896 353.533 73.376 354.024C73.8667 354.504 74.112 355.128 74.112 355.896C74.112 356.568 73.936 357.149 73.584 357.64C73.232 358.131 72.7093 358.504 72.016 358.76C71.3227 359.016 70.4587 359.144 69.424 359.144ZM78.8831 359.16C78.2858 359.16 77.7525 359.043 77.2831 358.808C76.8245 358.573 76.4671 358.259 76.2111 357.864C75.9551 357.459 75.8271 357 75.8271 356.488C75.8271 355.923 75.9711 355.459 76.2591 355.096C76.5578 354.733 77.0591 354.467 77.7631 354.296C78.4671 354.115 79.4538 354.024 80.7231 354.024H81.7311V354.952H80.7551C80.0191 354.952 79.4218 354.984 78.9631 355.048C78.5045 355.101 78.1418 355.187 77.8751 355.304C77.6191 355.411 77.4378 355.565 77.3311 355.768C77.2351 355.96 77.1871 356.189 77.1871 356.456C77.1871 356.957 77.3631 357.363 77.7151 357.672C78.0671 357.971 78.5365 358.12 79.1231 358.12C79.5605 358.12 79.9605 358.024 80.3231 357.832C80.6858 357.629 80.9685 357.341 81.1711 356.968C81.3845 356.595 81.4911 356.157 81.4911 355.656V353.272C81.4911 352.568 81.3258 352.072 80.9951 351.784C80.6751 351.496 80.1951 351.352 79.5551 351.352C79.0218 351.352 78.5151 351.427 78.0351 351.576C77.5551 351.725 77.0858 351.96 76.6271 352.28L76.1471 351.288C76.4458 351.064 76.7818 350.883 77.1551 350.744C77.5391 350.595 77.9391 350.483 78.3551 350.408C78.7711 350.323 79.1765 350.28 79.5711 350.28C80.2645 350.28 80.8458 350.387 81.3151 350.6C81.7951 350.803 82.1631 351.128 82.4191 351.576C82.6751 352.024 82.8031 352.616 82.8031 353.352V359H81.5231V357.096H81.6991C81.6031 357.501 81.4271 357.859 81.1711 358.168C80.9151 358.477 80.5951 358.723 80.2111 358.904C79.8271 359.075 79.3845 359.16 78.8831 359.16ZM85.1545 359V350.424H92.5305V359H91.1865V351.496H86.4985V359H85.1545ZM94.9267 361.88V350.424H96.2547V352.44H96.0467C96.2387 351.747 96.6174 351.213 97.1827 350.84C97.7481 350.467 98.4147 350.28 99.1827 350.28C99.9401 350.28 100.601 350.451 101.167 350.792C101.743 351.133 102.185 351.635 102.495 352.296C102.804 352.947 102.959 353.752 102.959 354.712C102.959 355.651 102.799 356.451 102.479 357.112C102.169 357.773 101.732 358.28 101.167 358.632C100.612 358.973 99.9507 359.144 99.1827 359.144C98.4147 359.144 97.7481 358.957 97.1827 358.584C96.6281 358.2 96.2547 357.661 96.0627 356.968H96.2707V361.88H94.9267ZM98.9107 358.056C99.7214 358.056 100.367 357.779 100.847 357.224C101.337 356.669 101.583 355.832 101.583 354.712C101.583 353.571 101.337 352.728 100.847 352.184C100.367 351.64 99.7214 351.368 98.9107 351.368C98.1107 351.368 97.4654 351.64 96.9747 352.184C96.4841 352.728 96.2387 353.571 96.2387 354.712C96.2387 355.832 96.4841 356.669 96.9747 357.224C97.4654 357.779 98.1107 358.056 98.9107 358.056ZM108.679 359.144C107.794 359.144 107.021 358.979 106.359 358.648C105.709 358.307 105.202 357.805 104.839 357.144C104.487 356.483 104.311 355.683 104.311 354.744C104.311 353.816 104.482 353.021 104.823 352.36C105.165 351.699 105.645 351.187 106.263 350.824C106.882 350.461 107.591 350.28 108.391 350.28C109.17 350.28 109.826 350.445 110.359 350.776C110.903 351.096 111.319 351.571 111.607 352.2C111.906 352.819 112.055 353.576 112.055 354.472V355H105.319V354.072H111.191L110.887 354.344C110.887 353.309 110.674 352.541 110.247 352.04C109.831 351.539 109.223 351.288 108.423 351.288C107.858 351.288 107.362 351.416 106.935 351.672C106.519 351.917 106.194 352.291 105.959 352.792C105.735 353.283 105.623 353.885 105.623 354.6V354.728C105.623 355.485 105.746 356.109 105.991 356.6C106.237 357.091 106.589 357.459 107.047 357.704C107.506 357.939 108.066 358.056 108.727 358.056C109.239 358.056 109.73 357.976 110.199 357.816C110.669 357.656 111.09 357.389 111.463 357.016L111.959 357.912C111.586 358.317 111.101 358.627 110.503 358.84C109.917 359.043 109.309 359.144 108.679 359.144ZM125.126 361.08V359H113.83V350.424H115.126V357.928H118.742V350.424H120.038V357.928H123.654V350.424H124.95V357.928H126.294V361.08H125.126ZM131.629 359.144C130.744 359.144 129.971 358.979 129.309 358.648C128.659 358.307 128.152 357.805 127.789 357.144C127.437 356.483 127.261 355.683 127.261 354.744C127.261 353.816 127.432 353.021 127.773 352.36C128.115 351.699 128.595 351.187 129.213 350.824C129.832 350.461 130.541 350.28 131.341 350.28C132.12 350.28 132.776 350.445 133.309 350.776C133.853 351.096 134.269 351.571 134.557 352.2C134.856 352.819 135.005 353.576 135.005 354.472V355H128.269V354.072H134.141L133.837 354.344C133.837 353.309 133.624 352.541 133.197 352.04C132.781 351.539 132.173 351.288 131.373 351.288C130.808 351.288 130.312 351.416 129.885 351.672C129.469 351.917 129.144 352.291 128.909 352.792C128.685 353.283 128.573 353.885 128.573 354.6V354.728C128.573 355.485 128.696 356.109 128.941 356.6C129.187 357.091 129.539 357.459 129.997 357.704C130.456 357.939 131.016 358.056 131.677 358.056C132.189 358.056 132.68 357.976 133.149 357.816C133.619 357.656 134.04 357.389 134.413 357.016L134.909 357.912C134.536 358.317 134.051 358.627 133.453 358.84C132.867 359.043 132.259 359.144 131.629 359.144ZM132.157 348.808V347.384H133.629V348.808H132.157ZM129.117 348.808V347.384H130.589V348.808H129.117ZM136.779 359V350.424H138.123V354.024H142.859V350.424H144.203V359H142.859V355.112H138.123V359H136.779ZM146.583 359V350.424H147.927V354.024H152.663V350.424H154.007V359H152.663V355.112H147.927V359H146.583ZM156.386 359V350.424H157.73V353.528H160.258C161.399 353.528 162.247 353.757 162.802 354.216C163.356 354.675 163.634 355.347 163.634 356.232C163.634 356.829 163.506 357.336 163.25 357.752C163.004 358.157 162.631 358.467 162.13 358.68C161.628 358.893 161.004 359 160.258 359H156.386ZM157.73 358.04H160.162C160.898 358.04 161.442 357.896 161.794 357.608C162.156 357.309 162.338 356.856 162.338 356.248C162.338 355.64 162.156 355.192 161.794 354.904C161.442 354.616 160.898 354.472 160.162 354.472H157.73V358.04ZM164.93 359V350.424H166.274V359H164.93ZM172.529 359.144C171.644 359.144 170.871 358.979 170.209 358.648C169.559 358.307 169.052 357.805 168.689 357.144C168.337 356.483 168.161 355.683 168.161 354.744C168.161 353.816 168.332 353.021 168.673 352.36C169.015 351.699 169.495 351.187 170.113 350.824C170.732 350.461 171.441 350.28 172.241 350.28C173.02 350.28 173.676 350.445 174.209 350.776C174.753 351.096 175.169 351.571 175.457 352.2C175.756 352.819 175.905 353.576 175.905 354.472V355H169.169V354.072H175.041L174.737 354.344C174.737 353.309 174.524 352.541 174.097 352.04C173.681 351.539 173.073 351.288 172.273 351.288C171.708 351.288 171.212 351.416 170.785 351.672C170.369 351.917 170.044 352.291 169.809 352.792C169.585 353.283 169.473 353.885 169.473 354.6V354.728C169.473 355.485 169.596 356.109 169.841 356.6C170.087 357.091 170.439 357.459 170.897 357.704C171.356 357.939 171.916 358.056 172.577 358.056C173.089 358.056 173.58 357.976 174.049 357.816C174.519 357.656 174.94 357.389 175.313 357.016L175.809 357.912C175.436 358.317 174.951 358.627 174.353 358.84C173.767 359.043 173.159 359.144 172.529 359.144ZM181.733 359V350.424H185.797C186.447 350.424 186.991 350.509 187.429 350.68C187.877 350.84 188.213 351.085 188.437 351.416C188.661 351.747 188.773 352.163 188.773 352.664C188.773 353.219 188.586 353.683 188.213 354.056C187.839 354.419 187.359 354.637 186.773 354.712L186.789 354.504C187.247 354.515 187.642 354.616 187.973 354.808C188.314 354.989 188.581 355.235 188.773 355.544C188.965 355.853 189.061 356.216 189.061 356.632C189.061 357.368 188.783 357.949 188.229 358.376C187.685 358.792 186.922 359 185.941 359H181.733ZM183.013 358.088H185.829C186.458 358.088 186.938 357.96 187.269 357.704C187.599 357.448 187.765 357.075 187.765 356.584C187.765 356.093 187.599 355.72 187.269 355.464C186.938 355.208 186.458 355.08 185.829 355.08H183.013V358.088ZM183.013 354.168H185.653C186.25 354.168 186.703 354.045 187.013 353.8C187.322 353.555 187.477 353.203 187.477 352.744C187.477 352.285 187.322 351.939 187.013 351.704C186.703 351.459 186.25 351.336 185.653 351.336H183.013V354.168ZM194.704 359.144C193.819 359.144 193.046 358.979 192.384 358.648C191.734 358.307 191.227 357.805 190.864 357.144C190.512 356.483 190.336 355.683 190.336 354.744C190.336 353.816 190.507 353.021 190.848 352.36C191.19 351.699 191.67 351.187 192.288 350.824C192.907 350.461 193.616 350.28 194.416 350.28C195.195 350.28 195.851 350.445 196.384 350.776C196.928 351.096 197.344 351.571 197.632 352.2C197.931 352.819 198.08 353.576 198.08 354.472V355H191.344V354.072H197.216L196.912 354.344C196.912 353.309 196.699 352.541 196.272 352.04C195.856 351.539 195.248 351.288 194.448 351.288C193.883 351.288 193.387 351.416 192.96 351.672C192.544 351.917 192.219 352.291 191.984 352.792C191.76 353.283 191.648 353.885 191.648 354.6V354.728C191.648 355.485 191.771 356.109 192.016 356.6C192.262 357.091 192.614 357.459 193.072 357.704C193.531 357.939 194.091 358.056 194.752 358.056C195.264 358.056 195.755 357.976 196.224 357.816C196.694 357.656 197.115 357.389 197.488 357.016L197.984 357.912C197.611 358.317 197.126 358.627 196.528 358.84C195.942 359.043 195.334 359.144 194.704 359.144ZM211.15 361.08V359H199.854V350.424H201.15V357.928H204.766V350.424H206.062V357.928H209.678V350.424H210.974V357.928H212.318V361.08H211.15ZM217.654 359.144C216.769 359.144 215.996 358.979 215.334 358.648C214.684 358.307 214.177 357.805 213.814 357.144C213.462 356.483 213.286 355.683 213.286 354.744C213.286 353.816 213.457 353.021 213.798 352.36C214.14 351.699 214.62 351.187 215.238 350.824C215.857 350.461 216.566 350.28 217.366 350.28C218.145 350.28 218.801 350.445 219.334 350.776C219.878 351.096 220.294 351.571 220.582 352.2C220.881 352.819 221.03 353.576 221.03 354.472V355H214.294V354.072H220.166L219.862 354.344C219.862 353.309 219.649 352.541 219.222 352.04C218.806 351.539 218.198 351.288 217.398 351.288C216.833 351.288 216.337 351.416 215.91 351.672C215.494 351.917 215.169 352.291 214.934 352.792C214.71 353.283 214.598 353.885 214.598 354.6V354.728C214.598 355.485 214.721 356.109 214.966 356.6C215.212 357.091 215.564 357.459 216.022 357.704C216.481 357.939 217.041 358.056 217.702 358.056C218.214 358.056 218.705 357.976 219.174 357.816C219.644 357.656 220.065 357.389 220.438 357.016L220.934 357.912C220.561 358.317 220.076 358.627 219.478 358.84C218.892 359.043 218.284 359.144 217.654 359.144ZM226.357 359.144C225.546 359.144 224.831 358.973 224.213 358.632C223.605 358.28 223.13 357.773 222.789 357.112C222.458 356.44 222.293 355.624 222.293 354.664C222.293 353.683 222.463 352.872 222.805 352.232C223.157 351.581 223.637 351.096 224.245 350.776C224.863 350.445 225.562 350.28 226.341 350.28C226.938 350.28 227.493 350.381 228.005 350.584C228.517 350.776 228.943 351.059 229.285 351.432L228.725 352.36C228.405 352.029 228.053 351.784 227.669 351.624C227.285 351.464 226.874 351.384 226.437 351.384C225.594 351.384 224.922 351.656 224.421 352.2C223.919 352.733 223.669 353.56 223.669 354.68C223.669 355.779 223.919 356.616 224.421 357.192C224.922 357.757 225.594 358.04 226.437 358.04C226.831 358.04 227.226 357.965 227.621 357.816C228.026 357.656 228.394 357.4 228.725 357.048L229.285 357.976C228.911 358.371 228.469 358.664 227.957 358.856C227.445 359.048 226.911 359.144 226.357 359.144ZM232.384 359V351.496H229.28V350.424H236.848V351.496H233.728V359H232.384ZM237.911 359V350.424H241.975C242.625 350.424 243.169 350.509 243.607 350.68C244.055 350.84 244.391 351.085 244.615 351.416C244.839 351.747 244.951 352.163 244.951 352.664C244.951 353.219 244.764 353.683 244.391 354.056C244.017 354.419 243.537 354.637 242.951 354.712L242.967 354.504C243.425 354.515 243.82 354.616 244.151 354.808C244.492 354.989 244.759 355.235 244.951 355.544C245.143 355.853 245.239 356.216 245.239 356.632C245.239 357.368 244.961 357.949 244.407 358.376C243.863 358.792 243.1 359 242.119 359H237.911ZM239.191 358.088H242.007C242.636 358.088 243.116 357.96 243.447 357.704C243.777 357.448 243.943 357.075 243.943 356.584C243.943 356.093 243.777 355.72 243.447 355.464C243.116 355.208 242.636 355.08 242.007 355.08H239.191V358.088ZM239.191 354.168H241.831C242.428 354.168 242.881 354.045 243.191 353.8C243.5 353.555 243.655 353.203 243.655 352.744C243.655 352.285 243.5 351.939 243.191 351.704C242.881 351.459 242.428 351.336 241.831 351.336H239.191V354.168ZM249.714 359.16C249.117 359.16 248.584 359.043 248.114 358.808C247.656 358.573 247.298 358.259 247.042 357.864C246.786 357.459 246.658 357 246.658 356.488C246.658 355.923 246.802 355.459 247.09 355.096C247.389 354.733 247.89 354.467 248.594 354.296C249.298 354.115 250.285 354.024 251.554 354.024H252.562V354.952H251.586C250.85 354.952 250.253 354.984 249.794 355.048C249.336 355.101 248.973 355.187 248.706 355.304C248.45 355.411 248.269 355.565 248.162 355.768C248.066 355.96 248.018 356.189 248.018 356.456C248.018 356.957 248.194 357.363 248.546 357.672C248.898 357.971 249.368 358.12 249.954 358.12C250.392 358.12 250.792 358.024 251.154 357.832C251.517 357.629 251.8 357.341 252.002 356.968C252.216 356.595 252.322 356.157 252.322 355.656V353.272C252.322 352.568 252.157 352.072 251.826 351.784C251.506 351.496 251.026 351.352 250.386 351.352C249.853 351.352 249.346 351.427 248.866 351.576C248.386 351.725 247.917 351.96 247.458 352.28L246.978 351.288C247.277 351.064 247.613 350.883 247.986 350.744C248.37 350.595 248.77 350.483 249.186 350.408C249.602 350.323 250.008 350.28 250.402 350.28C251.096 350.28 251.677 350.387 252.146 350.6C252.626 350.803 252.994 351.128 253.25 351.576C253.506 352.024 253.634 352.616 253.634 353.352V359H252.354V357.096H252.53C252.434 357.501 252.258 357.859 252.002 358.168C251.746 358.477 251.426 358.723 251.042 358.904C250.658 359.075 250.216 359.16 249.714 359.16Z" fill="#202020"/>
<path d="M32.65 396C31.83 393.67 29.61 392 27 392C23.69 392 21 394.69 21 398C21 401.31 23.69 404 27 404C29.61 404 31.83 402.33 32.65 400H37V404H41V400H43V396H32.65ZM27 400C25.9 400 25 399.1 25 398C25 396.9 25.9 396 27 396C28.1 396 29 396.9 29 398C29 399.1 28.1 400 27 400Z" fill="#202020"/>
<path d="M65.52 403V391.72H70.448C71.3333 391.72 72.0747 391.853 72.672 392.12C73.2693 392.376 73.7227 392.755 74.032 393.256C74.3413 393.757 74.496 394.376 74.496 395.112C74.496 395.837 74.3413 396.456 74.032 396.968C73.7227 397.48 73.2693 397.869 72.672 398.136C72.0747 398.392 71.3333 398.52 70.448 398.52H66.912V403H65.52ZM66.912 397.384H70.304C71.2533 397.384 71.9573 397.197 72.416 396.824C72.8853 396.44 73.12 395.869 73.12 395.112C73.12 394.355 72.8853 393.789 72.416 393.416C71.9573 393.032 71.2533 392.84 70.304 392.84H66.912V397.384ZM78.5394 403.16C77.942 403.16 77.4087 403.043 76.9394 402.808C76.4807 402.573 76.1234 402.259 75.8674 401.864C75.6114 401.459 75.4834 401 75.4834 400.488C75.4834 399.923 75.6274 399.459 75.9154 399.096C76.214 398.733 76.7154 398.467 77.4194 398.296C78.1234 398.115 79.11 398.024 80.3794 398.024H81.3874V398.952H80.4114C79.6754 398.952 79.078 398.984 78.6194 399.048C78.1607 399.101 77.798 399.187 77.5314 399.304C77.2754 399.411 77.094 399.565 76.9874 399.768C76.8914 399.96 76.8434 400.189 76.8434 400.456C76.8434 400.957 77.0194 401.363 77.3714 401.672C77.7234 401.971 78.1927 402.12 78.7794 402.12C79.2167 402.12 79.6167 402.024 79.9794 401.832C80.342 401.629 80.6247 401.341 80.8274 400.968C81.0407 400.595 81.1474 400.157 81.1474 399.656V397.272C81.1474 396.568 80.982 396.072 80.6514 395.784C80.3314 395.496 79.8514 395.352 79.2114 395.352C78.678 395.352 78.1714 395.427 77.6914 395.576C77.2114 395.725 76.742 395.96 76.2834 396.28L75.8034 395.288C76.102 395.064 76.438 394.883 76.8114 394.744C77.1954 394.595 77.5954 394.483 78.0114 394.408C78.4274 394.323 78.8327 394.28 79.2274 394.28C79.9207 394.28 80.502 394.387 80.9714 394.6C81.4514 394.803 81.8194 395.128 82.0754 395.576C82.3314 396.024 82.4594 396.616 82.4594 397.352V403H81.1794V401.096H81.3554C81.2594 401.501 81.0834 401.859 80.8274 402.168C80.5714 402.477 80.2514 402.723 79.8674 402.904C79.4834 403.075 79.0407 403.16 78.5394 403.16ZM88.3628 403.144C87.5521 403.144 86.8374 402.973 86.2188 402.632C85.6108 402.28 85.1361 401.773 84.7948 401.112C84.4641 400.44 84.2988 399.624 84.2988 398.664C84.2988 397.683 84.4694 396.872 84.8108 396.232C85.1628 395.581 85.6428 395.096 86.2508 394.776C86.8694 394.445 87.5681 394.28 88.3468 394.28C88.9441 394.28 89.4988 394.381 90.0108 394.584C90.5228 394.776 90.9494 395.059 91.2908 395.432L90.7308 396.36C90.4108 396.029 90.0588 395.784 89.6748 395.624C89.2908 395.464 88.8801 395.384 88.4428 395.384C87.6001 395.384 86.9281 395.656 86.4268 396.2C85.9254 396.733 85.6748 397.56 85.6748 398.68C85.6748 399.779 85.9254 400.616 86.4268 401.192C86.9281 401.757 87.6001 402.04 88.4428 402.04C88.8374 402.04 89.2321 401.965 89.6268 401.816C90.0321 401.656 90.4001 401.4 90.7308 401.048L91.2908 401.976C90.9174 402.371 90.4748 402.664 89.9628 402.856C89.4508 403.048 88.9174 403.144 88.3628 403.144ZM92.6139 403V394.424H93.9579V398.024H95.5899L98.3899 394.424H99.9259L96.6939 398.568L96.3099 398.152C96.6192 398.195 96.8912 398.269 97.1259 398.376C97.3712 398.483 97.6059 398.659 97.8299 398.904C98.0539 399.149 98.2885 399.485 98.5339 399.912L100.342 403H98.8539L97.2539 400.232C97.0725 399.933 96.9019 399.704 96.7419 399.544C96.5819 399.373 96.3952 399.256 96.1819 399.192C95.9792 399.128 95.7232 399.096 95.4139 399.096H93.9579V403H92.6139ZM101.371 405.88V394.424H102.699V396.44H102.491C102.683 395.747 103.061 395.213 103.627 394.84C104.192 394.467 104.859 394.28 105.627 394.28C106.384 394.28 107.045 394.451 107.611 394.792C108.187 395.133 108.629 395.635 108.939 396.296C109.248 396.947 109.403 397.752 109.403 398.712C109.403 399.651 109.243 400.451 108.923 401.112C108.613 401.773 108.176 402.28 107.611 402.632C107.056 402.973 106.395 403.144 105.627 403.144C104.859 403.144 104.192 402.957 103.627 402.584C103.072 402.2 102.699 401.661 102.507 400.968H102.715V405.88H101.371ZM105.355 402.056C106.165 402.056 106.811 401.779 107.291 401.224C107.781 400.669 108.027 399.832 108.027 398.712C108.027 397.571 107.781 396.728 107.291 396.184C106.811 395.64 106.165 395.368 105.355 395.368C104.555 395.368 103.909 395.64 103.419 396.184C102.928 396.728 102.683 397.571 102.683 398.712C102.683 399.832 102.928 400.669 103.419 401.224C103.909 401.779 104.555 402.056 105.355 402.056ZM111.267 403V394.424H112.611V397.528H115.139C116.28 397.528 117.128 397.757 117.683 398.216C118.238 398.675 118.515 399.347 118.515 400.232C118.515 400.829 118.387 401.336 118.131 401.752C117.886 402.157 117.512 402.467 117.011 402.68C116.51 402.893 115.886 403 115.139 403H111.267ZM112.611 402.04H115.043C115.779 402.04 116.323 401.896 116.675 401.608C117.038 401.309 117.219 400.856 117.219 400.248C117.219 399.64 117.038 399.192 116.675 398.904C116.323 398.616 115.779 398.472 115.043 398.472H112.611V402.04ZM119.811 403V394.424H121.155V403H119.811ZM125.33 403V395.496H122.226V394.424H129.794V395.496H126.674V403H125.33ZM130.858 403V394.424H132.106V401.736H131.642L137.098 394.424H138.234V403H136.986V395.656H137.466L132.026 403H130.858ZM144.47 403.144C143.585 403.144 142.811 402.979 142.15 402.648C141.499 402.307 140.993 401.805 140.63 401.144C140.278 400.483 140.102 399.683 140.102 398.744C140.102 397.816 140.273 397.021 140.614 396.36C140.955 395.699 141.435 395.187 142.054 394.824C142.673 394.461 143.382 394.28 144.182 394.28C144.961 394.28 145.617 394.445 146.15 394.776C146.694 395.096 147.11 395.571 147.398 396.2C147.697 396.819 147.846 397.576 147.846 398.472V399H141.11V398.072H146.982L146.678 398.344C146.678 397.309 146.465 396.541 146.038 396.04C145.622 395.539 145.014 395.288 144.214 395.288C143.649 395.288 143.153 395.416 142.726 395.672C142.31 395.917 141.985 396.291 141.75 396.792C141.526 397.283 141.414 397.885 141.414 398.6V398.728C141.414 399.485 141.537 400.109 141.782 400.6C142.027 401.091 142.379 401.459 142.838 401.704C143.297 401.939 143.857 402.056 144.518 402.056C145.03 402.056 145.521 401.976 145.99 401.816C146.459 401.656 146.881 401.389 147.254 401.016L147.75 401.912C147.377 402.317 146.891 402.627 146.294 402.84C145.707 403.043 145.099 403.144 144.47 403.144ZM153.177 403.176L152.681 402.104C153.087 401.912 153.423 401.683 153.689 401.416C153.956 401.149 154.164 400.813 154.313 400.408C154.473 400.003 154.585 399.496 154.649 398.888C154.713 398.269 154.745 397.517 154.745 396.632V394.424H160.873V403H159.529V395.496H156.009V396.68C156.009 397.693 155.956 398.568 155.849 399.304C155.753 400.029 155.593 400.643 155.369 401.144C155.145 401.645 154.852 402.061 154.489 402.392C154.127 402.723 153.689 402.984 153.177 403.176ZM163.258 403V394.424H164.506V401.736H164.042L169.498 394.424H170.634V403H169.386V395.656H169.866L164.426 403H163.258ZM178.502 403V399.544C178.171 399.725 177.809 399.864 177.414 399.96C177.03 400.056 176.619 400.104 176.182 400.104C175.382 400.104 174.721 399.987 174.198 399.752C173.675 399.507 173.286 399.149 173.03 398.68C172.785 398.2 172.662 397.597 172.662 396.872V394.424H174.006V396.776C174.006 397.299 174.091 397.725 174.262 398.056C174.443 398.376 174.705 398.611 175.046 398.76C175.398 398.909 175.841 398.984 176.374 398.984C176.779 398.984 177.153 398.941 177.494 398.856C177.835 398.76 178.166 398.616 178.486 398.424V394.424H179.83V403H178.502ZM182.208 403V394.424H183.552V398.024H188.288V394.424H189.632V403H188.288V399.112H183.552V403H182.208ZM192.011 403V394.424H193.355V397.528H195.883C197.024 397.528 197.872 397.757 198.427 398.216C198.981 398.675 199.259 399.347 199.259 400.232C199.259 400.829 199.131 401.336 198.875 401.752C198.629 402.157 198.256 402.467 197.755 402.68C197.253 402.893 196.629 403 195.883 403H192.011ZM193.355 402.04H195.787C196.523 402.04 197.067 401.896 197.419 401.608C197.781 401.309 197.963 400.856 197.963 400.248C197.963 399.64 197.781 399.192 197.419 398.904C197.067 398.616 196.523 398.472 195.787 398.472H193.355V402.04ZM200.555 403V394.424H201.899V403H200.555ZM203.226 403L207.002 398.216V398.904L203.45 394.424H205.066L207.786 397.944H207.338L210.074 394.424H211.658L208.122 398.872V398.28L211.866 403H210.218L207.306 399.24H207.754L204.826 403H203.226ZM216.273 405.08V401.912H217.153C217.441 401.517 217.665 401.08 217.825 400.6C217.996 400.12 218.118 399.581 218.193 398.984C218.278 398.387 218.321 397.72 218.321 396.984V394.424H224.289V401.912H225.649V405.08H224.481V403H217.441V405.08H216.273ZM218.481 401.912H223.009V395.48H219.521V397.176C219.521 398.093 219.43 398.968 219.249 399.8C219.068 400.632 218.812 401.336 218.481 401.912ZM229.786 403.16C229.189 403.16 228.656 403.043 228.186 402.808C227.728 402.573 227.37 402.259 227.114 401.864C226.858 401.459 226.73 401 226.73 400.488C226.73 399.923 226.874 399.459 227.162 399.096C227.461 398.733 227.962 398.467 228.666 398.296C229.37 398.115 230.357 398.024 231.626 398.024H232.634V398.952H231.658C230.922 398.952 230.325 398.984 229.866 399.048C229.408 399.101 229.045 399.187 228.778 399.304C228.522 399.411 228.341 399.565 228.234 399.768C228.138 399.96 228.09 400.189 228.09 400.456C228.09 400.957 228.266 401.363 228.618 401.672C228.97 401.971 229.44 402.12 230.026 402.12C230.464 402.12 230.864 402.024 231.226 401.832C231.589 401.629 231.872 401.341 232.074 400.968C232.288 400.595 232.394 400.157 232.394 399.656V397.272C232.394 396.568 232.229 396.072 231.898 395.784C231.578 395.496 231.098 395.352 230.458 395.352C229.925 395.352 229.418 395.427 228.938 395.576C228.458 395.725 227.989 395.96 227.53 396.28L227.05 395.288C227.349 395.064 227.685 394.883 228.058 394.744C228.442 394.595 228.842 394.483 229.258 394.408C229.674 394.323 230.08 394.28 230.474 394.28C231.168 394.28 231.749 394.387 232.218 394.6C232.698 394.803 233.066 395.128 233.322 395.576C233.578 396.024 233.706 396.616 233.706 397.352V403H232.426V401.096H232.602C232.506 401.501 232.33 401.859 232.074 402.168C231.818 402.477 231.498 402.723 231.114 402.904C230.73 403.075 230.288 403.16 229.786 403.16ZM236.058 403V394.424H237.402V398.024H242.138V394.424H243.482V403H242.138V399.112H237.402V403H236.058ZM245.861 403V394.424H247.205V398.024H251.941V394.424H253.285V403H251.941V399.112H247.205V403H245.861ZM255.664 403V394.424H257.008V397.528H259.536C260.677 397.528 261.525 397.757 262.08 398.216C262.635 398.675 262.912 399.347 262.912 400.232C262.912 400.829 262.784 401.336 262.528 401.752C262.283 402.157 261.909 402.467 261.408 402.68C260.907 402.893 260.283 403 259.536 403H255.664ZM257.008 402.04H259.44C260.176 402.04 260.72 401.896 261.072 401.608C261.435 401.309 261.616 400.856 261.616 400.248C261.616 399.64 261.435 399.192 261.072 398.904C260.72 398.616 260.176 398.472 259.44 398.472H257.008V402.04ZM264.208 403V394.424H265.552V403H264.208ZM266.879 403L270.655 398.216V398.904L267.103 394.424H268.719L271.439 397.944H270.991L273.727 394.424H275.311L271.775 398.872V398.28L275.519 403H273.871L270.959 399.24H271.407L268.479 403H266.879Z" fill="#202020"/>
<path d="M32 432C26.48 432 22 436.48 22 442C22 447.52 26.48 452 32 452C37.52 452 42 447.52 42 442C42 436.48 37.52 432 32 432ZM24 442C24 440.15 24.63 438.46 25.69 437.1L27.59 439H30.42L27.1 435.69C28.46 434.63 30.15 434 32 434C36.41 434 40 437.59 40 442C40 443.85 39.37 445.54 38.31 446.9L36.41 445H33.58L36.89 448.31C35.54 449.37 33.85 450 32 450C27.59 450 24 446.41 24 442Z" fill="#202020"/>
<path d="M34.25 444L32.75 442L34.25 440H32.75L32 441L31.25 440H29.75L31.25 442L29.75 444H31.25L32 443L32.75 444H34.25ZM28 440L27.25 441L26.5 440H25L26.5 442L25 444H26.5L27.25 443L28 444H29.5L28 442L29.5 440H28ZM36 444L36.75 443L37.5 444H39L37.5 442L39 440H37.5L36.75 441L36 440H34.5L36 442L34.5 444H36Z" fill="#202020"/>
<path d="M65.52 447V435.72H75.68V447H74.304V436.888H66.912V447H65.52ZM81.7308 447.144C80.9201 447.144 80.2108 446.973 79.6028 446.632C78.9948 446.28 78.5254 445.773 78.1948 445.112C77.8641 444.451 77.6988 443.651 77.6988 442.712C77.6988 441.752 77.8641 440.947 78.1948 440.296C78.5254 439.635 78.9948 439.133 79.6028 438.792C80.2108 438.451 80.9201 438.28 81.7308 438.28C82.5628 438.28 83.2774 438.451 83.8748 438.792C84.4828 439.133 84.9521 439.635 85.2828 440.296C85.6134 440.947 85.7788 441.752 85.7788 442.712C85.7788 443.651 85.6134 444.451 85.2828 445.112C84.9521 445.773 84.4828 446.28 83.8748 446.632C83.2774 446.973 82.5628 447.144 81.7308 447.144ZM81.7308 446.056C82.5414 446.056 83.1868 445.779 83.6668 445.224C84.1574 444.669 84.4028 443.827 84.4028 442.696C84.4028 441.565 84.1574 440.728 83.6668 440.184C83.1868 439.64 82.5414 439.368 81.7308 439.368C80.9201 439.368 80.2694 439.64 79.7788 440.184C79.2988 440.728 79.0588 441.565 79.0588 442.696C79.0588 443.827 79.2988 444.669 79.7788 445.224C80.2694 445.779 80.9201 446.056 81.7308 446.056ZM87.6705 449.88V438.424H88.9985V440.44H88.7905C88.9825 439.747 89.3612 439.213 89.9265 438.84C90.4918 438.467 91.1585 438.28 91.9265 438.28C92.6838 438.28 93.3452 438.451 93.9105 438.792C94.4865 439.133 94.9292 439.635 95.2385 440.296C95.5478 440.947 95.7025 441.752 95.7025 442.712C95.7025 443.651 95.5425 444.451 95.2225 445.112C94.9132 445.773 94.4758 446.28 93.9105 446.632C93.3558 446.973 92.6945 447.144 91.9265 447.144C91.1585 447.144 90.4918 446.957 89.9265 446.584C89.3718 446.2 88.9985 445.661 88.8065 444.968H89.0145V449.88H87.6705ZM91.6545 446.056C92.4652 446.056 93.1105 445.779 93.5905 445.224C94.0812 444.669 94.3265 443.832 94.3265 442.712C94.3265 441.571 94.0812 440.728 93.5905 440.184C93.1105 439.64 92.4652 439.368 91.6545 439.368C90.8545 439.368 90.2092 439.64 89.7185 440.184C89.2278 440.728 88.9825 441.571 88.9825 442.712C88.9825 443.832 89.2278 444.669 89.7185 445.224C90.2092 445.779 90.8545 446.056 91.6545 446.056ZM97.567 447V438.424H98.911V442.024H103.647V438.424H104.991V447H103.647V443.112H98.911V447H97.567ZM110.89 447.144C110.079 447.144 109.37 446.973 108.762 446.632C108.154 446.28 107.685 445.773 107.354 445.112C107.023 444.451 106.858 443.651 106.858 442.712C106.858 441.752 107.023 440.947 107.354 440.296C107.685 439.635 108.154 439.133 108.762 438.792C109.37 438.451 110.079 438.28 110.89 438.28C111.722 438.28 112.437 438.451 113.034 438.792C113.642 439.133 114.111 439.635 114.442 440.296C114.773 440.947 114.938 441.752 114.938 442.712C114.938 443.651 114.773 444.451 114.442 445.112C114.111 445.773 113.642 446.28 113.034 446.632C112.437 446.973 111.722 447.144 110.89 447.144ZM110.89 446.056C111.701 446.056 112.346 445.779 112.826 445.224C113.317 444.669 113.562 443.827 113.562 442.696C113.562 441.565 113.317 440.728 112.826 440.184C112.346 439.64 111.701 439.368 110.89 439.368C110.079 439.368 109.429 439.64 108.938 440.184C108.458 440.728 108.218 441.565 108.218 442.696C108.218 443.827 108.458 444.669 108.938 445.224C109.429 445.779 110.079 446.056 110.89 446.056ZM116.814 447V438.424H122.75V439.496H118.158V447H116.814ZM123.977 449.88V438.424H125.305V440.44H125.097C125.289 439.747 125.667 439.213 126.233 438.84C126.798 438.467 127.465 438.28 128.233 438.28C128.99 438.28 129.651 438.451 130.217 438.792C130.793 439.133 131.235 439.635 131.545 440.296C131.854 440.947 132.009 441.752 132.009 442.712C132.009 443.651 131.849 444.451 131.529 445.112C131.219 445.773 130.782 446.28 130.217 446.632C129.662 446.973 129.001 447.144 128.233 447.144C127.465 447.144 126.798 446.957 126.233 446.584C125.678 446.2 125.305 445.661 125.113 444.968H125.321V449.88H123.977ZM127.961 446.056C128.771 446.056 129.417 445.779 129.897 445.224C130.387 444.669 130.633 443.832 130.633 442.712C130.633 441.571 130.387 440.728 129.897 440.184C129.417 439.64 128.771 439.368 127.961 439.368C127.161 439.368 126.515 439.64 126.025 440.184C125.534 440.728 125.289 441.571 125.289 442.712C125.289 443.832 125.534 444.669 126.025 445.224C126.515 445.779 127.161 446.056 127.961 446.056ZM136.561 447.16C135.964 447.16 135.431 447.043 134.961 446.808C134.503 446.573 134.145 446.259 133.889 445.864C133.633 445.459 133.505 445 133.505 444.488C133.505 443.923 133.649 443.459 133.937 443.096C134.236 442.733 134.737 442.467 135.441 442.296C136.145 442.115 137.132 442.024 138.401 442.024H139.409V442.952H138.433C137.697 442.952 137.1 442.984 136.641 443.048C136.183 443.101 135.82 443.187 135.553 443.304C135.297 443.411 135.116 443.565 135.009 443.768C134.913 443.96 134.865 444.189 134.865 444.456C134.865 444.957 135.041 445.363 135.393 445.672C135.745 445.971 136.215 446.12 136.801 446.12C137.239 446.12 137.639 446.024 138.001 445.832C138.364 445.629 138.647 445.341 138.849 444.968C139.063 444.595 139.169 444.157 139.169 443.656V441.272C139.169 440.568 139.004 440.072 138.673 439.784C138.353 439.496 137.873 439.352 137.233 439.352C136.7 439.352 136.193 439.427 135.713 439.576C135.233 439.725 134.764 439.96 134.305 440.28L133.825 439.288C134.124 439.064 134.46 438.883 134.833 438.744C135.217 438.595 135.617 438.483 136.033 438.408C136.449 438.323 136.855 438.28 137.249 438.28C137.943 438.28 138.524 438.387 138.993 438.6C139.473 438.803 139.841 439.128 140.097 439.576C140.353 440.024 140.481 440.616 140.481 441.352V447H139.201V445.096H139.377C139.281 445.501 139.105 445.859 138.849 446.168C138.593 446.477 138.273 446.723 137.889 446.904C137.505 447.075 137.063 447.16 136.561 447.16ZM147.681 449.88V445.112H147.857C147.675 445.752 147.371 446.253 146.945 446.616C146.529 446.968 146.011 447.144 145.393 447.144C144.774 447.144 144.235 446.963 143.777 446.6C143.318 446.237 142.961 445.725 142.705 445.064C142.449 444.392 142.321 443.608 142.321 442.712C142.321 441.805 142.449 441.021 142.705 440.36C142.961 439.699 143.318 439.187 143.777 438.824C144.235 438.461 144.774 438.28 145.393 438.28C146.011 438.28 146.529 438.456 146.945 438.808C147.371 439.16 147.675 439.661 147.857 440.312H147.681V435.72H149.025V440.312H148.849C149.041 439.661 149.345 439.16 149.761 438.808C150.187 438.456 150.705 438.28 151.313 438.28C151.931 438.28 152.47 438.461 152.929 438.824C153.398 439.187 153.755 439.699 154.001 440.36C154.257 441.021 154.385 441.805 154.385 442.712C154.385 443.608 154.257 444.392 154.001 445.064C153.755 445.725 153.403 446.237 152.945 446.6C152.486 446.963 151.942 447.144 151.313 447.144C150.705 447.144 150.187 446.968 149.761 446.616C149.345 446.253 149.041 445.752 148.849 445.112H149.025V449.88H147.681ZM145.713 446.072C146.129 446.072 146.481 445.944 146.769 445.688C147.067 445.421 147.297 445.037 147.457 444.536C147.627 444.035 147.713 443.427 147.713 442.712C147.713 441.997 147.633 441.389 147.473 440.888C147.313 440.387 147.083 440.008 146.785 439.752C146.486 439.485 146.129 439.352 145.713 439.352C145.094 439.352 144.598 439.645 144.225 440.232C143.862 440.819 143.681 441.645 143.681 442.712C143.681 443.789 143.862 444.621 144.225 445.208C144.587 445.784 145.083 446.072 145.713 446.072ZM150.993 446.072C151.622 446.072 152.118 445.784 152.481 445.208C152.854 444.621 153.041 443.789 153.041 442.712C153.041 441.645 152.854 440.819 152.481 440.232C152.118 439.645 151.622 439.352 150.993 439.352C150.587 439.352 150.235 439.485 149.937 439.752C149.638 440.008 149.409 440.387 149.249 440.888C149.089 441.389 149.009 441.997 149.009 442.712C149.009 443.427 149.089 444.035 149.249 444.536C149.409 445.037 149.638 445.421 149.937 445.688C150.235 445.944 150.587 446.072 150.993 446.072ZM156.261 447V438.424H157.509V445.736H157.045L162.501 438.424H163.637V447H162.389V439.656H162.869L157.429 447H156.261ZM165.329 447L166.721 444.568C166.934 444.195 167.196 443.901 167.505 443.688C167.825 443.475 168.182 443.368 168.577 443.368H168.865L168.833 443.512C168.182 443.512 167.622 443.416 167.153 443.224C166.684 443.032 166.321 442.744 166.065 442.36C165.82 441.976 165.697 441.507 165.697 440.952C165.697 440.12 165.969 439.491 166.513 439.064C167.057 438.637 167.83 438.424 168.833 438.424H172.593V447H171.329V443.688H170.033C169.553 443.688 169.158 443.8 168.849 444.024C168.54 444.237 168.262 444.547 168.017 444.952L166.865 447H165.329ZM169.025 442.728H171.329V439.368H169.025C168.353 439.368 167.846 439.512 167.505 439.8C167.174 440.088 167.009 440.499 167.009 441.032C167.009 441.576 167.18 441.997 167.521 442.296C167.862 442.584 168.364 442.728 169.025 442.728Z" fill="#202020"/>
<path d="M31.88 483.14C33.16 483.2 33.49 484.29 33.51 484.8H35.3C35.22 482.82 33.81 481.61 31.85 481.61C29.64 481.61 28 483 28 486.14C28 488.08 28.93 490.38 31.84 490.38C34.06 490.38 35.25 488.73 35.28 487.43H33.49C33.46 488.02 33.04 488.81 31.86 488.87C30.55 488.83 30 487.81 30 486.14C30 483.25 31.28 483.16 31.88 483.14ZM32 476C26.48 476 22 480.48 22 486C22 491.52 26.48 496 32 496C37.52 496 42 491.52 42 486C42 480.48 37.52 476 32 476ZM32 494C27.59 494 24 490.41 24 486C24 481.59 27.59 478 32 478C36.41 478 40 481.59 40 486C40 490.41 36.41 494 32 494Z" fill="#202020"/>
<path d="M64.336 491L69.76 479.72H70.96L76.384 491H74.944L73.424 487.784L74.112 488.136H66.576L67.264 487.784L65.76 491H64.336ZM70.336 481.224L67.504 487.32L67.072 487.016H73.616L73.2 487.32L70.368 481.224H70.336ZM77.6951 491V482.424H81.7591C82.4098 482.424 82.9538 482.509 83.3911 482.68C83.8391 482.84 84.1751 483.085 84.3991 483.416C84.6231 483.747 84.7351 484.163 84.7351 484.664C84.7351 485.219 84.5485 485.683 84.1751 486.056C83.8018 486.419 83.3218 486.637 82.7351 486.712L82.7511 486.504C83.2098 486.515 83.6045 486.616 83.9351 486.808C84.2765 486.989 84.5431 487.235 84.7351 487.544C84.9271 487.853 85.0231 488.216 85.0231 488.632C85.0231 489.368 84.7458 489.949 84.1911 490.376C83.6471 490.792 82.8845 491 81.9031 491H77.6951ZM78.9751 490.088H81.7911C82.4205 490.088 82.9005 489.96 83.2311 489.704C83.5618 489.448 83.7271 489.075 83.7271 488.584C83.7271 488.093 83.5618 487.72 83.2311 487.464C82.9005 487.208 82.4205 487.08 81.7911 487.08H78.9751V490.088ZM78.9751 486.168H81.6151C82.2125 486.168 82.6658 486.045 82.9751 485.8C83.2845 485.555 83.4391 485.203 83.4391 484.744C83.4391 484.285 83.2845 483.939 82.9751 483.704C82.6658 483.459 82.2125 483.336 81.6151 483.336H78.9751V486.168ZM88.7586 491V483.496H85.6546V482.424H93.2226V483.496H90.1026V491H88.7586ZM97.7745 491.144C96.9638 491.144 96.2545 490.973 95.6465 490.632C95.0385 490.28 94.5692 489.773 94.2385 489.112C93.9078 488.451 93.7425 487.651 93.7425 486.712C93.7425 485.752 93.9078 484.947 94.2385 484.296C94.5692 483.635 95.0385 483.133 95.6465 482.792C96.2545 482.451 96.9638 482.28 97.7745 482.28C98.6065 482.28 99.3212 482.451 99.9185 482.792C100.526 483.133 100.996 483.635 101.326 484.296C101.657 484.947 101.822 485.752 101.822 486.712C101.822 487.651 101.657 488.451 101.326 489.112C100.996 489.773 100.526 490.28 99.9185 490.632C99.3212 490.973 98.6065 491.144 97.7745 491.144ZM97.7745 490.056C98.5852 490.056 99.2305 489.779 99.7105 489.224C100.201 488.669 100.446 487.827 100.446 486.696C100.446 485.565 100.201 484.728 99.7105 484.184C99.2305 483.64 98.5852 483.368 97.7745 483.368C96.9638 483.368 96.3132 483.64 95.8225 484.184C95.3425 484.728 95.1025 485.565 95.1025 486.696C95.1025 487.827 95.3425 488.669 95.8225 489.224C96.3132 489.779 96.9638 490.056 97.7745 490.056ZM103.714 493.88V482.424H105.042V484.44H104.834C105.026 483.747 105.405 483.213 105.97 482.84C106.536 482.467 107.202 482.28 107.97 482.28C108.728 482.28 109.389 482.451 109.954 482.792C110.53 483.133 110.973 483.635 111.282 484.296C111.592 484.947 111.746 485.752 111.746 486.712C111.746 487.651 111.586 488.451 111.266 489.112C110.957 489.773 110.52 490.28 109.954 490.632C109.4 490.973 108.738 491.144 107.97 491.144C107.202 491.144 106.536 490.957 105.97 490.584C105.416 490.2 105.042 489.661 104.85 488.968H105.058V493.88H103.714ZM107.698 490.056C108.509 490.056 109.154 489.779 109.634 489.224C110.125 488.669 110.37 487.832 110.37 486.712C110.37 485.571 110.125 484.728 109.634 484.184C109.154 483.64 108.509 483.368 107.698 483.368C106.898 483.368 106.253 483.64 105.762 484.184C105.272 484.728 105.026 485.571 105.026 486.712C105.026 487.832 105.272 488.669 105.762 489.224C106.253 489.779 106.898 490.056 107.698 490.056ZM117.163 491.144C116.352 491.144 115.637 490.973 115.019 490.632C114.411 490.28 113.936 489.773 113.595 489.112C113.264 488.44 113.099 487.624 113.099 486.664C113.099 485.683 113.269 484.872 113.611 484.232C113.963 483.581 114.443 483.096 115.051 482.776C115.669 482.445 116.368 482.28 117.147 482.28C117.744 482.28 118.299 482.381 118.811 482.584C119.323 482.776 119.749 483.059 120.091 483.432L119.531 484.36C119.211 484.029 118.859 483.784 118.475 483.624C118.091 483.464 117.68 483.384 117.243 483.384C116.4 483.384 115.728 483.656 115.227 484.2C114.725 484.733 114.475 485.56 114.475 486.68C114.475 487.779 114.725 488.616 115.227 489.192C115.728 489.757 116.4 490.04 117.243 490.04C117.637 490.04 118.032 489.965 118.427 489.816C118.832 489.656 119.2 489.4 119.531 489.048L120.091 489.976C119.717 490.371 119.275 490.664 118.763 490.856C118.251 491.048 117.717 491.144 117.163 491.144ZM121.414 491V482.424H122.758V486.024H124.39L127.19 482.424H128.726L125.494 486.568L125.11 486.152C125.419 486.195 125.691 486.269 125.926 486.376C126.171 486.483 126.406 486.659 126.63 486.904C126.854 487.149 127.089 487.485 127.334 487.912L129.142 491H127.654L126.054 488.232C125.873 487.933 125.702 487.704 125.542 487.544C125.382 487.373 125.195 487.256 124.982 487.192C124.779 487.128 124.523 487.096 124.214 487.096H122.758V491H121.414ZM133.674 491.144C132.864 491.144 132.154 490.973 131.546 490.632C130.938 490.28 130.469 489.773 130.138 489.112C129.808 488.451 129.642 487.651 129.642 486.712C129.642 485.752 129.808 484.947 130.138 484.296C130.469 483.635 130.938 483.133 131.546 482.792C132.154 482.451 132.864 482.28 133.674 482.28C134.506 482.28 135.221 482.451 135.818 482.792C136.426 483.133 136.896 483.635 137.226 484.296C137.557 484.947 137.722 485.752 137.722 486.712C137.722 487.651 137.557 488.451 137.226 489.112C136.896 489.773 136.426 490.28 135.818 490.632C135.221 490.973 134.506 491.144 133.674 491.144ZM133.674 490.056C134.485 490.056 135.13 489.779 135.61 489.224C136.101 488.669 136.346 487.827 136.346 486.696C136.346 485.565 136.101 484.728 135.61 484.184C135.13 483.64 134.485 483.368 133.674 483.368C132.864 483.368 132.213 483.64 131.722 484.184C131.242 484.728 131.002 485.565 131.002 486.696C131.002 487.827 131.242 488.669 131.722 489.224C132.213 489.779 132.864 490.056 133.674 490.056ZM143.454 491.144C142.569 491.144 141.796 490.979 141.134 490.648C140.484 490.307 139.977 489.805 139.614 489.144C139.262 488.483 139.086 487.683 139.086 486.744C139.086 485.816 139.257 485.021 139.598 484.36C139.94 483.699 140.42 483.187 141.038 482.824C141.657 482.461 142.366 482.28 143.166 482.28C143.945 482.28 144.601 482.445 145.134 482.776C145.678 483.096 146.094 483.571 146.382 484.2C146.681 484.819 146.83 485.576 146.83 486.472V487H140.094V486.072H145.966L145.662 486.344C145.662 485.309 145.449 484.541 145.022 484.04C144.606 483.539 143.998 483.288 143.198 483.288C142.633 483.288 142.137 483.416 141.71 483.672C141.294 483.917 140.969 484.291 140.734 484.792C140.51 485.283 140.398 485.885 140.398 486.6V486.728C140.398 487.485 140.521 488.109 140.766 488.6C141.012 489.091 141.364 489.459 141.822 489.704C142.281 489.939 142.841 490.056 143.502 490.056C144.014 490.056 144.505 489.976 144.974 489.816C145.444 489.656 145.865 489.389 146.238 489.016L146.734 489.912C146.361 490.317 145.876 490.627 145.278 490.84C144.692 491.043 144.084 491.144 143.454 491.144ZM152.658 491V482.424H160.034V491H158.69V483.496H154.002V491H152.658ZM162.43 493.88V482.424H163.758V484.44H163.55C163.742 483.747 164.121 483.213 164.686 482.84C165.251 482.467 165.918 482.28 166.686 482.28C167.443 482.28 168.105 482.451 168.67 482.792C169.246 483.133 169.689 483.635 169.998 484.296C170.307 484.947 170.462 485.752 170.462 486.712C170.462 487.651 170.302 488.451 169.982 489.112C169.673 489.773 169.235 490.28 168.67 490.632C168.115 490.973 167.454 491.144 166.686 491.144C165.918 491.144 165.251 490.957 164.686 490.584C164.131 490.2 163.758 489.661 163.566 488.968H163.774V493.88H162.43ZM166.414 490.056C167.225 490.056 167.87 489.779 168.35 489.224C168.841 488.669 169.086 487.832 169.086 486.712C169.086 485.571 168.841 484.728 168.35 484.184C167.87 483.64 167.225 483.368 166.414 483.368C165.614 483.368 164.969 483.64 164.478 484.184C163.987 484.728 163.742 485.571 163.742 486.712C163.742 487.832 163.987 488.669 164.478 489.224C164.969 489.779 165.614 490.056 166.414 490.056ZM175.014 491.16C174.417 491.16 173.884 491.043 173.414 490.808C172.956 490.573 172.598 490.259 172.342 489.864C172.086 489.459 171.958 489 171.958 488.488C171.958 487.923 172.102 487.459 172.39 487.096C172.689 486.733 173.19 486.467 173.894 486.296C174.598 486.115 175.585 486.024 176.854 486.024H177.862V486.952H176.886C176.15 486.952 175.553 486.984 175.094 487.048C174.636 487.101 174.273 487.187 174.006 487.304C173.75 487.411 173.569 487.565 173.462 487.768C173.366 487.96 173.318 488.189 173.318 488.456C173.318 488.957 173.494 489.363 173.846 489.672C174.198 489.971 174.668 490.12 175.254 490.12C175.692 490.12 176.092 490.024 176.454 489.832C176.817 489.629 177.1 489.341 177.302 488.968C177.516 488.595 177.622 488.157 177.622 487.656V485.272C177.622 484.568 177.457 484.072 177.126 483.784C176.806 483.496 176.326 483.352 175.686 483.352C175.153 483.352 174.646 483.427 174.166 483.576C173.686 483.725 173.217 483.96 172.758 484.28L172.278 483.288C172.577 483.064 172.913 482.883 173.286 482.744C173.67 482.595 174.07 482.483 174.486 482.408C174.902 482.323 175.308 482.28 175.702 482.28C176.396 482.28 176.977 482.387 177.446 482.6C177.926 482.803 178.294 483.128 178.55 483.576C178.806 484.024 178.934 484.616 178.934 485.352V491H177.654V489.096H177.83C177.734 489.501 177.558 489.859 177.302 490.168C177.046 490.477 176.726 490.723 176.342 490.904C175.958 491.075 175.516 491.16 175.014 491.16ZM181.286 491V482.424H185.35C186 482.424 186.544 482.509 186.982 482.68C187.43 482.84 187.766 483.085 187.99 483.416C188.214 483.747 188.326 484.163 188.326 484.664C188.326 485.219 188.139 485.683 187.766 486.056C187.392 486.419 186.912 486.637 186.326 486.712L186.342 486.504C186.8 486.515 187.195 486.616 187.526 486.808C187.867 486.989 188.134 487.235 188.326 487.544C188.518 487.853 188.614 488.216 188.614 488.632C188.614 489.368 188.336 489.949 187.782 490.376C187.238 490.792 186.475 491 185.494 491H181.286ZM182.566 490.088H185.382C186.011 490.088 186.491 489.96 186.822 489.704C187.152 489.448 187.318 489.075 187.318 488.584C187.318 488.093 187.152 487.72 186.822 487.464C186.491 487.208 186.011 487.08 185.382 487.08H182.566V490.088ZM182.566 486.168H185.206C185.803 486.168 186.256 486.045 186.566 485.8C186.875 485.555 187.03 485.203 187.03 484.744C187.03 484.285 186.875 483.939 186.566 483.704C186.256 483.459 185.803 483.336 185.206 483.336H182.566V486.168ZM193.921 491.144C193.111 491.144 192.401 490.973 191.793 490.632C191.185 490.28 190.716 489.773 190.385 489.112C190.055 488.451 189.889 487.651 189.889 486.712C189.889 485.752 190.055 484.947 190.385 484.296C190.716 483.635 191.185 483.133 191.793 482.792C192.401 482.451 193.111 482.28 193.921 482.28C194.753 482.28 195.468 482.451 196.065 482.792C196.673 483.133 197.143 483.635 197.473 484.296C197.804 484.947 197.969 485.752 197.969 486.712C197.969 487.651 197.804 488.451 197.473 489.112C197.143 489.773 196.673 490.28 196.065 490.632C195.468 490.973 194.753 491.144 193.921 491.144ZM193.921 490.056C194.732 490.056 195.377 489.779 195.857 489.224C196.348 488.669 196.593 487.827 196.593 486.696C196.593 485.565 196.348 484.728 195.857 484.184C195.377 483.64 194.732 483.368 193.921 483.368C193.111 483.368 192.46 483.64 191.969 484.184C191.489 484.728 191.249 485.565 191.249 486.696C191.249 487.827 191.489 488.669 191.969 489.224C192.46 489.779 193.111 490.056 193.921 490.056Z" fill="#202020"/>
<path d="M21 539H43L32 520L21 539ZM33 536H31V534H33V536ZM33 532H31V528H33V532Z" fill="#202020"/>
<path d="M64.272 537.528V533.864H65.488C65.904 533.405 66.24 532.84 66.496 532.168C66.7627 531.485 66.96 530.685 67.088 529.768C67.2267 528.851 67.296 527.805 67.296 526.632V523.72H75.456V533.864H77.216V537.528H75.952V535H65.536V537.528H64.272ZM66.928 533.864H74.064V524.856H68.592V526.728C68.592 527.869 68.5333 528.883 68.416 529.768C68.2987 530.653 68.1173 531.432 67.872 532.104C67.6267 532.765 67.312 533.352 66.928 533.864ZM78.5861 537.88V526.424H79.9141V528.44H79.7061C79.8981 527.747 80.2768 527.213 80.8421 526.84C81.4075 526.467 82.0741 526.28 82.8421 526.28C83.5995 526.28 84.2608 526.451 84.8261 526.792C85.4021 527.133 85.8448 527.635 86.1541 528.296C86.4635 528.947 86.6181 529.752 86.6181 530.712C86.6181 531.651 86.4581 532.451 86.1381 533.112C85.8288 533.773 85.3915 534.28 84.8261 534.632C84.2715 534.973 83.6101 535.144 82.8421 535.144C82.0741 535.144 81.4075 534.957 80.8421 534.584C80.2875 534.2 79.9141 533.661 79.7221 532.968H79.9301V537.88H78.5861ZM82.5701 534.056C83.3808 534.056 84.0261 533.779 84.5061 533.224C84.9968 532.669 85.2421 531.832 85.2421 530.712C85.2421 529.571 84.9968 528.728 84.5061 528.184C84.0261 527.64 83.3808 527.368 82.5701 527.368C81.7701 527.368 81.1248 527.64 80.6341 528.184C80.1435 528.728 79.8981 529.571 79.8981 530.712C79.8981 531.832 80.1435 532.669 80.6341 533.224C81.1248 533.779 81.7701 534.056 82.5701 534.056ZM89.5253 537.88L90.9653 534.632V535.24L87.2213 526.424H88.7093L91.7653 533.928H91.3493L94.4373 526.424H95.8453L90.9493 537.88H89.5253ZM97.067 535V526.424H103.003V527.496H98.411V535H97.067ZM107.734 535.144C106.923 535.144 106.214 534.973 105.606 534.632C104.998 534.28 104.529 533.773 104.198 533.112C103.867 532.451 103.702 531.651 103.702 530.712C103.702 529.752 103.867 528.947 104.198 528.296C104.529 527.635 104.998 527.133 105.606 526.792C106.214 526.451 106.923 526.28 107.734 526.28C108.566 526.28 109.281 526.451 109.878 526.792C110.486 527.133 110.955 527.635 111.286 528.296C111.617 528.947 111.782 529.752 111.782 530.712C111.782 531.651 111.617 532.451 111.286 533.112C110.955 533.773 110.486 534.28 109.878 534.632C109.281 534.973 108.566 535.144 107.734 535.144ZM107.734 534.056C108.545 534.056 109.19 533.779 109.67 533.224C110.161 532.669 110.406 531.827 110.406 530.696C110.406 529.565 110.161 528.728 109.67 528.184C109.19 527.64 108.545 527.368 107.734 527.368C106.923 527.368 106.273 527.64 105.782 528.184C105.302 528.728 105.062 529.565 105.062 530.696C105.062 531.827 105.302 532.669 105.782 533.224C106.273 533.779 106.923 534.056 107.734 534.056ZM117.514 535.144C116.628 535.144 115.855 534.979 115.194 534.648C114.543 534.307 114.036 533.805 113.674 533.144C113.322 532.483 113.146 531.683 113.146 530.744C113.146 529.816 113.316 529.021 113.658 528.36C113.999 527.699 114.479 527.187 115.098 526.824C115.716 526.461 116.426 526.28 117.226 526.28C118.004 526.28 118.66 526.445 119.194 526.776C119.738 527.096 120.154 527.571 120.442 528.2C120.74 528.819 120.89 529.576 120.89 530.472V531H114.154V530.072H120.026L119.722 530.344C119.722 529.309 119.508 528.541 119.082 528.04C118.666 527.539 118.058 527.288 117.258 527.288C116.692 527.288 116.196 527.416 115.77 527.672C115.354 527.917 115.028 528.291 114.794 528.792C114.57 529.283 114.458 529.885 114.458 530.6V530.728C114.458 531.485 114.58 532.109 114.826 532.6C115.071 533.091 115.423 533.459 115.882 533.704C116.34 533.939 116.9 534.056 117.562 534.056C118.074 534.056 118.564 533.976 119.034 533.816C119.503 533.656 119.924 533.389 120.298 533.016L120.794 533.912C120.42 534.317 119.935 534.627 119.338 534.84C118.751 535.043 118.143 535.144 117.514 535.144Z" fill="#202020"/>
<rect x="41.5" y="744" width="310" height="60" rx="30" fill="#F0F0F0" fill-opacity="0.5"/>
<rect x="51.5" y="749" width="50" height="50" rx="25" fill="#555555" fill-opacity="0.05"/>
<path d="M74.4265 783.75V776.868H79.0147V783.75H84.75V774.574H88.1912L76.7206 764.25L65.25 774.574H68.6912V783.75H74.4265Z" fill="#202020"/>
<rect x="111.5" y="749" width="50" height="50" rx="25" fill="#555555" fill-opacity="0.05"/>
<path d="M136.688 774C139.174 774 141.188 771.986 141.188 769.5C141.188 767.014 139.174 765 136.688 765C134.201 765 132.188 767.014 132.188 769.5C132.188 771.986 134.201 774 136.688 774ZM136.688 776.25C133.684 776.25 127.688 777.757 127.688 780.75V783H145.688V780.75C145.688 777.757 139.691 776.25 136.688 776.25Z" fill="#252525"/>
<rect x="171.5" y="749" width="50" height="50" rx="25" fill="#555555" fill-opacity="0.05"/>
<path d="M204.675 764.25H189.075C188.002 764.25 187.135 765.127 187.135 766.2L187.125 783.75L191.025 779.85H204.675C205.748 779.85 206.625 778.972 206.625 777.9V766.2C206.625 765.127 205.748 764.25 204.675 764.25ZM191.025 771.075H202.725V773.025H191.025V771.075ZM198.825 775.95H191.025V774H198.825V775.95ZM202.725 770.1H191.025V768.15H202.725V770.1Z" fill="#252525"/>
<rect x="231.5" y="749" width="50" height="50" rx="25" fill="#555555" fill-opacity="0.05"/>
<path d="M260.499 776.514H259.618L259.306 776.213C260.399 774.942 261.056 773.292 261.056 771.497C261.056 767.494 257.812 764.25 253.809 764.25C249.807 764.25 246.562 767.494 246.562 771.497C246.562 775.5 249.807 778.744 253.809 778.744C255.605 778.744 257.255 778.086 258.526 776.994L258.827 777.306V778.187L264.401 783.75L266.062 782.089L260.499 776.514ZM253.809 776.514C251.033 776.514 248.792 774.273 248.792 771.497C248.792 768.721 251.033 766.48 253.809 766.48C256.586 766.48 258.827 768.721 258.827 771.497C258.827 774.273 256.586 776.514 253.809 776.514Z" fill="#202020"/>
<rect x="291.5" y="749" width="50" height="50" rx="25" fill="#555555" fill-opacity="0.05"/>
<path fill-rule="evenodd" clip-rule="evenodd" d="M313.793 763.183L313 765.231L310.267 766.781L308.09 766.449C307.727 766.399 307.357 766.459 307.028 766.62C306.699 766.781 306.425 767.036 306.242 767.354L305.505 768.646C305.316 768.968 305.228 769.34 305.255 769.712C305.281 770.085 305.42 770.441 305.652 770.733L307.036 772.449V775.551L305.69 777.267C305.457 777.559 305.319 777.915 305.292 778.288C305.266 778.66 305.353 779.032 305.542 779.354L306.28 780.646C306.463 780.963 306.737 781.219 307.066 781.38C307.395 781.541 307.765 781.601 308.128 781.551L310.305 781.219L313.001 782.769L313.795 784.819C313.929 785.165 314.164 785.464 314.47 785.674C314.776 785.885 315.138 785.999 315.509 786H317.061C317.433 785.999 317.796 785.886 318.103 785.675C318.409 785.463 318.645 785.165 318.779 784.817L319.572 782.769L322.267 781.219L324.444 781.551C324.807 781.601 325.177 781.541 325.506 781.38C325.835 781.219 326.109 780.963 326.292 780.646L327.029 779.354C327.219 779.032 327.306 778.66 327.28 778.288C327.253 777.915 327.115 777.559 326.882 777.267L325.499 775.551V772.449L326.846 770.733C327.079 770.441 327.217 770.085 327.244 769.712C327.27 769.34 327.183 768.968 326.993 768.646L326.256 767.354C326.073 767.036 325.799 766.781 325.47 766.619C325.141 766.458 324.771 766.399 324.408 766.449L322.231 766.781L319.535 765.231L318.741 763.181C318.607 762.834 318.371 762.536 318.065 762.325C317.759 762.115 317.396 762.001 317.025 762H315.509C315.137 762.001 314.775 762.115 314.468 762.326C314.162 762.537 313.927 762.836 313.793 763.183ZM316.267 777.857C317.29 777.857 318.271 777.451 318.994 776.727C319.718 776.004 320.124 775.023 320.124 774C320.124 772.977 319.718 771.996 318.994 771.273C318.271 770.549 317.29 770.143 316.267 770.143C315.244 770.143 314.263 770.549 313.54 771.273C312.816 771.996 312.41 772.977 312.41 774C312.41 775.023 312.816 776.004 313.54 776.727C314.263 777.451 315.244 777.857 316.267 777.857Z" fill="#202020"/>
<rect width="139" height="5" rx="2.5" transform="matrix(-1 0 0 1 266 840)" fill="#202020"/>
</g>
<defs>
<filter id="filter0_b_71_4395" x="-50" y="-50" width="493" height="154" filterUnits="userSpaceOnUse" color-interpolation-filters="sRGB">
<feFlood flood-opacity="0" result="BackgroundImageFix"/>
<feGaussianBlur in="BackgroundImageFix" stdDeviation="25"/>
<feComposite in2="SourceAlpha" operator="in" result="effect1_backgroundBlur_71_4395"/>
<feBlend mode="normal" in="SourceGraphic" in2="effect1_backgroundBlur_71_4395" result="shape"/>
</filter>
<clipPath id="clip0_71_4395">
<rect width="393" height="852" rx="48" fill="white"/>
</clipPath>
</defs>
</svg>
