<svg width="50" height="51" viewBox="0 0 50 51" fill="none" xmlns="http://www.w3.org/2000/svg">
<path d="M27.75 21.194C35.5604 21.194 42.4309 16.6736 46.401 9.83491C46.5996 9.4928 47.0985 9.48999 47.2784 9.84226C49.0186 13.2485 50 17.1067 50 21.194C50 34.997 38.8071 46.1865 25 46.1865C22.9922 46.1865 21.0396 45.9499 19.1688 45.503C19.0102 45.4652 18.8811 45.3506 18.8236 45.1981C15.6816 36.8628 15.2342 27.7443 17.5548 19.1323C17.639 18.8196 17.9963 18.6737 18.2826 18.8251C21.1553 20.3446 24.3644 21.194 27.75 21.194Z" fill="#F0F0F0"/>
<path d="M15.0137 17.0969C15.0709 16.9002 15.0019 16.6889 14.842 16.5608C11.2816 13.7076 8.50126 9.70534 6.9301 5.03612C6.80685 4.66984 6.33516 4.56206 6.08231 4.85437C2.2925 9.23565 0 14.9472 0 21.194C0 31.1746 5.85212 39.7889 14.3132 43.7944C14.6999 43.9775 15.1079 43.6076 14.9858 43.1976C12.4977 34.8474 12.4487 25.9222 14.8994 17.4904L15.0137 17.0969Z" fill="#F0F0F0"/>
</svg>
