<svg width="1890" height="360" viewBox="0 0 1890 360" fill="none" xmlns="http://www.w3.org/2000/svg">
<path d="M167.184 353V211.643L0.435546 0.705074H61.2266L192.086 166.965H193.551L324.41 0.705074H385.201L218.697 211.643V353H167.184ZM632.613 359.592C594.365 359.592 561.568 353.081 534.225 340.061C507.044 326.877 486.129 308.078 471.48 283.664C456.995 259.087 449.752 229.79 449.752 195.773V0.705074H501.51V193.332C501.51 218.723 506.474 240.451 516.402 258.518C526.493 276.421 541.305 290.174 560.836 299.777C580.367 309.217 604.293 313.937 632.613 313.937C660.934 313.937 684.859 309.217 704.391 299.777C723.922 290.174 738.733 276.421 748.824 258.518C758.915 240.451 763.961 218.723 763.961 193.332V0.705074H815.475V195.773C815.475 229.79 808.232 259.087 793.746 283.664C779.26 308.078 758.346 326.877 731.002 340.061C703.821 353.081 671.025 359.592 632.613 359.592ZM907.369 353V0.705074H968.648L1126.85 294.406H1128.32L1286.28 0.705074H1347.55V353H1298.73V77.8535H1276.75L1327.29 18.5273L1148.09 353H1106.83L927.633 18.5273L978.17 77.8535H956.197V353H907.369ZM1439.69 353V0.705074H1491.45V353H1439.69ZM1583.35 353V0.705074H1889.74V44.6504H1635.1V151.828H1872.9V194.309H1635.1V309.055H1889.74V353H1583.35Z" fill="#F0F0F0"/>
</svg>
